<?xml version="1.0" encoding="UTF-8" standalone="no"?>
<svg
   version="1.1"
   viewBox="0.00 0.00 1116.00 1020.00"
   width="1116.00"
   height="1020.00"
   id="svg69"
   sodipodi:docname="143VINYL_Heart_Logo.svg"
   inkscape:version="1.4 (86a8ad7, 2024-10-11)"
   xmlns:inkscape="http://www.inkscape.org/namespaces/inkscape"
   xmlns:sodipodi="http://sodipodi.sourceforge.net/DTD/sodipodi-0.dtd"
   xmlns="http://www.w3.org/2000/svg"
   xmlns:svg="http://www.w3.org/2000/svg">
  <defs
     id="defs69" />
  <sodipodi:namedview
     id="namedview69"
     pagecolor="#ffffff"
     bordercolor="#000000"
     borderopacity="0.25"
     inkscape:showpageshadow="2"
     inkscape:pageopacity="0.0"
     inkscape:pagecheckerboard="0"
     inkscape:deskcolor="#d1d1d1"
     inkscape:zoom="0.75784314"
     inkscape:cx="557.50323"
     inkscape:cy="510"
     inkscape:window-width="1920"
     inkscape:window-height="991"
     inkscape:window-x="-9"
     inkscape:window-y="-9"
     inkscape:window-maximized="1"
     inkscape:current-layer="svg69" />
  <g
     stroke-width="2.00"
     fill="none"
     stroke-linecap="butt"
     id="g45">
    <path
       stroke="#808080"
       vector-effect="non-scaling-stroke"
       d="   M 701.81 379.16   C 696.93 379.25 692.08 379.33 687.25 379.38   C 683.56 379.41 680.41 380.56 677.82 382.81   C 677.51 383.09 677.04 383.10 676.71 382.84   C 670.52 377.98 664.24 379.40 656.92 379.21   C 656.40 379.20 655.90 379.02 655.48 378.71   C 622.04 353.77 580.95 342.50 539.54 347.04   C 511.05 350.17 484.75 360.42 460.65 377.81   C 460.42 377.97 460.13 378.03 459.86 377.95   C 446.24 374.06 432.55 374.00 418.79 377.75"
       id="path1" />
    <path
       stroke="#12214b"
       vector-effect="non-scaling-stroke"
       d="   M 418.79 377.75   L 427.18 365.10   C 427.32 364.89 427.14 364.62 426.89 364.67   L 356.21 378.90"
       id="path2" />
    <path
       stroke="#808080"
       vector-effect="non-scaling-stroke"
       d="   M 356.21 378.90   C 351.91 379.19 347.47 379.33 342.88 379.33   C 339.13 379.32 336.41 379.61 334.73 380.20   C 332.12 381.11 329.82 382.59 327.82 384.64"
       id="path3" />
    <path
       stroke="#12214b"
       vector-effect="non-scaling-stroke"
       d="   M 327.82 384.64   C 323.50 384.93 319.22 385.76 314.99 387.14"
       id="path4" />
    <path
       stroke="#808080"
       vector-effect="non-scaling-stroke"
       d="   M 314.99 387.14   C 312.80 384.05 310.11 381.84 306.90 380.51   C 304.40 379.47 300.93 379.03 296.48 379.18   C 293.67 379.27 288.35 379.30 280.53 379.25   C 280.03 379.25 279.53 379.31 279.04 379.42   C 273.31 380.80 269.11 383.98 266.44 388.96   C 264.26 393.03 262.46 395.90 261.05 397.59"
       id="path5" />
    <path
       stroke="#12214b"
       vector-effect="non-scaling-stroke"
       d="   M 261.05 397.59   L 54.89 438.39   C 54.56 438.45 54.35 438.79 54.44 439.12   C 63.73 472.76 77.65 504.41 96.18 534.07   C 116.74 566.97 142.05 597.15 169.11 624.89   C 186.25 642.45 203.77 659.38 221.66 675.68   C 221.82 675.83 222.08 675.80 222.21 675.61   L 248.79 635.26"
       id="path6" />
    <path
       stroke="#808080"
       vector-effect="non-scaling-stroke"
       d="   M 248.79 635.26   C 250.40 640.11 252.90 644.26 256.31 647.69   C 256.92 648.31 258.54 649.46 261.16 651.14"
       id="path7" />
    <path
       stroke="#2b4d80"
       vector-effect="non-scaling-stroke"
       d="   M 261.16 651.14   L 236.26 688.31   C 236.08 688.58 236.12 688.94 236.36 689.16   C 292.41 738.89 361.65 797.13 436.91 862.67   C 437.06 862.80 437.29 862.67 437.25 862.47   L 393.71 649.44"
       id="path8" />
    <path
       stroke="#808080"
       vector-effect="non-scaling-stroke"
       d="   M 393.71 649.44   C 396.93 646.89 399.45 643.75 401.28 640.03   C 401.38 639.82 401.65 639.78 401.81 639.94   C 405.84 644.11 410.07 647.57 414.50 650.30"
       id="path9" />
    <path
       stroke="#225500"
       vector-effect="non-scaling-stroke"
       d="   M 414.50 650.30   L 460.56 883.00   C 460.64 883.40 460.85 883.76 461.15 884.03   C 493.58 912.68 525.54 941.60 557.04 970.79   C 557.28 971.02 557.66 971.02 557.90 970.79   C 607.24 925.15 657.48 880.26 708.61 836.13   C 708.85 835.92 708.83 835.54 708.56 835.36   L 437.72 656.44"
       id="path10" />
    <path
       stroke="#808080"
       vector-effect="non-scaling-stroke"
       d="   M 437.72 656.44   C 449.93 657.08 460.97 654.46 470.83 648.59   C 471.08 648.44 471.39 648.44 471.64 648.59   C 522.72 679.61 583.96 680.99 636.43 652.67   C 636.95 652.39 637.53 652.24 638.13 652.24   C 651.14 652.27 660.76 652.26 666.99 652.21   C 670.22 652.18 673.26 651.14 676.09 649.09   C 676.33 648.92 676.65 648.91 676.90 649.08   C 680.47 651.57 684.62 652.64 689.37 652.27"
       id="path11" />
    <path
       stroke="#803300"
       vector-effect="non-scaling-stroke"
       d="   M 689.37 652.27   C 688.50 653.20 688.00 654.02 687.86 654.75   C 691.17 654.32 694.47 653.56 697.74 652.45"
       id="path12" />
    <path
       stroke="#808080"
       vector-effect="non-scaling-stroke"
       d="   M 697.74 652.45   C 700.27 652.35 706.44 652.30 716.25 652.29   C 721.31 652.28 725.66 650.24 729.31 646.17"
       id="path13" />
    <path
       stroke="#803300"
       vector-effect="non-scaling-stroke"
       d="   M 729.31 646.17   C 731.52 646.40 733.54 646.02 735.39 645.03"
       id="path14" />
    <path
       stroke="#808080"
       vector-effect="non-scaling-stroke"
       d="   M 735.39 645.03   C 739.66 649.04 742.80 652.23 749.00 652.23   C 764.63 652.23 773.70 652.25 776.21 652.28   C 781.31 652.35 784.80 652.05 786.69 651.36   C 791.28 649.68 795.45 645.16 797.82 640.54   C 797.92 640.34 798.19 640.34 798.30 640.53   C 800.88 645.08 804.07 648.53 807.88 650.87"
       id="path15" />
    <path
       stroke="#806600"
       vector-effect="non-scaling-stroke"
       d="   M 807.88 650.87   L 547.38 704.20   C 547.15 704.25 547.09 704.54 547.28 704.67   L 723.43 822.60   C 723.66 822.75 723.97 822.74 724.18 822.56   C 771.22 782.39 809.77 749.31 839.82 723.32   C 871.99 695.49 902.96 667.96 931.83 639.07   C 936.19 634.71 941.52 629.36 947.82 623.01   C 948.11 622.72 947.84 622.23 947.44 622.31   L 890.44 633.96"
       id="path16" />
    <path
       stroke="#808080"
       vector-effect="non-scaling-stroke"
       d="   M 890.44 633.96   C 891.61 629.76 892.21 626.19 892.23 623.25   C 892.25 620.05 892.26 617.05 892.27 614.25"
       id="path17" />
    <path
       stroke="#803300"
       vector-effect="non-scaling-stroke"
       d="   M 892.27 614.25   L 969.45 598.98   C 969.73 598.93 969.98 598.78 970.17 598.57   C 1003.64 560.95 1031.59 519.12 1049.72 472.09   C 1067.84 425.10 1074.74 375.12 1076.14 323.73   C 1077.90 258.91 1064.35 195.52 1027.66 141.61   C 1027.49 141.36 1027.24 141.12 1026.91 140.90   C 1026.82 140.84 1026.70 140.86 1026.65 140.95   L 863.89 387.56"
       id="path18" />
    <path
       stroke="#808080"
       vector-effect="non-scaling-stroke"
       d="   M 863.89 387.56   C 859.53 381.43 853.74 378.64 846.52 379.19"
       id="path19" />
    <path
       stroke="#800000"
       vector-effect="non-scaling-stroke"
       d="   M 846.52 379.19   L 1015.69 126.26   C 1015.82 126.06 1015.81 125.80 1015.66 125.61   C 968.26 67.70 898.80 36.65 824.16 35.04   C 793.05 34.37 762.70 40.26 733.12 52.72   C 708.39 63.14 685.64 76.27 664.89 92.11   C 664.66 92.28 664.56 92.57 664.62 92.84   L 723.18 379.29"
       id="path20" />
    <path
       stroke="#808080"
       vector-effect="non-scaling-stroke"
       d="   M 723.18 379.29   L 702.51 379.13"
       id="path21" />
    <path
       stroke="#802b6f"
       vector-effect="non-scaling-stroke"
       d="   M 702.51 379.13   L 648.34 105.63   C 648.29 105.38 647.99 105.28 647.80 105.44   C 612.20 135.56 582.23 170.18 557.88 209.29   C 557.70 209.57 557.30 209.57 557.12 209.29   C 526.20 160.01 486.12 116.64 438.71 83.80   C 399.57 56.69 352.10 36.52 303.99 35.13   C 270.15 34.16 237.30 39.32 205.45 50.61   C 205.17 50.71 205.12 51.09 205.37 51.25   L 701.81 379.16"
       id="path22" />
    <path
       stroke="#ffaaee"
       vector-effect="non-scaling-stroke"
       d="   M 702.51 379.13   L 701.81 379.16"
       id="path23" />
    <path
       stroke="#ffe680"
       vector-effect="non-scaling-stroke"
       d="   M 890.44 633.96   C 888.58 640.73 884.31 647.91 877.63 650.90   C 875.52 651.84 872.34 652.29 868.07 652.24   C 866.65 652.23 848.79 652.22 814.50 652.23   C 812.66 652.23 810.45 651.78 807.88 650.87"
       id="path24" />
    <path
       stroke="#ffb380"
       vector-effect="non-scaling-stroke"
       d="   M 735.39 645.03   L 733.11 641.51   C 732.97 641.30 732.66 641.29 732.52 641.50   L 729.31 646.17"
       id="path25" />
    <path
       stroke="#ffb380"
       vector-effect="non-scaling-stroke"
       d="   M 697.74 652.45   L 689.37 652.27"
       id="path26" />
    <path
       stroke="#a2d580"
       vector-effect="non-scaling-stroke"
       d="   M 437.72 656.44   C 430.12 656.00 422.38 653.95 414.50 650.30"
       id="path27" />
    <path
       stroke="#aaccff"
       vector-effect="non-scaling-stroke"
       d="   M 393.71 649.44   C 390.69 651.32 387.79 652.26 385.00 652.25   C 362.63 652.22 351.37 652.20 351.24 652.19   C 337.66 651.86 331.43 636.99 330.59 625.13   C 330.39 622.38 330.38 619.15 330.55 615.46   C 330.56 615.21 330.37 615.01 330.12 615.01   L 322.11 615.01   C 321.87 615.01 321.68 615.21 321.70 615.45   C 322.43 628.02 319.62 645.23 306.81 651.13   C 305.05 651.94 301.80 652.32 297.07 652.26   C 295.37 652.24 285.18 652.23 266.51 652.24   C 265.70 652.24 263.92 651.87 261.16 651.14"
       id="path28" />
    <path
       stroke="#91a0cb"
       vector-effect="non-scaling-stroke"
       d="   M 248.79 635.26   C 247.44 630.61 246.76 627.28 246.76 625.25   C 246.75 566.88 246.75 525.33 246.76 500.60   C 246.76 500.23 246.46 499.94 246.09 499.93   C 238.71 499.82 233.23 497.14 229.65 491.89   C 224.35 484.10 222.84 476.02 222.96 466.19   C 223.04 459.32 223.04 452.67 222.96 446.24   C 222.80 433.50 226.38 417.86 240.12 413.31   C 241.49 412.85 242.89 412.31 244.30 411.69   C 251.05 408.72 256.63 404.02 261.05 397.59"
       id="path29" />
    <path
       stroke="#91a0cb"
       vector-effect="non-scaling-stroke"
       d="   M 314.99 387.14   C 317.48 390.71 319.23 394.51 320.23 398.54   C 320.28 398.76 320.60 398.76 320.66 398.54   C 321.90 393.55 324.29 388.91 327.82 384.64"
       id="path30" />
    <path
       stroke="#91a0cb"
       vector-effect="non-scaling-stroke"
       d="   M 356.21 378.90   C 364.32 379.25 372.30 379.37 380.16 379.27   C 385.02 379.22 388.22 379.48 389.76 380.06   C 393.98 381.67 397.19 384.78 399.69 388.67   C 399.87 388.95 400.25 389.00 400.49 388.77   C 405.76 383.74 411.86 380.06 418.79 377.75"
       id="path31" />
    <path
       stroke="#ffb380"
       vector-effect="non-scaling-stroke"
       d="   M 892.27 614.25   C 892.22 602.22 892.21 590.39 892.24 578.76   C 892.28 565.54 886.08 548.49 870.80 547.85   C 870.48 547.84 870.23 547.58 870.23 547.26   L 870.23 448.82   C 870.23 448.67 870.39 448.56 870.53 448.63   C 886.04 455.86 903.05 452.02 913.00 438.25   C 922.95 424.49 920.38 404.92 907.57 393.92   C 896.00 383.98 879.64 383.36 866.86 391.84   C 866.64 391.98 866.35 391.91 866.22 391.69   L 863.89 387.56"
       id="path32" />
    <path
       stroke="#ff8080"
       vector-effect="non-scaling-stroke"
       d="   M 846.52 379.19   C 823.21 379.30 799.71 379.32 776.00 379.25   C 772.41 379.24 769.13 380.29 766.18 382.42   C 765.92 382.61 765.57 382.61 765.30 382.44   C 761.99 380.32 759.39 379.26 757.48 379.25   C 746.07 379.22 734.63 379.24 723.18 379.29"
       id="path33" />
    <path
       stroke="#501645"
       vector-effect="non-scaling-stroke"
       d="   M 567.78 314.90   C 567.79 314.82 567.73 314.74 567.60 314.65   C 539.59 295.90 412.40 210.75 186.05 59.20   C 185.72 58.98 185.30 58.95 184.95 59.12   C 158.03 71.61 134.29 88.39 113.74 109.45   C 63.79 160.63 40.20 230.93 38.85 302.00   C 38.10 341.76 41.32 381.77 49.82 420.47   C 49.90 420.86 50.29 421.11 50.68 421.03   L 567.52 315.22   C 567.67 315.18 567.78 315.05 567.78 314.90"
       id="path34" />
    <path
       stroke="#91a0cb"
       vector-effect="non-scaling-stroke"
       d="   M 467.77 500.80   C 475.50 493.99 479.73 485.31 480.47 474.77   C 481.78 456.16 481.65 435.09 472.90 418.62   C 467.45 408.35 457.36 403.87 445.99 402.68   C 430.40 401.05 411.45 404.25 405.50 421.04   C 403.21 427.51 401.82 434.51 401.34 442.04   C 400.75 451.42 400.58 461.97 400.83 473.69   C 400.84 474.00 401.09 474.25 401.40 474.25   L 434.98 474.25   C 435.32 474.25 435.59 473.97 435.58 473.63   C 435.33 463.34 435.46 453.88 435.99 445.26   C 436.16 442.47 436.71 440.29 437.64 438.71   C 439.82 435.03 445.05 435.87 446.36 439.94   C 447.22 442.60 447.67 445.64 447.70 449.06   C 447.81 460.43 447.80 468.73 447.66 473.97   C 447.56 477.87 446.95 481.40 445.83 484.55   C 444.77 487.53 442.73 489.23 439.72 489.65   C 435.74 490.21 431.68 490.39 427.53 490.19   C 427.25 490.18 427.01 490.41 427.01 490.69   L 427.01 521.70   C 427.01 522.09 427.33 522.41 427.72 522.42   C 434.86 522.47 442.87 522.78 445.38 530.15   C 446.86 534.50 447.62 538.71 447.66 542.79   C 447.85 561.22 448.09 574.66 447.10 587.27   C 446.89 589.92 446.10 592.06 444.72 593.71   C 442.54 596.31 437.22 595.02 436.61 591.32   C 435.98 587.50 435.63 582.97 435.58 577.74   C 435.49 567.65 435.47 554.51 435.53 538.34   C 435.53 538.15 435.38 538.00 435.20 538.00   L 401.22 538.00   C 400.99 538.00 400.80 538.19 400.79 538.42   C 400.62 551.51 400.78 564.29 401.26 576.75   C 401.78 590.19 402.85 604.25 411.49 615.48   C 420.33 626.96 432.61 629.93 446.48 628.86   C 478.50 626.40 481.83 592.51 482.21 568.01   C 482.46 551.82 482.13 538.73 481.22 528.76   C 480.16 517.26 477.73 508.25 467.83 501.65   C 467.54 501.45 467.51 501.03 467.77 500.80"
       id="path35" />
    <path
       stroke="#91a0cb"
       vector-effect="non-scaling-stroke"
       d="   M 244.20 466.97   C 247.90 466.95 252.00 467.21 256.50 467.74   C 264.84 468.73 266.51 474.82 266.78 482.00   C 267.04 488.88 267.18 497.63 267.20 508.25   C 267.28 557.83 267.28 596.54 267.21 624.37   C 267.21 624.58 267.38 624.75 267.59 624.75   L 301.27 624.75   C 301.54 624.75 301.76 624.53 301.76 624.26   L 301.76 407.09   C 301.76 406.76 301.49 406.49 301.16 406.49   L 281.85 406.49   C 281.51 406.49 281.20 406.69 281.06 406.99   C 273.17 423.60 260.84 435.02 244.07 441.26   C 243.73 441.39 243.50 441.71 243.50 442.08   L 243.50 466.28   C 243.50 466.66 243.82 466.98 244.20 466.97"
       id="path36" />
    <path
       stroke="#91a0cb"
       vector-effect="non-scaling-stroke"
       d="   M 385.85 586.26   L 394.41 586.26   C 394.74 586.26 395.00 586.00 395.00 585.67   L 395.00 549.38   C 395.00 549.03 394.72 548.75 394.37 548.75   L 385.92 548.75   C 385.55 548.75 385.25 548.45 385.25 548.07   L 385.25 406.80   C 385.25 406.63 385.11 406.49 384.93 406.49   L 339.88 406.49   C 339.72 406.49 339.58 406.60 339.55 406.76   L 309.78 548.78   C 309.76 548.89 309.75 548.99 309.75 549.10   L 309.75 585.93   C 309.75 586.11 309.89 586.25 310.07 586.25   L 350.39 586.25   C 350.59 586.25 350.75 586.41 350.75 586.61   L 350.75 624.13   C 350.75 624.47 351.03 624.75 351.37 624.75   L 384.66 624.75   C 384.99 624.75 385.25 624.49 385.25 624.16   L 385.25 586.87   C 385.25 586.53 385.52 586.26 385.85 586.26"
       id="path37" />
    <path
       stroke="#91a0cb"
       vector-effect="non-scaling-stroke"
       d="   M 534.41 553.45   C 531.97 504.90 528.92 456.02 525.25 406.79   C 525.24 406.62 525.09 406.49 524.92 406.49   L 487.56 406.49   C 487.38 406.49 487.25 406.64 487.27 406.82   L 508.02 624.28   C 508.05 624.55 508.27 624.75 508.54 624.75   L 562.17 624.75   C 562.33 624.75 562.47 624.62 562.49 624.46   L 580.77 406.84   C 580.79 406.65 580.64 406.49 580.45 406.49   L 542.74 406.49   C 542.58 406.49 542.45 406.62 542.44 406.78   L 534.69 553.44   C 534.68 553.52 534.62 553.58 534.55 553.58   L 534.54 553.58   C 534.47 553.58 534.42 553.52 534.41 553.45"
       id="path38" />
    <path
       stroke="#91a0cb"
       vector-effect="non-scaling-stroke"
       d="   M 622.76 406.91   C 622.76 406.68 622.57 406.49 622.34 406.49   L 587.18 406.49   C 586.95 406.49 586.76 406.68 586.76 406.91   L 586.76 624.33   C 586.76 624.56 586.95 624.75 587.18 624.75   L 622.34 624.75   C 622.57 624.75 622.76 624.56 622.76 624.33   L 622.76 406.91"
       id="path39" />
    <path
       stroke="#91a0cb"
       vector-effect="non-scaling-stroke"
       d="   M 667.52 528.66   L 685.62 624.32   C 685.67 624.57 685.88 624.75 686.14 624.75   L 716.69 624.75   C 716.86 624.75 717.00 624.61 717.00 624.44   L 717.00 406.80   C 717.00 406.63 716.86 406.49 716.68 406.49   L 687.32 406.49   C 687.01 406.49 686.75 406.74 686.75 407.05   L 686.75 502.19   C 686.75 502.26 686.70 502.31 686.64 502.32   C 686.57 502.33 686.51 502.28 686.50 502.22   L 666.97 406.82   C 666.93 406.63 666.76 406.49 666.56 406.49   L 637.48 406.49   C 637.22 406.49 637.01 406.70 637.01 406.97   L 637.01 624.45   C 637.01 624.62 637.14 624.75 637.31 624.75   L 666.91 624.75   C 667.09 624.75 667.24 624.60 667.24 624.42   L 667.24 528.68   C 667.24 528.61 667.30 528.55 667.37 528.54   C 667.44 528.54 667.51 528.59 667.52 528.66"
       id="path40" />
    <path
       stroke="#91a0cb"
       vector-effect="non-scaling-stroke"
       d="   M 764.73 489.11   C 764.83 488.88 764.82 488.05 764.71 486.62   C 763.06 465.75 760.25 439.14 756.28 406.79   C 756.26 406.62 756.11 406.49 755.93 406.49   L 723.55 406.49   C 723.29 406.49 723.09 406.73 723.14 406.98   C 733.39 463.60 741.44 507.93 747.29 539.98   C 747.97 543.69 748.30 547.39 748.29 551.08   C 748.23 567.88 748.22 592.33 748.26 624.44   C 748.26 624.61 748.40 624.75 748.57 624.75   L 781.14 624.75   C 781.47 624.75 781.74 624.48 781.74 624.15   C 781.78 601.22 781.77 577.22 781.72 552.14   C 781.71 548.42 782.03 544.85 782.68 541.42   C 787.53 515.62 795.90 470.84 807.80 407.07   C 807.86 406.77 807.63 406.49 807.33 406.49   L 775.14 406.49   C 774.89 406.49 774.68 406.67 774.65 406.91   C 771.25 432.00 768.06 459.41 765.07 489.14   C 765.05 489.34 764.96 489.40 764.80 489.32   C 764.73 489.28 764.70 489.19 764.73 489.11"
       id="path41" />
    <path
       stroke="#91a0cb"
       vector-effect="non-scaling-stroke"
       d="   M 871.11 624.75   C 871.33 624.75 871.51 624.57 871.51 624.35   L 871.51 581.15   C 871.51 580.93 871.33 580.75 871.11 580.75   L 850.16 580.75   C 849.94 580.75 849.76 580.57 849.76 580.35   L 849.76 406.89   C 849.76 406.67 849.58 406.49 849.36 406.49   L 814.15 406.49   C 813.93 406.49 813.75 406.67 813.75 406.89   L 813.75 624.35   C 813.75 624.57 813.93 624.75 814.15 624.75   L 871.11 624.75"
       id="path42" />
    <path
       stroke="#91a0cb"
       vector-effect="non-scaling-stroke"
       d="   M 863.74 431.48   C 864.76 431.48 865.39 431.48 865.62 431.48   C 865.96 431.48 866.24 431.20 866.24 430.86   L 866.24 411.59   C 866.24 411.26 866.51 410.99 866.84 410.99   L 872.95 410.99   C 873.26 410.99 873.51 410.74 873.51 410.43   L 873.51 407.62   C 873.51 407.29 873.25 407.03 872.92 407.02   C 870.16 407.00 867.10 406.99 863.75 407.00   C 860.39 406.99 857.33 407.00 854.57 407.02   C 854.25 407.02 853.98 407.29 853.98 407.62   L 853.98 410.43   C 853.98 410.74 854.23 410.99 854.54 410.99   L 860.65 410.99   C 860.98 410.99 861.25 411.26 861.25 411.59   L 861.25 430.86   C 861.25 431.20 861.53 431.48 861.87 431.48   C 862.10 431.48 862.73 431.48 863.74 431.48"
       id="path43" />
    <path
       stroke="#91a0cb"
       vector-effect="non-scaling-stroke"
       d="   M 888.38 431.48   C 889.80 431.48 890.52 431.48 890.54 431.48   C 890.87 431.46 891.14 431.22 891.21 430.91   L 895.39 413.10   C 895.41 413.01 895.49 412.95 895.58 412.96   C 895.67 412.97 895.74 413.05 895.74 413.14   L 895.74 431.14   C 895.74 431.33 895.90 431.49 896.10 431.49   L 900.16 431.49   C 900.35 431.49 900.51 431.33 900.51 431.14   L 900.51 407.64   C 900.51 407.29 900.23 407.00 899.88 407.00   L 893.00 407.00   C 892.68 407.00 892.40 407.22 892.32 407.54   L 888.55 423.07   C 888.54 423.10 888.50 423.13 888.44 423.14   C 888.42 423.14 888.40 423.14 888.38 423.14   C 888.36 423.14 888.34 423.14 888.32 423.14   C 888.26 423.13 888.22 423.10 888.21 423.07   L 884.45 407.54   C 884.37 407.22 884.09 407.00 883.77 407.00   L 876.89 407.00   C 876.54 407.00 876.26 407.29 876.26 407.64   L 876.25 431.14   C 876.25 431.33 876.41 431.49 876.60 431.49   L 880.66 431.49   C 880.86 431.49 881.02 431.33 881.02 431.14   L 881.03 413.14   C 881.03 413.05 881.09 412.97 881.18 412.96   C 881.27 412.95 881.36 413.01 881.38 413.10   L 885.55 430.91   C 885.62 431.22 885.89 431.46 886.22 431.48   C 886.24 431.48 886.96 431.48 888.38 431.48"
       id="path44" />
    <path
       stroke="#91a0cb"
       vector-effect="non-scaling-stroke"
       d="   M 350.75 459.91   C 350.75 459.87 350.72 459.84 350.68 459.83   L 350.52 459.80   C 350.48 459.80 350.43 459.83 350.43 459.87   L 335.77 548.66   C 335.76 548.71 335.79 548.75 335.84 548.75   L 350.67 548.75   C 350.71 548.75 350.75 548.71 350.75 548.67   L 350.75 459.91"
       id="path45" />
  </g>
  <path
     fill="#a02c89"
     d="   M 567.78 314.90   C 567.78 315.05 567.67 315.18 567.52 315.22   L 50.68 421.03   C 50.29 421.11 49.90 420.86 49.82 420.47   C 41.32 381.77 38.10 341.76 38.85 302.00   C 40.20 230.93 63.79 160.63 113.74 109.45   C 134.29 88.39 158.03 71.61 184.95 59.12   C 185.30 58.95 185.72 58.98 186.05 59.20   C 412.40 210.75 539.59 295.90 567.60 314.65   C 567.73 314.74 567.79 314.82 567.78 314.90   Z"
     id="path46" />
  <g
     fill="#ffffff"
     id="g48">
    <path
       d="   M 701.81 379.16   L 702.51 379.13   L 723.18 379.29   C 734.63 379.24 746.07 379.22 757.48 379.25   C 759.39 379.26 761.99 380.32 765.30 382.44   C 765.57 382.61 765.92 382.61 766.18 382.42   C 769.13 380.29 772.41 379.24 776.00 379.25   C 799.71 379.32 823.21 379.30 846.52 379.19   C 853.74 378.64 859.53 381.43 863.89 387.56   L 866.22 391.69   C 866.35 391.91 866.64 391.98 866.86 391.84   C 879.64 383.36 896.00 383.98 907.57 393.92   C 920.38 404.92 922.95 424.49 913.00 438.25   C 903.05 452.02 886.04 455.86 870.53 448.63   C 870.39 448.56 870.23 448.67 870.23 448.82   L 870.23 547.26   C 870.23 547.58 870.48 547.84 870.80 547.85   C 886.08 548.49 892.28 565.54 892.24 578.76   C 892.21 590.39 892.22 602.22 892.27 614.25   C 892.26 617.05 892.25 620.05 892.23 623.25   C 892.21 626.19 891.61 629.76 890.44 633.96   C 888.58 640.73 884.31 647.91 877.63 650.90   C 875.52 651.84 872.34 652.29 868.07 652.24   C 866.65 652.23 848.79 652.22 814.50 652.23   C 812.66 652.23 810.45 651.78 807.88 650.87   C 804.07 648.53 800.88 645.08 798.30 640.53   C 798.19 640.34 797.92 640.34 797.82 640.54   C 795.45 645.16 791.28 649.68 786.69 651.36   C 784.80 652.05 781.31 652.35 776.21 652.28   C 773.70 652.25 764.63 652.23 749.00 652.23   C 742.80 652.23 739.66 649.04 735.39 645.03   L 733.11 641.51   C 732.97 641.30 732.66 641.29 732.52 641.50   L 729.31 646.17   C 725.66 650.24 721.31 652.28 716.25 652.29   C 706.44 652.30 700.27 652.35 697.74 652.45   L 689.37 652.27   C 684.62 652.64 680.47 651.57 676.90 649.08   C 676.65 648.91 676.33 648.92 676.09 649.09   C 673.26 651.14 670.22 652.18 666.99 652.21   C 660.76 652.26 651.14 652.27 638.13 652.24   C 637.53 652.24 636.95 652.39 636.43 652.67   C 583.96 680.99 522.72 679.61 471.64 648.59   C 471.39 648.44 471.08 648.44 470.83 648.59   C 460.97 654.46 449.93 657.08 437.72 656.44   C 430.12 656.00 422.38 653.95 414.50 650.30   C 410.07 647.57 405.84 644.11 401.81 639.94   C 401.65 639.78 401.38 639.82 401.28 640.03   C 399.45 643.75 396.93 646.89 393.71 649.44   C 390.69 651.32 387.79 652.26 385.00 652.25   C 362.63 652.22 351.37 652.20 351.24 652.19   C 337.66 651.86 331.43 636.99 330.59 625.13   C 330.39 622.38 330.38 619.15 330.55 615.46   C 330.56 615.21 330.37 615.01 330.12 615.01   L 322.11 615.01   C 321.87 615.01 321.68 615.21 321.70 615.45   C 322.43 628.02 319.62 645.23 306.81 651.13   C 305.05 651.94 301.80 652.32 297.07 652.26   C 295.37 652.24 285.18 652.23 266.51 652.24   C 265.70 652.24 263.92 651.87 261.16 651.14   C 258.54 649.46 256.92 648.31 256.31 647.69   C 252.90 644.26 250.40 640.11 248.79 635.26   C 247.44 630.61 246.76 627.28 246.76 625.25   C 246.75 566.88 246.75 525.33 246.76 500.60   C 246.76 500.23 246.46 499.94 246.09 499.93   C 238.71 499.82 233.23 497.14 229.65 491.89   C 224.35 484.10 222.84 476.02 222.96 466.19   C 223.04 459.32 223.04 452.67 222.96 446.24   C 222.80 433.50 226.38 417.86 240.12 413.31   C 241.49 412.85 242.89 412.31 244.30 411.69   C 251.05 408.72 256.63 404.02 261.05 397.59   C 262.46 395.90 264.26 393.03 266.44 388.96   C 269.11 383.98 273.31 380.80 279.04 379.42   C 279.53 379.31 280.03 379.25 280.53 379.25   C 288.35 379.30 293.67 379.27 296.48 379.18   C 300.93 379.03 304.40 379.47 306.90 380.51   C 310.11 381.84 312.80 384.05 314.99 387.14   C 317.48 390.71 319.23 394.51 320.23 398.54   C 320.28 398.76 320.60 398.76 320.66 398.54   C 321.90 393.55 324.29 388.91 327.82 384.64   C 329.82 382.59 332.12 381.11 334.73 380.20   C 336.41 379.61 339.13 379.32 342.88 379.33   C 347.47 379.33 351.91 379.19 356.21 378.90   C 364.32 379.25 372.30 379.37 380.16 379.27   C 385.02 379.22 388.22 379.48 389.76 380.06   C 393.98 381.67 397.19 384.78 399.69 388.67   C 399.87 388.95 400.25 389.00 400.49 388.77   C 405.76 383.74 411.86 380.06 418.79 377.75   C 432.55 374.00 446.24 374.06 459.86 377.95   C 460.13 378.03 460.42 377.97 460.65 377.81   C 484.75 360.42 511.05 350.17 539.54 347.04   C 580.95 342.50 622.04 353.77 655.48 378.71   C 655.90 379.02 656.40 379.20 656.92 379.21   C 664.24 379.40 670.52 377.98 676.71 382.84   C 677.04 383.10 677.51 383.09 677.82 382.81   C 680.41 380.56 683.56 379.41 687.25 379.38   C 692.08 379.33 696.93 379.25 701.81 379.16   Z   M 467.77 500.80   C 475.50 493.99 479.73 485.31 480.47 474.77   C 481.78 456.16 481.65 435.09 472.90 418.62   C 467.45 408.35 457.36 403.87 445.99 402.68   C 430.40 401.05 411.45 404.25 405.50 421.04   C 403.21 427.51 401.82 434.51 401.34 442.04   C 400.75 451.42 400.58 461.97 400.83 473.69   C 400.84 474.00 401.09 474.25 401.40 474.25   L 434.98 474.25   C 435.32 474.25 435.59 473.97 435.58 473.63   C 435.33 463.34 435.46 453.88 435.99 445.26   C 436.16 442.47 436.71 440.29 437.64 438.71   C 439.82 435.03 445.05 435.87 446.36 439.94   C 447.22 442.60 447.67 445.64 447.70 449.06   C 447.81 460.43 447.80 468.73 447.66 473.97   C 447.56 477.87 446.95 481.40 445.83 484.55   C 444.77 487.53 442.73 489.23 439.72 489.65   C 435.74 490.21 431.68 490.39 427.53 490.19   C 427.25 490.18 427.01 490.41 427.01 490.69   L 427.01 521.70   C 427.01 522.09 427.33 522.41 427.72 522.42   C 434.86 522.47 442.87 522.78 445.38 530.15   C 446.86 534.50 447.62 538.71 447.66 542.79   C 447.85 561.22 448.09 574.66 447.10 587.27   C 446.89 589.92 446.10 592.06 444.72 593.71   C 442.54 596.31 437.22 595.02 436.61 591.32   C 435.98 587.50 435.63 582.97 435.58 577.74   C 435.49 567.65 435.47 554.51 435.53 538.34   C 435.53 538.15 435.38 538.00 435.20 538.00   L 401.22 538.00   C 400.99 538.00 400.80 538.19 400.79 538.42   C 400.62 551.51 400.78 564.29 401.26 576.75   C 401.78 590.19 402.85 604.25 411.49 615.48   C 420.33 626.96 432.61 629.93 446.48 628.86   C 478.50 626.40 481.83 592.51 482.21 568.01   C 482.46 551.82 482.13 538.73 481.22 528.76   C 480.16 517.26 477.73 508.25 467.83 501.65   C 467.54 501.45 467.51 501.03 467.77 500.80   Z   M 244.20 466.97   C 247.90 466.95 252.00 467.21 256.50 467.74   C 264.84 468.73 266.51 474.82 266.78 482.00   C 267.04 488.88 267.18 497.63 267.20 508.25   C 267.28 557.83 267.28 596.54 267.21 624.37   C 267.21 624.58 267.38 624.75 267.59 624.75   L 301.27 624.75   C 301.54 624.75 301.76 624.53 301.76 624.26   L 301.76 407.09   C 301.76 406.76 301.49 406.49 301.16 406.49   L 281.85 406.49   C 281.51 406.49 281.20 406.69 281.06 406.99   C 273.17 423.60 260.84 435.02 244.07 441.26   C 243.73 441.39 243.50 441.71 243.50 442.08   L 243.50 466.28   C 243.50 466.66 243.82 466.98 244.20 466.97   Z   M 385.85 586.26   L 394.41 586.26   C 394.74 586.26 395.00 586.00 395.00 585.67   L 395.00 549.38   C 395.00 549.03 394.72 548.75 394.37 548.75   L 385.92 548.75   C 385.55 548.75 385.25 548.45 385.25 548.07   L 385.25 406.80   C 385.25 406.63 385.11 406.49 384.93 406.49   L 339.88 406.49   C 339.72 406.49 339.58 406.60 339.55 406.76   L 309.78 548.78   C 309.76 548.89 309.75 548.99 309.75 549.10   L 309.75 585.93   C 309.75 586.11 309.89 586.25 310.07 586.25   L 350.39 586.25   C 350.59 586.25 350.75 586.41 350.75 586.61   L 350.75 624.13   C 350.75 624.47 351.03 624.75 351.37 624.75   L 384.66 624.75   C 384.99 624.75 385.25 624.49 385.25 624.16   L 385.25 586.87   C 385.25 586.53 385.52 586.26 385.85 586.26   Z   M 534.41 553.45   C 531.97 504.90 528.92 456.02 525.25 406.79   C 525.24 406.62 525.09 406.49 524.92 406.49   L 487.56 406.49   C 487.38 406.49 487.25 406.64 487.27 406.82   L 508.02 624.28   C 508.05 624.55 508.27 624.75 508.54 624.75   L 562.17 624.75   C 562.33 624.75 562.47 624.62 562.49 624.46   L 580.77 406.84   C 580.79 406.65 580.64 406.49 580.45 406.49   L 542.74 406.49   C 542.58 406.49 542.45 406.62 542.44 406.78   L 534.69 553.44   C 534.68 553.52 534.62 553.58 534.55 553.58   L 534.54 553.58   C 534.47 553.58 534.42 553.52 534.41 553.45   Z   M 622.76 406.91   C 622.76 406.68 622.57 406.49 622.34 406.49   L 587.18 406.49   C 586.95 406.49 586.76 406.68 586.76 406.91   L 586.76 624.33   C 586.76 624.56 586.95 624.75 587.18 624.75   L 622.34 624.75   C 622.57 624.75 622.76 624.56 622.76 624.33   L 622.76 406.91   Z   M 667.52 528.66   L 685.62 624.32   C 685.67 624.57 685.88 624.75 686.14 624.75   L 716.69 624.75   C 716.86 624.75 717.00 624.61 717.00 624.44   L 717.00 406.80   C 717.00 406.63 716.86 406.49 716.68 406.49   L 687.32 406.49   C 687.01 406.49 686.75 406.74 686.75 407.05   L 686.75 502.19   C 686.75 502.26 686.70 502.31 686.64 502.32   C 686.57 502.33 686.51 502.28 686.50 502.22   L 666.97 406.82   C 666.93 406.63 666.76 406.49 666.56 406.49   L 637.48 406.49   C 637.22 406.49 637.01 406.70 637.01 406.97   L 637.01 624.45   C 637.01 624.62 637.14 624.75 637.31 624.75   L 666.91 624.75   C 667.09 624.75 667.24 624.60 667.24 624.42   L 667.24 528.68   C 667.24 528.61 667.30 528.55 667.37 528.54   C 667.44 528.54 667.51 528.59 667.52 528.66   Z   M 764.73 489.11   C 764.83 488.88 764.82 488.05 764.71 486.62   C 763.06 465.75 760.25 439.14 756.28 406.79   C 756.26 406.62 756.11 406.49 755.93 406.49   L 723.55 406.49   C 723.29 406.49 723.09 406.73 723.14 406.98   C 733.39 463.60 741.44 507.93 747.29 539.98   C 747.97 543.69 748.30 547.39 748.29 551.08   C 748.23 567.88 748.22 592.33 748.26 624.44   C 748.26 624.61 748.40 624.75 748.57 624.75   L 781.14 624.75   C 781.47 624.75 781.74 624.48 781.74 624.15   C 781.78 601.22 781.77 577.22 781.72 552.14   C 781.71 548.42 782.03 544.85 782.68 541.42   C 787.53 515.62 795.90 470.84 807.80 407.07   C 807.86 406.77 807.63 406.49 807.33 406.49   L 775.14 406.49   C 774.89 406.49 774.68 406.67 774.65 406.91   C 771.25 432.00 768.06 459.41 765.07 489.14   C 765.05 489.34 764.96 489.40 764.80 489.32   C 764.73 489.28 764.70 489.19 764.73 489.11   Z   M 871.11 624.75   C 871.33 624.75 871.51 624.57 871.51 624.35   L 871.51 581.15   C 871.51 580.93 871.33 580.75 871.11 580.75   L 850.16 580.75   C 849.94 580.75 849.76 580.57 849.76 580.35   L 849.76 406.89   C 849.76 406.67 849.58 406.49 849.36 406.49   L 814.15 406.49   C 813.93 406.49 813.75 406.67 813.75 406.89   L 813.75 624.35   C 813.75 624.57 813.93 624.75 814.15 624.75   L 871.11 624.75   Z   M 863.74 431.48   C 864.76 431.48 865.39 431.48 865.62 431.48   C 865.96 431.48 866.24 431.20 866.24 430.86   L 866.24 411.59   C 866.24 411.26 866.51 410.99 866.84 410.99   L 872.95 410.99   C 873.26 410.99 873.51 410.74 873.51 410.43   L 873.51 407.62   C 873.51 407.29 873.25 407.03 872.92 407.02   C 870.16 407.00 867.10 406.99 863.75 407.00   C 860.39 406.99 857.33 407.00 854.57 407.02   C 854.25 407.02 853.98 407.29 853.98 407.62   L 853.98 410.43   C 853.98 410.74 854.23 410.99 854.54 410.99   L 860.65 410.99   C 860.98 410.99 861.25 411.26 861.25 411.59   L 861.25 430.86   C 861.25 431.20 861.53 431.48 861.87 431.48   C 862.10 431.48 862.73 431.48 863.74 431.48   Z   M 888.38 431.48   C 889.80 431.48 890.52 431.48 890.54 431.48   C 890.87 431.46 891.14 431.22 891.21 430.91   L 895.39 413.10   C 895.41 413.01 895.49 412.95 895.58 412.96   C 895.67 412.97 895.74 413.05 895.74 413.14   L 895.74 431.14   C 895.74 431.33 895.90 431.49 896.10 431.49   L 900.16 431.49   C 900.35 431.49 900.51 431.33 900.51 431.14   L 900.51 407.64   C 900.51 407.29 900.23 407.00 899.88 407.00   L 893.00 407.00   C 892.68 407.00 892.40 407.22 892.32 407.54   L 888.55 423.07   C 888.54 423.10 888.50 423.13 888.44 423.14   C 888.42 423.14 888.40 423.14 888.38 423.14   C 888.36 423.14 888.34 423.14 888.32 423.14   C 888.26 423.13 888.22 423.10 888.21 423.07   L 884.45 407.54   C 884.37 407.22 884.09 407.00 883.77 407.00   L 876.89 407.00   C 876.54 407.00 876.26 407.29 876.26 407.64   L 876.25 431.14   C 876.25 431.33 876.41 431.49 876.60 431.49   L 880.66 431.49   C 880.86 431.49 881.02 431.33 881.02 431.14   L 881.03 413.14   C 881.03 413.05 881.09 412.97 881.18 412.96   C 881.27 412.95 881.36 413.01 881.38 413.10   L 885.55 430.91   C 885.62 431.22 885.89 431.46 886.22 431.48   C 886.24 431.48 886.96 431.48 888.38 431.48   Z"
       id="path47" />
    <path
       d="   M 350.75 459.91   L 350.75 548.67   C 350.75 548.71 350.71 548.75 350.67 548.75   L 335.84 548.75   C 335.79 548.75 335.76 548.71 335.77 548.66   L 350.43 459.87   C 350.43 459.83 350.48 459.80 350.52 459.80   L 350.68 459.83   C 350.72 459.84 350.75 459.87 350.75 459.91   Z"
       id="path48" />
  </g>
  <path
     fill="#000000"
     d="   M 557.50 164.12   C 557.66 164.12 557.79 164.05 557.88 163.90   C 595.24 101.55 650.37 50.03 718.07 22.67   C 754.40 7.99 792.54 1.09 832.50 1.96   C 893.72 3.30 953.52 22.74 1002.38 60.23   C 1039.38 88.62 1067.42 123.84 1086.50 165.89   C 1103.07 202.40 1111.75 240.73 1112.56 280.88   C 1113.06 305.68 1112.18 330.22 1109.93 354.50   C 1108.36 371.41 1106.23 387.42 1103.53 402.52   C 1093.02 461.31 1071.03 514.90 1037.56 563.27   C 1005.04 610.28 964.94 651.41 923.00 690.50   C 903.37 708.79 882.01 728.02 858.93 748.19   C 855.91 750.82 816.77 784.84 741.50 850.24   C 678.69 904.81 617.50 960.32 557.93 1016.76   C 557.87 1016.81 557.80 1016.85 557.73 1016.87   C 557.66 1016.89 557.58 1016.90 557.50 1016.90   C 557.42 1016.90 557.35 1016.89 557.27 1016.87   C 557.20 1016.85 557.13 1016.81 557.07 1016.76   C 497.50 960.32 436.31 904.81 373.50 850.24   C 298.23 784.84 259.09 750.83 256.07 748.19   C 232.99 728.02 211.63 708.79 192.00 690.50   C 150.06 651.41 109.96 610.28 77.44 563.27   C 43.97 514.90 21.98 461.32 11.47 402.52   C 8.77 387.42 6.64 371.42 5.07 354.50   C 2.81 330.22 1.94 305.68 2.44 280.88   C 3.24 240.73 11.93 202.40 28.50 165.89   C 47.58 123.84 75.62 88.62 112.62 60.23   C 161.48 22.74 221.28 3.30 282.50 1.96   C 322.46 1.09 360.60 7.99 396.93 22.67   C 464.63 50.03 519.76 101.55 557.12 163.90   C 557.21 164.05 557.33 164.12 557.50 164.12   Z   M 701.81 379.16   C 696.93 379.25 692.08 379.33 687.25 379.38   C 683.56 379.41 680.41 380.56 677.82 382.81   C 677.51 383.09 677.04 383.10 676.71 382.84   C 670.52 377.98 664.24 379.40 656.92 379.21   C 656.40 379.20 655.90 379.02 655.48 378.71   C 622.04 353.77 580.95 342.50 539.54 347.04   C 511.05 350.17 484.75 360.42 460.65 377.81   C 460.42 377.97 460.13 378.03 459.86 377.95   C 446.24 374.06 432.55 374.00 418.79 377.75   L 427.18 365.10   C 427.32 364.89 427.14 364.62 426.89 364.67   L 356.21 378.90   C 351.91 379.19 347.47 379.33 342.88 379.33   C 339.13 379.32 336.41 379.61 334.73 380.20   C 332.12 381.11 329.82 382.59 327.82 384.64   C 323.50 384.93 319.22 385.76 314.99 387.14   C 312.80 384.05 310.11 381.84 306.90 380.51   C 304.40 379.47 300.93 379.03 296.48 379.18   C 293.67 379.27 288.35 379.30 280.53 379.25   C 280.03 379.25 279.53 379.31 279.04 379.42   C 273.31 380.80 269.11 383.98 266.44 388.96   C 264.26 393.03 262.46 395.90 261.05 397.59   L 54.89 438.39   C 54.56 438.45 54.35 438.79 54.44 439.12   C 63.73 472.76 77.65 504.41 96.18 534.07   C 116.74 566.97 142.05 597.15 169.11 624.89   C 186.25 642.45 203.77 659.38 221.66 675.68   C 221.82 675.83 222.08 675.80 222.21 675.61   L 248.79 635.26   C 250.40 640.11 252.90 644.26 256.31 647.69   C 256.92 648.31 258.54 649.46 261.16 651.14   L 236.26 688.31   C 236.08 688.58 236.12 688.94 236.36 689.16   C 292.41 738.89 361.65 797.13 436.91 862.67   C 437.06 862.80 437.29 862.67 437.25 862.47   L 393.71 649.44   C 396.93 646.89 399.45 643.75 401.28 640.03   C 401.38 639.82 401.65 639.78 401.81 639.94   C 405.84 644.11 410.07 647.57 414.50 650.30   L 460.56 883.00   C 460.64 883.40 460.85 883.76 461.15 884.03   C 493.58 912.68 525.54 941.60 557.04 970.79   C 557.28 971.02 557.66 971.02 557.90 970.79   C 607.24 925.15 657.48 880.26 708.61 836.13   C 708.85 835.92 708.83 835.54 708.56 835.36   L 437.72 656.44   C 449.93 657.08 460.97 654.46 470.83 648.59   C 471.08 648.44 471.39 648.44 471.64 648.59   C 522.72 679.61 583.96 680.99 636.43 652.67   C 636.95 652.39 637.53 652.24 638.13 652.24   C 651.14 652.27 660.76 652.26 666.99 652.21   C 670.22 652.18 673.26 651.14 676.09 649.09   C 676.33 648.92 676.65 648.91 676.90 649.08   C 680.47 651.57 684.62 652.64 689.37 652.27   C 688.50 653.20 688.00 654.02 687.86 654.75   C 691.17 654.32 694.47 653.56 697.74 652.45   C 700.27 652.35 706.44 652.30 716.25 652.29   C 721.31 652.28 725.66 650.24 729.31 646.17   C 731.52 646.40 733.54 646.02 735.39 645.03   C 739.66 649.04 742.80 652.23 749.00 652.23   C 764.63 652.23 773.70 652.25 776.21 652.28   C 781.31 652.35 784.80 652.05 786.69 651.36   C 791.28 649.68 795.45 645.16 797.82 640.54   C 797.92 640.34 798.19 640.34 798.30 640.53   C 800.88 645.08 804.07 648.53 807.88 650.87   L 547.38 704.20   C 547.15 704.25 547.09 704.54 547.28 704.67   L 723.43 822.60   C 723.66 822.75 723.97 822.74 724.18 822.56   C 771.22 782.39 809.77 749.31 839.82 723.32   C 871.99 695.49 902.96 667.96 931.83 639.07   C 936.19 634.71 941.52 629.36 947.82 623.01   C 948.11 622.72 947.84 622.23 947.44 622.31   L 890.44 633.96   C 891.61 629.76 892.21 626.19 892.23 623.25   C 892.25 620.05 892.26 617.05 892.27 614.25   L 969.45 598.98   C 969.73 598.93 969.98 598.78 970.17 598.57   C 1003.64 560.95 1031.59 519.12 1049.72 472.09   C 1067.84 425.10 1074.74 375.12 1076.14 323.73   C 1077.90 258.91 1064.35 195.52 1027.66 141.61   C 1027.49 141.36 1027.24 141.12 1026.91 140.90   C 1026.82 140.84 1026.70 140.86 1026.65 140.95   L 863.89 387.56   C 859.53 381.43 853.74 378.64 846.52 379.19   L 1015.69 126.26   C 1015.82 126.06 1015.81 125.80 1015.66 125.61   C 968.26 67.70 898.80 36.65 824.16 35.04   C 793.05 34.37 762.70 40.26 733.12 52.72   C 708.39 63.14 685.64 76.27 664.89 92.11   C 664.66 92.28 664.56 92.57 664.62 92.84   L 723.18 379.29   L 702.51 379.13   L 648.34 105.63   C 648.29 105.38 647.99 105.28 647.80 105.44   C 612.20 135.56 582.23 170.18 557.88 209.29   C 557.70 209.57 557.30 209.57 557.12 209.29   C 526.20 160.01 486.12 116.64 438.71 83.80   C 399.57 56.69 352.10 36.52 303.99 35.13   C 270.15 34.16 237.30 39.32 205.45 50.61   C 205.17 50.71 205.12 51.09 205.37 51.25   L 701.81 379.16   Z   M 567.78 314.90   C 567.79 314.82 567.73 314.74 567.60 314.65   C 539.59 295.90 412.40 210.75 186.05 59.20   C 185.72 58.98 185.30 58.95 184.95 59.12   C 158.03 71.61 134.29 88.39 113.74 109.45   C 63.79 160.63 40.20 230.93 38.85 302.00   C 38.10 341.76 41.32 381.77 49.82 420.47   C 49.90 420.86 50.29 421.11 50.68 421.03   L 567.52 315.22   C 567.67 315.18 567.78 315.05 567.78 314.90   Z"
     id="path49" />
  <path
     fill="#ff0000"
     d="   M 846.52 379.19   C 823.21 379.30 799.71 379.32 776.00 379.25   C 772.41 379.24 769.13 380.29 766.18 382.42   C 765.92 382.61 765.57 382.61 765.30 382.44   C 761.99 380.32 759.39 379.26 757.48 379.25   C 746.07 379.22 734.63 379.24 723.18 379.29   L 664.62 92.84   C 664.56 92.57 664.66 92.28 664.89 92.11   C 685.64 76.27 708.39 63.14 733.12 52.72   C 762.70 40.26 793.05 34.37 824.16 35.04   C 898.80 36.65 968.26 67.70 1015.66 125.61   C 1015.81 125.80 1015.82 126.06 1015.69 126.26   L 846.52 379.19   Z"
     id="path50" />
  <g
     fill="#234196"
     id="g62">
    <path
       d="   M 418.79 377.75   C 411.86 380.06 405.76 383.74 400.49 388.77   C 400.25 389.00 399.87 388.95 399.69 388.67   C 397.19 384.78 393.98 381.67 389.76 380.06   C 388.22 379.48 385.02 379.22 380.16 379.27   C 372.30 379.37 364.32 379.25 356.21 378.90   L 426.89 364.67   C 427.14 364.62 427.32 364.89 427.18 365.10   L 418.79 377.75   Z"
       id="path51" />
    <path
       d="   M 327.82 384.64   C 324.29 388.91 321.90 393.55 320.66 398.54   C 320.60 398.76 320.28 398.76 320.23 398.54   C 319.23 394.51 317.48 390.71 314.99 387.14   C 319.22 385.76 323.50 384.93 327.82 384.64   Z"
       id="path52" />
    <path
       d="   M 261.05 397.59   C 256.63 404.02 251.05 408.72 244.30 411.69   C 242.89 412.31 241.49 412.85 240.12 413.31   C 226.38 417.86 222.80 433.50 222.96 446.24   C 223.04 452.67 223.04 459.32 222.96 466.19   C 222.84 476.02 224.35 484.10 229.65 491.89   C 233.23 497.14 238.71 499.82 246.09 499.93   C 246.46 499.94 246.76 500.23 246.76 500.60   C 246.75 525.33 246.75 566.88 246.76 625.25   C 246.76 627.28 247.44 630.61 248.79 635.26   L 222.21 675.61   C 222.08 675.80 221.82 675.83 221.66 675.68   C 203.77 659.38 186.25 642.45 169.11 624.89   C 142.05 597.15 116.74 566.97 96.18 534.07   C 77.65 504.41 63.73 472.76 54.44 439.12   C 54.35 438.79 54.56 438.45 54.89 438.39   L 261.05 397.59   Z"
       id="path53" />
    <path
       d="   M 467.83 501.65   C 477.73 508.25 480.16 517.26 481.22 528.76   C 482.13 538.73 482.46 551.82 482.21 568.01   C 481.83 592.51 478.50 626.40 446.48 628.86   C 432.61 629.93 420.33 626.96 411.49 615.48   C 402.85 604.25 401.78 590.19 401.26 576.75   C 400.78 564.29 400.62 551.51 400.79 538.42   C 400.80 538.19 400.99 538.00 401.22 538.00   L 435.20 538.00   C 435.38 538.00 435.53 538.15 435.53 538.34   C 435.47 554.51 435.49 567.65 435.58 577.74   C 435.63 582.97 435.98 587.50 436.61 591.32   C 437.22 595.02 442.54 596.31 444.72 593.71   C 446.10 592.06 446.89 589.92 447.10 587.27   C 448.09 574.66 447.85 561.22 447.66 542.79   C 447.62 538.71 446.86 534.50 445.38 530.15   C 442.87 522.78 434.86 522.47 427.72 522.42   C 427.33 522.41 427.01 522.09 427.01 521.70   L 427.01 490.69   C 427.01 490.41 427.25 490.18 427.53 490.19   C 431.68 490.39 435.74 490.21 439.72 489.65   C 442.73 489.23 444.77 487.53 445.83 484.55   C 446.95 481.40 447.56 477.87 447.66 473.97   C 447.80 468.73 447.81 460.43 447.70 449.06   C 447.67 445.64 447.22 442.60 446.36 439.94   C 445.05 435.87 439.82 435.03 437.64 438.71   C 436.71 440.29 436.16 442.47 435.99 445.26   C 435.46 453.88 435.33 463.34 435.58 473.63   C 435.59 473.97 435.32 474.25 434.98 474.25   L 401.40 474.25   C 401.09 474.25 400.84 474.00 400.83 473.69   C 400.58 461.97 400.75 451.42 401.34 442.04   C 401.82 434.51 403.21 427.51 405.50 421.04   C 411.45 404.25 430.40 401.05 445.99 402.68   C 457.36 403.87 467.45 408.35 472.90 418.62   C 481.65 435.09 481.78 456.16 480.47 474.77   C 479.73 485.31 475.50 493.99 467.77 500.80   C 467.51 501.03 467.54 501.45 467.83 501.65   Z"
       id="path54" />
    <path
       d="   M 243.50 466.28   L 243.50 442.08   C 243.50 441.71 243.73 441.39 244.07 441.26   C 260.84 435.02 273.17 423.60 281.06 406.99   C 281.20 406.69 281.51 406.49 281.85 406.49   L 301.16 406.49   C 301.49 406.49 301.76 406.76 301.76 407.09   L 301.76 624.26   C 301.76 624.53 301.54 624.75 301.27 624.75   L 267.59 624.75   C 267.38 624.75 267.21 624.58 267.21 624.37   C 267.28 596.54 267.28 557.83 267.20 508.25   C 267.18 497.63 267.04 488.88 266.78 482.00   C 266.51 474.82 264.84 468.73 256.50 467.74   C 252.00 467.21 247.90 466.95 244.20 466.97   C 243.82 466.98 243.50 466.66 243.50 466.28   Z"
       id="path55" />
    <path
       d="   M 385.25 586.87   L 385.25 624.16   C 385.25 624.49 384.99 624.75 384.66 624.75   L 351.37 624.75   C 351.03 624.75 350.75 624.47 350.75 624.13   L 350.75 586.61   C 350.75 586.41 350.59 586.25 350.39 586.25   L 310.07 586.25   C 309.89 586.25 309.75 586.11 309.75 585.93   L 309.75 549.10   C 309.75 548.99 309.76 548.89 309.78 548.78   L 339.55 406.76   C 339.58 406.60 339.72 406.49 339.88 406.49   L 384.93 406.49   C 385.11 406.49 385.25 406.63 385.25 406.80   L 385.25 548.07   C 385.25 548.45 385.55 548.75 385.92 548.75   L 394.37 548.75   C 394.72 548.75 395.00 549.03 395.00 549.38   L 395.00 585.67   C 395.00 586.00 394.74 586.26 394.41 586.26   L 385.85 586.26   C 385.52 586.26 385.25 586.53 385.25 586.87   Z   M 350.75 459.91   C 350.75 459.87 350.72 459.84 350.68 459.83   L 350.52 459.80   C 350.48 459.80 350.43 459.83 350.43 459.87   L 335.77 548.66   C 335.76 548.71 335.79 548.75 335.84 548.75   L 350.67 548.75   C 350.71 548.75 350.75 548.71 350.75 548.67   L 350.75 459.91   Z"
       id="path56" />
    <path
       d="   M 534.41 553.45   C 534.42 553.52 534.47 553.58 534.54 553.58   L 534.55 553.58   C 534.62 553.58 534.68 553.52 534.69 553.44   L 542.44 406.78   C 542.45 406.62 542.58 406.49 542.74 406.49   L 580.45 406.49   C 580.64 406.49 580.79 406.65 580.77 406.84   L 562.49 624.46   C 562.47 624.62 562.33 624.75 562.17 624.75   L 508.54 624.75   C 508.27 624.75 508.05 624.55 508.02 624.28   L 487.27 406.82   C 487.25 406.64 487.38 406.49 487.56 406.49   L 524.92 406.49   C 525.09 406.49 525.24 406.62 525.25 406.79   C 528.92 456.02 531.97 504.90 534.41 553.45   Z"
       id="path57" />
    <rect
       x="586.76"
       y="406.49"
       width="36.00"
       height="218.26"
       rx="0.42"
       id="rect57" />
    <path
       d="   M 667.52 528.66   C 667.51 528.59 667.44 528.54 667.37 528.54   C 667.30 528.55 667.24 528.61 667.24 528.68   L 667.24 624.42   C 667.24 624.60 667.09 624.75 666.91 624.75   L 637.31 624.75   C 637.14 624.75 637.01 624.62 637.01 624.45   L 637.01 406.97   C 637.01 406.70 637.22 406.49 637.48 406.49   L 666.56 406.49   C 666.76 406.49 666.93 406.63 666.97 406.82   L 686.50 502.22   C 686.51 502.28 686.57 502.33 686.64 502.32   C 686.70 502.31 686.75 502.26 686.75 502.19   L 686.75 407.05   C 686.75 406.74 687.01 406.49 687.32 406.49   L 716.68 406.49   C 716.86 406.49 717.00 406.63 717.00 406.80   L 717.00 624.44   C 717.00 624.61 716.86 624.75 716.69 624.75   L 686.14 624.75   C 685.88 624.75 685.67 624.57 685.62 624.32   L 667.52 528.66   Z"
       id="path58" />
    <path
       d="   M 764.80 489.32   C 764.96 489.40 765.05 489.34 765.07 489.14   C 768.06 459.41 771.25 432.00 774.65 406.91   C 774.68 406.67 774.89 406.49 775.14 406.49   L 807.33 406.49   C 807.63 406.49 807.86 406.77 807.80 407.07   C 795.90 470.84 787.53 515.62 782.68 541.42   C 782.03 544.85 781.71 548.42 781.72 552.14   C 781.77 577.22 781.78 601.22 781.74 624.15   C 781.74 624.48 781.47 624.75 781.14 624.75   L 748.57 624.75   C 748.40 624.75 748.26 624.61 748.26 624.44   C 748.22 592.33 748.23 567.88 748.29 551.08   C 748.30 547.39 747.97 543.69 747.29 539.98   C 741.44 507.93 733.39 463.60 723.14 406.98   C 723.09 406.73 723.29 406.49 723.55 406.49   L 755.93 406.49   C 756.11 406.49 756.26 406.62 756.28 406.79   C 760.25 439.14 763.06 465.75 764.71 486.62   C 764.82 488.05 764.83 488.88 764.73 489.11   C 764.70 489.19 764.73 489.28 764.80 489.32   Z"
       id="path59" />
    <path
       d="   M 871.11 624.75   L 814.15 624.75   C 813.93 624.75 813.75 624.57 813.75 624.35   L 813.75 406.89   C 813.75 406.67 813.93 406.49 814.15 406.49   L 849.36 406.49   C 849.58 406.49 849.76 406.67 849.76 406.89   L 849.76 580.35   C 849.76 580.57 849.94 580.75 850.16 580.75   L 871.11 580.75   C 871.33 580.75 871.51 580.93 871.51 581.15   L 871.51 624.35   C 871.51 624.57 871.33 624.75 871.11 624.75   Z"
       id="path60" />
    <path
       d="   M 863.75 407.00   C 867.10 406.99 870.16 407.00 872.92 407.02   C 873.25 407.03 873.51 407.29 873.51 407.62   L 873.51 410.43   C 873.51 410.74 873.26 410.99 872.95 410.99   L 866.84 410.99   C 866.51 410.99 866.24 411.26 866.24 411.59   L 866.24 430.86   C 866.24 431.20 865.96 431.48 865.62 431.48   C 865.39 431.48 864.76 431.48 863.74 431.48   C 862.73 431.48 862.10 431.48 861.87 431.48   C 861.53 431.48 861.25 431.20 861.25 430.86   L 861.25 411.59   C 861.25 411.26 860.98 410.99 860.65 410.99   L 854.54 410.99   C 854.23 410.99 853.98 410.74 853.98 410.43   L 853.98 407.62   C 853.98 407.29 854.25 407.02 854.57 407.02   C 857.33 407.00 860.39 406.99 863.75 407.00   Z"
       id="path61" />
    <path
       d="   M 888.38 423.14   C 888.40 423.14 888.42 423.14 888.44 423.14   C 888.50 423.13 888.54 423.10 888.55 423.07   L 892.32 407.54   C 892.40 407.22 892.68 407.00 893.00 407.00   L 899.88 407.00   C 900.23 407.00 900.51 407.29 900.51 407.64   L 900.51 431.14   C 900.51 431.33 900.35 431.49 900.16 431.49   L 896.10 431.49   C 895.90 431.49 895.74 431.33 895.74 431.14   L 895.74 413.14   C 895.74 413.05 895.67 412.97 895.58 412.96   C 895.49 412.95 895.41 413.01 895.39 413.10   L 891.21 430.91   C 891.14 431.22 890.87 431.46 890.54 431.48   C 890.52 431.48 889.80 431.48 888.38 431.48   C 886.96 431.48 886.24 431.48 886.22 431.48   C 885.89 431.46 885.62 431.22 885.55 430.91   L 881.38 413.10   C 881.36 413.01 881.27 412.95 881.18 412.96   C 881.09 412.97 881.03 413.05 881.03 413.14   L 881.02 431.14   C 881.02 431.33 880.86 431.49 880.66 431.49   L 876.60 431.49   C 876.41 431.49 876.25 431.33 876.25 431.14   L 876.26 407.64   C 876.26 407.29 876.54 407.00 876.89 407.00   L 883.77 407.00   C 884.09 407.00 884.37 407.22 884.45 407.54   L 888.21 423.07   C 888.22 423.10 888.26 423.13 888.32 423.14   C 888.34 423.14 888.36 423.14 888.38 423.14   Z"
       id="path62" />
  </g>
  <path
     fill="#44aa00"
     d="   M 414.50 650.30   C 422.38 653.95 430.12 656.00 437.72 656.44   L 708.56 835.36   C 708.83 835.54 708.85 835.92 708.61 836.13   C 657.48 880.26 607.24 925.15 557.90 970.79   C 557.66 971.02 557.28 971.02 557.04 970.79   C 525.54 941.60 493.58 912.68 461.15 884.03   C 460.85 883.76 460.64 883.40 460.56 883.00   L 414.50 650.30   Z"
     id="path63" />
  <path
     fill="#ff55dd"
     d="   M 702.51 379.13   L 701.81 379.16   L 205.37 51.25   C 205.12 51.09 205.17 50.71 205.45 50.61   C 237.30 39.32 270.15 34.16 303.99 35.13   C 352.10 36.52 399.57 56.69 438.71 83.80   C 486.12 116.64 526.20 160.01 557.12 209.29   C 557.30 209.57 557.70 209.57 557.88 209.29   C 582.23 170.18 612.20 135.56 647.80 105.44   C 647.99 105.28 648.29 105.38 648.34 105.63   L 702.51 379.13   Z"
     id="path64" />
  <path
     fill="#ffcc00"
     d="   M 807.88 650.87   C 810.45 651.78 812.66 652.23 814.50 652.23   C 848.79 652.22 866.65 652.23 868.07 652.24   C 872.34 652.29 875.52 651.84 877.63 650.90   C 884.31 647.91 888.58 640.73 890.44 633.96   L 947.44 622.31   C 947.84 622.23 948.11 622.72 947.82 623.01   C 941.52 629.36 936.19 634.71 931.83 639.07   C 902.96 667.96 871.99 695.49 839.82 723.32   C 809.77 749.31 771.22 782.39 724.18 822.56   C 723.97 822.74 723.66 822.75 723.43 822.60   L 547.28 704.67   C 547.09 704.54 547.15 704.25 547.38 704.20   L 807.88 650.87   Z"
     id="path65" />
  <path
     fill="#5599ff"
     d="   M 393.71 649.44   L 437.25 862.47   C 437.29 862.67 437.06 862.80 436.91 862.67   C 361.65 797.13 292.41 738.89 236.36 689.16   C 236.12 688.94 236.08 688.58 236.26 688.31   L 261.16 651.14   C 263.92 651.87 265.70 652.24 266.51 652.24   C 285.18 652.23 295.37 652.24 297.07 652.26   C 301.80 652.32 305.05 651.94 306.81 651.13   C 319.62 645.23 322.43 628.02 321.70 615.45   C 321.68 615.21 321.87 615.01 322.11 615.01   L 330.12 615.01   C 330.37 615.01 330.56 615.21 330.55 615.46   C 330.38 619.15 330.39 622.38 330.59 625.13   C 331.43 636.99 337.66 651.86 351.24 652.19   C 351.37 652.20 362.63 652.22 385.00 652.25   C 387.79 652.26 390.69 651.32 393.71 649.44   Z"
     id="path66" />
  <g
     fill="#ff6600"
     id="g69">
    <path
       d="   M 892.27 614.25   C 892.22 602.22 892.21 590.39 892.24 578.76   C 892.28 565.54 886.08 548.49 870.80 547.85   C 870.48 547.84 870.23 547.58 870.23 547.26   L 870.23 448.82   C 870.23 448.67 870.39 448.56 870.53 448.63   C 886.04 455.86 903.05 452.02 913.00 438.25   C 922.95 424.49 920.38 404.92 907.57 393.92   C 896.00 383.98 879.64 383.36 866.86 391.84   C 866.64 391.98 866.35 391.91 866.22 391.69   L 863.89 387.56   L 1026.65 140.95   C 1026.70 140.86 1026.82 140.84 1026.91 140.90   C 1027.24 141.12 1027.49 141.36 1027.66 141.61   C 1064.35 195.52 1077.90 258.91 1076.14 323.73   C 1074.74 375.12 1067.84 425.10 1049.72 472.09   C 1031.59 519.12 1003.64 560.95 970.17 598.57   C 969.98 598.78 969.73 598.93 969.45 598.98   L 892.27 614.25   Z"
       id="path67" />
    <path
       d="   M 735.39 645.03   C 733.54 646.02 731.52 646.40 729.31 646.17   L 732.52 641.50   C 732.66 641.29 732.97 641.30 733.11 641.51   L 735.39 645.03   Z"
       id="path68" />
    <path
       d="   M 697.74 652.45   C 694.47 653.56 691.17 654.32 687.86 654.75   C 688.00 654.02 688.50 653.20 689.37 652.27   L 697.74 652.45   Z"
       id="path69" />
  </g>
</svg>
