<?xml version="1.0" encoding="UTF-8" standalone="no"?>
<svg
   xmlns:dc="http://purl.org/dc/elements/1.1/"
   xmlns:cc="http://creativecommons.org/ns#"
   xmlns:rdf="http://www.w3.org/1999/02/22-rdf-syntax-ns#"
   xmlns:svg="http://www.w3.org/2000/svg"
   xmlns="http://www.w3.org/2000/svg"
   xmlns:sodipodi="http://sodipodi.sourceforge.net/DTD/sodipodi-0.dtd"
   xmlns:inkscape="http://www.inkscape.org/namespaces/inkscape"
   width="1000mm"
   height="915mm"
   viewBox="0 0 999.99999 915"
   version="1.1"
   id="svg8"
   inkscape:version="1.0.2 (e86c870879, 2021-01-15, custom)"
   sodipodi:docname="143VINYL_Heart_Logo.svg"
   inkscape:export-filename="C:\Clients\143VINYL\Logo\143_Heart_Logo_Final.png"
   inkscape:export-xdpi="25.4"
   inkscape:export-ydpi="25.4">
  <defs
     id="defs2" />
  <sodipodi:namedview
     id="base"
     pagecolor="#ffffff"
     bordercolor="#666666"
     borderopacity="1.0"
     inkscape:pageopacity="0.0"
     inkscape:pageshadow="2"
     inkscape:zoom="0.044194174"
     inkscape:cx="1790.5247"
     inkscape:cy="1440.9108"
     inkscape:document-units="mm"
     inkscape:current-layer="layer6"
     inkscape:document-rotation="0"
     showgrid="false"
     objecttolerance="20"
     guidetolerance="20"
     inkscape:window-width="1920"
     inkscape:window-height="1017"
     inkscape:window-x="-8"
     inkscape:window-y="-8"
     inkscape:window-maximized="1"
     fit-margin-top="0"
     fit-margin-left="0"
     fit-margin-right="0"
     fit-margin-bottom="0">
    <inkscape:grid
       type="xygrid"
       id="grid895"
       originx="-56.298832"
       originy="-103.99729" />
  </sodipodi:namedview>
  <metadata
     id="metadata5">
    <rdf:RDF>
      <cc:Work
         rdf:about="">
        <dc:format>image/svg+xml</dc:format>
        <dc:type
           rdf:resource="http://purl.org/dc/dcmitype/StillImage" />
        <dc:title></dc:title>
      </cc:Work>
    </rdf:RDF>
  </metadata>
  <g
     inkscape:groupmode="layer"
     id="layer6"
     inkscape:label="Final"
     transform="translate(-56.298833,-103.99728)"
     sodipodi:insensitive="true">
    <g
       id="g1693"
       transform="matrix(10.259549,0,0,10.259549,-458.02765,-1026.4885)">
      <path
         id="path1258-4-4-6-5-2"
         style="display:inline;fill:#ffffff;fill-opacity:1;stroke-width:0.664918"
         d="m 59.635105,140.14686 c -0.18899,-13.33935 8.750505,-21.31108 19.531969,-21.31108 8.077384,0 15.659001,6.67662 19.698615,13.24487 4.039621,-6.56825 11.621241,-13.24487 19.698631,-13.24487 10.78147,0 19.72097,7.97173 19.53198,21.31108 -0.28966,20.44469 -12.30506,24.48681 -39.230611,49.44606 C 71.940157,164.63367 59.924765,160.59155 59.635105,140.14686 Z"
         sodipodi:nodetypes="sscsscs" />
      <path
         id="path1258-5"
         style="display:inline;fill:#000000;fill-opacity:1;stroke-width:0.839676"
         d="m 75.355605,110.27854 c -14.274503,0 -25.190193,10.91569 -25.190193,25.19019 0,27.70935 15.114357,31.90754 48.70142,63.81523 33.587078,-31.90769 48.700908,-36.10588 48.700908,-63.81523 0,-14.2745 -10.91572,-25.19019 -25.1902,-25.19019 -10.07612,0 -18.47267,5.87778 -23.510708,14.27458 -5.038061,-8.3968 -13.435105,-14.27458 -23.511227,-14.27458 z m 23.508644,30.15837 c 7.925501,-0.002 14.348551,6.42029 14.348481,14.34331 -7e-5,7.92292 -6.42297,14.34595 -14.345898,14.34589 -7.922927,6e-5 -14.345817,-6.42297 -14.345894,-14.34589 -5.5e-5,-7.91986 6.417805,-14.34131 14.343311,-14.34331 z" />
      <path
         style="display:inline;fill:#44aa00;fill-opacity:1;stroke-width:0.771218"
         d="m 86.153396,166.23119 4.230751,21.34702 c 2.672239,2.36153 5.496656,4.90384 8.481653,7.67085 4.8354,-4.48228 9.25366,-8.38103 13.27361,-11.86077 z"
         id="path1459-2" />
      <path
         style="display:inline;fill:#ffcc00;fill-opacity:1;stroke-width:0.771218"
         d="m 133.13968,164.67315 -35.178737,7.19904 15.502417,10.37405 c 8.2881,-7.14338 14.81105,-12.50691 19.67632,-17.57309 z"
         id="path1457-3" />
      <path
         style="display:inline;fill:#5599ff;fill-opacity:1;stroke-width:0.771218"
         d="m 81.792939,153.89345 -11.110434,16.60312 c 4.804815,4.31771 10.662388,9.16332 17.630966,15.2616 z"
         id="path1455-8" />
      <path
         style="display:inline;fill:#234196;fill-opacity:1;stroke-width:0.771218"
         d="m 87.433421,142.0859 -32.697229,6.47971 c 2.177122,7.93572 6.980878,13.72827 14.691612,20.79149 z"
         id="path1453-7" />
      <path
         style="display:inline;fill:#ff6600;fill-opacity:1;stroke-width:0.771218"
         d="m 140.04778,122.45506 -29.74857,45.05616 24.74319,-4.90358 c 6.17951,-7.01736 9.17209,-13.87905 9.32553,-24.7096 0.0881,-6.21928 -1.53558,-11.43182 -4.32015,-15.44298 z"
         id="path1451-2" />
      <path
         style="display:inline;fill:#a02c89;fill-opacity:1;stroke-width:0.771218"
         d="m 66.22748,115.2772 c -7.67875,3.55188 -13.022328,11.46881 -12.86433,22.62084 0.04799,3.38704 0.374888,6.3845 0.988571,9.12141 l 45.419965,-9.29452 z"
         id="path1449-6" />
      <path
         style="display:inline;fill:#ff0000;fill-opacity:1;stroke-width:0.771218"
         d="m 121.7135,113.17965 c -4.79084,0 -9.4296,2.02784 -13.44724,5.02554 l 7.67343,37.49848 23.12469,-34.55603 c -4.17939,-5.14077 -10.43808,-7.96799 -17.35088,-7.96799 z"
         id="path1447-1" />
      <path
         style="display:inline;fill:#ff55dd;fill-opacity:1;stroke-width:0.771218"
         d="m 76.018098,113.17965 c -2.828425,0 -5.5469,0.47488 -8.058938,1.38597 l 43.62008,28.8003 -4.75992,-24.01765 c -3.214,2.68264 -5.9575,5.94831 -7.95352,9.19375 -4.685424,-7.61831 -13.478991,-15.36237 -22.847702,-15.36237 z"
         id="path1258-4-4-63" />
      <text
         xml:space="preserve"
         style="font-style:normal;font-variant:normal;font-weight:normal;font-stretch:normal;font-size:18.9288px;line-height:1.25;font-family:Impact;-inkscape-font-specification:'Impact, Normal';font-variant-ligatures:normal;font-variant-caps:normal;font-variant-numeric:normal;font-variant-east-asian:normal;display:inline;fill:#ffffff;fill-opacity:1;stroke:#ffffff;stroke-width:4.36833;stroke-linecap:round;stroke-linejoin:round;stroke-miterlimit:4;stroke-dasharray:none;stroke-opacity:1;paint-order:normal"
         x="88.046112"
         y="133.09602"
         id="text1538-7"
         transform="scale(0.80870405,1.2365463)"><tspan
           sodipodi:role="line"
           id="tspan1536-2"
           x="88.046112"
           y="133.09602"
           style="font-style:normal;font-variant:normal;font-weight:normal;font-stretch:normal;font-size:18.9288px;font-family:Impact;-inkscape-font-specification:'Impact, Normal';font-variant-ligatures:normal;font-variant-caps:normal;font-variant-numeric:normal;font-variant-east-asian:normal;fill:#ffffff;fill-opacity:1;stroke:#ffffff;stroke-width:4.36833;stroke-linecap:round;stroke-linejoin:round;stroke-miterlimit:4;stroke-dasharray:none;stroke-opacity:1;paint-order:normal">143VINYL</tspan></text>
      <text
         xml:space="preserve"
         style="font-style:normal;font-variant:normal;font-weight:normal;font-stretch:normal;font-size:19.2297px;line-height:1.25;font-family:Impact;-inkscape-font-specification:'Impact, Normal';font-variant-ligatures:normal;font-variant-caps:normal;font-variant-numeric:normal;font-variant-east-asian:normal;display:inline;fill:#234196;fill-opacity:1;stroke:none;stroke-width:1.61628;stroke-linecap:round;stroke-linejoin:round;stroke-miterlimit:4;stroke-dasharray:none;stroke-opacity:1"
         x="89.57341"
         y="131.12245"
         id="text1538-6-2"
         transform="scale(0.79523261,1.2574937)"><tspan
           sodipodi:role="line"
           id="tspan1536-6-5"
           x="89.57341"
           y="131.12245"
           style="font-style:normal;font-variant:normal;font-weight:normal;font-stretch:normal;font-size:19.2297px;font-family:Impact;-inkscape-font-specification:'Impact, Normal';font-variant-ligatures:normal;font-variant-caps:normal;font-variant-numeric:normal;font-variant-east-asian:normal;fill:#234196;fill-opacity:1;stroke:none;stroke-width:1.61628;stroke-linecap:round;stroke-linejoin:round;stroke-miterlimit:4;stroke-dasharray:none;stroke-opacity:1">143VINYL</tspan></text>
      <path
         id="path1588-4"
         style="display:inline;vector-effect:none;fill:#ffffff;fill-opacity:1;stroke:none;stroke-width:9.12478;stroke-linecap:round;stroke-linejoin:round;stroke-miterlimit:4;stroke-dasharray:none;stroke-dashoffset:0;stroke-opacity:1;paint-order:normal;stop-color:#000000"
         d="m 130.57633,146.85293 a 2.897121,2.897121 0 0 1 -2.89712,2.89712 2.897121,2.897121 0 0 1 -2.89712,-2.89712 2.897121,2.897121 0 0 1 2.89712,-2.89712 2.897121,2.897121 0 0 1 2.89712,2.89712 z" />
      <text
         xml:space="preserve"
         style="font-style:normal;font-variant:normal;font-weight:bold;font-stretch:normal;font-size:2.99111px;line-height:1.25;font-family:sans-serif;-inkscape-font-specification:'sans-serif, Bold';font-variant-ligatures:normal;font-variant-caps:normal;font-variant-numeric:normal;font-variant-east-asian:normal;display:inline;fill:#234196;fill-opacity:1;stroke:none;stroke-width:0.074778"
         x="124.82201"
         y="147.94028"
         id="text1586-8"><tspan
           sodipodi:role="line"
           id="tspan1584-2"
           x="124.82201"
           y="147.94028"
           style="font-style:normal;font-variant:normal;font-weight:bold;font-stretch:normal;font-size:2.99111px;font-family:sans-serif;-inkscape-font-specification:'sans-serif, Bold';font-variant-ligatures:normal;font-variant-caps:normal;font-variant-numeric:normal;font-variant-east-asian:normal;fill:#234196;fill-opacity:1;stroke-width:0.074778">TM</tspan></text>
    </g>
  </g>
</svg>
