<svg width="81" height="64" viewBox="0 0 81 64" fill="none" xmlns="http://www.w3.org/2000/svg">
<rect x="0.5" y="0.5" width="80" height="63" rx="9.5" stroke="#D2700F" stroke-opacity="0.3"/>
<g clip-path="url(#clip0_24_683)">
<path fill-rule="evenodd" clip-rule="evenodd" d="M45.8661 30.4601C45.5774 30.0032 45.1699 29.6335 44.6873 29.3904C44.2047 29.1473 43.665 29.04 43.1261 29.0801C42.4934 29.115 41.8712 29.257 41.2861 29.5001C41.1661 29.2001 41.0661 28.8801 40.9661 28.5601L40.6061 27.7001C41.1537 27.5554 41.7202 27.4948 42.2861 27.5201C42.4849 27.5487 42.687 27.4975 42.8481 27.3775C43.0093 27.2576 43.1164 27.0787 43.1461 26.8801C43.1633 26.7789 43.1603 26.6754 43.1375 26.5754C43.1146 26.4754 43.0722 26.3809 43.0128 26.2973C42.9533 26.2137 42.878 26.1427 42.791 26.0882C42.7041 26.0338 42.6072 25.997 42.5061 25.9801C41.6651 25.8413 40.807 25.8413 39.9661 25.9801C39.6461 25.1601 39.2861 24.3201 38.9861 23.5001C38.9567 23.3805 38.8987 23.2699 38.8171 23.1777C38.7355 23.0855 38.6328 23.0145 38.5177 22.9708C38.4026 22.9272 38.2786 22.9121 38.1564 22.9269C38.0341 22.9418 37.9174 22.9861 37.8161 23.0561C37.6944 23.1419 37.6014 23.2624 37.5493 23.402C37.4972 23.5415 37.4884 23.6935 37.5241 23.8381C37.6241 24.7581 37.8041 25.6981 37.9241 26.6181C37.5041 26.7367 37.0974 26.8901 36.7041 27.0781C36.3191 27.2973 35.9819 27.5913 35.7123 27.9429C35.4427 28.2945 35.2462 28.6964 35.1344 29.1251C35.0225 29.5538 34.9976 30.0005 35.0611 30.439C35.1246 30.8774 35.2752 31.2987 35.5041 31.6781C35.7313 32.1594 36.0867 32.5689 36.5311 32.8617C36.9756 33.1545 37.4921 33.3193 38.0241 33.3381C38.5358 33.3253 39.0422 33.2308 39.5241 33.0581L39.7641 33.6781C40.0441 34.3381 40.3841 34.9581 40.6841 35.6781C39.7376 36.0476 38.6933 36.0829 37.7241 35.7781C37.6231 35.7313 37.5138 35.7051 37.4026 35.7009C37.2914 35.6968 37.1804 35.7148 37.0762 35.7538C36.972 35.7929 36.8766 35.8523 36.7956 35.9286C36.7145 36.0048 36.6494 36.0964 36.6041 36.1981C36.5541 36.3001 36.5254 36.4111 36.5196 36.5245C36.5138 36.6379 36.531 36.7513 36.5703 36.8579C36.6095 36.9644 36.67 37.0619 36.748 37.1445C36.826 37.227 36.9199 37.2929 37.0241 37.3381C38.4741 37.9381 40.0841 38.0181 41.5841 37.5581L42.1241 38.6581C42.1659 38.7633 42.2281 38.8592 42.3071 38.9403C42.3861 39.0214 42.4803 39.0861 42.5844 39.1306C42.6884 39.1752 42.8003 39.1989 42.9135 39.2001C43.0267 39.2014 43.139 39.1803 43.2441 39.1381C43.3543 39.0971 43.4548 39.0334 43.5388 38.9511C43.6229 38.8688 43.6888 38.7698 43.7321 38.6604C43.7755 38.551 43.7954 38.4338 43.7906 38.3163C43.7857 38.1987 43.7563 38.0835 43.7041 37.9781L43.4041 36.8381C43.8401 36.6514 44.2534 36.4247 44.6441 36.1581C45.3484 35.733 45.9045 35.101 46.2367 34.3483C46.5688 33.5957 46.6608 32.7589 46.5001 31.9521C46.393 31.416 46.1773 30.9095 45.8661 30.4601ZM37.7461 30.4581C37.2661 29.7581 37.6261 29.1581 38.2261 28.7181C38.2261 28.9181 38.2261 29.1181 38.3261 29.3181C38.4261 29.5181 38.5261 30.0981 38.6461 30.4981L38.2861 30.6181C38.0861 30.6581 37.8861 30.6781 37.7461 30.4781V30.4581ZM42.7861 34.6381C42.6461 34.0381 42.4861 33.4581 42.3261 32.8781L42.1461 32.2381C42.4367 32.1114 42.7367 32.0114 43.0461 31.9381C43.2461 31.9381 43.4461 31.9381 43.5661 32.0581C44.3061 33.0381 43.7061 33.9781 42.7861 34.6581V34.6381Z" fill="#D2700F"/>
<path fill-rule="evenodd" clip-rule="evenodd" d="M61.9659 26.98C61.5398 25.8021 61.0524 24.6472 60.5059 23.52C59.8987 22.3851 59.2311 21.2835 58.5059 20.22C56.8511 17.7677 54.9767 15.4709 52.9059 13.358C52.8385 13.2847 52.7565 13.2261 52.6653 13.1861C52.5741 13.146 52.4755 13.1254 52.3759 13.1254C52.2763 13.1254 52.1777 13.146 52.0865 13.1861C51.9953 13.2261 51.9133 13.2847 51.8459 13.358C51.7231 13.4659 51.6447 13.6156 51.6259 13.778C51.4843 13.6725 51.3125 13.6155 51.1359 13.6155C50.9593 13.6155 50.7875 13.6725 50.6459 13.778C48.6703 15.1014 46.6203 16.3101 44.5059 17.398C43.1619 18.0921 41.7283 18.5969 40.2459 18.898C37.1059 19.262 33.9419 19.376 30.7859 19.238C29.335 19.3148 27.8983 19.5632 26.5059 19.978C24.9648 20.5022 23.5093 21.2502 22.1859 22.198C20.2934 23.5365 18.5783 25.1097 17.0819 26.88C17.014 26.9668 16.9647 27.0666 16.9372 27.1733C16.9096 27.28 16.9044 27.3912 16.9219 27.5C16.7555 27.5787 16.6244 27.7165 16.5541 27.8866C16.4838 28.0567 16.4795 28.2469 16.5419 28.42C17.3019 30.96 17.9419 33.6 18.8019 36.2C19.5099 38.43 20.4019 40.598 21.4619 42.68C22.6888 45.1538 24.1064 47.5283 25.7019 49.782C25.7984 49.9188 25.9344 50.0228 26.0917 50.08C26.249 50.1372 26.4201 50.1449 26.5819 50.102C26.5684 50.28 26.618 50.457 26.7219 50.602C26.8503 50.7529 27.0313 50.8493 27.2282 50.8716C27.425 50.8939 27.623 50.8404 27.7819 50.722C29.6854 49.3327 31.6911 48.0892 33.7819 47.002C35.7566 45.9338 37.9018 45.2165 40.1219 44.882C42.2994 44.5293 44.4972 44.3156 46.7019 44.242C49.0254 44.1418 51.3353 43.8339 53.6039 43.322C56.7373 42.6089 59.6193 41.0608 61.9439 38.842C62.1143 38.6949 62.2203 38.4868 62.239 38.2624C62.2577 38.0381 62.1876 37.8153 62.0439 37.642C61.8777 37.4888 61.6599 37.4038 61.4339 37.4038C61.2079 37.4038 60.9901 37.4888 60.8239 37.642C58.5926 39.4229 55.9412 40.6006 53.1239 41.062C50.9412 41.3359 48.7437 41.4762 46.5439 41.482C44.2219 41.528 41.9079 41.762 39.6239 42.182C37.6387 42.6408 35.7316 43.3888 33.9639 44.402C31.5734 45.8164 29.329 47.4645 27.2639 49.322C27.2857 49.203 27.2857 49.081 27.2639 48.962C25.9815 46.5049 24.8462 43.9738 23.8639 41.382C23.1839 39.682 22.5439 37.962 21.8639 36.282C20.6639 33.442 19.3019 30.682 18.0619 27.982H18.2419C19.5379 26.6956 20.9657 25.5493 22.5019 24.562C23.945 23.6222 25.5429 22.9451 27.2219 22.562C28.5369 22.2846 29.878 22.1505 31.2219 22.162H37.9419C38.934 22.077 39.9174 21.9097 40.8819 21.662C42.5583 21.2144 44.1663 20.5416 45.6619 19.662C47.7438 18.3088 49.7476 16.8391 51.6639 15.26C51.7819 15.1535 51.8654 15.0142 51.9039 14.86C53.451 17.1196 54.8603 19.4705 56.1239 21.9C56.7039 22.96 57.2639 24.02 57.8239 25.1C58.3839 26.18 58.9439 27.24 59.4839 28.34C60.7571 30.8138 61.8727 33.3655 62.8239 35.98C62.854 36.0891 62.9052 36.1912 62.9748 36.2804C63.0444 36.3697 63.1309 36.4443 63.2294 36.5C63.3278 36.5558 63.4363 36.5915 63.5487 36.6052C63.661 36.619 63.7749 36.6104 63.8839 36.58C64.1005 36.5151 64.2829 36.3674 64.3914 36.169C64.5 35.9707 64.526 35.7375 64.4639 35.52C63.8761 32.6072 63.0417 29.75 61.9659 26.98Z" fill="#D2700F"/>
<path fill-rule="evenodd" clip-rule="evenodd" d="M50.726 36.1001C50.6169 36.0702 50.503 36.0627 50.391 36.0779C50.2789 36.0931 50.1711 36.1308 50.074 36.1887C49.9769 36.2466 49.8925 36.3235 49.8258 36.4148C49.7591 36.5061 49.7116 36.6099 49.686 36.7201C49.6558 36.8278 49.6475 36.9404 49.6615 37.0513C49.6754 37.1623 49.7114 37.2694 49.7673 37.3662C49.8232 37.4631 49.8979 37.5478 49.9869 37.6155C50.076 37.6831 50.1777 37.7322 50.286 37.7601C51.506 38.0681 52.786 38.0681 54.006 37.7601C55.741 37.3367 57.4051 36.6629 58.946 35.7601C59.217 35.5121 59.4145 35.1943 59.5168 34.8415C59.6191 34.4887 59.6223 34.1145 59.526 33.7601C59.0093 31.1713 58.1342 28.6672 56.926 26.3201C56.0478 24.4882 54.9821 22.7522 53.746 21.1401C53.1106 20.2171 52.201 19.5174 51.146 19.1401C50.5989 19.0907 50.0539 19.2556 49.626 19.6001C48.1861 21.0816 46.4382 22.2287 44.506 22.9601C44.3993 22.9692 44.2957 23.0009 44.2021 23.0529C44.1084 23.1049 44.0268 23.1761 43.9627 23.2619C43.8985 23.3476 43.8531 23.446 43.8296 23.5505C43.8061 23.655 43.805 23.7633 43.8263 23.8683C43.8475 23.9732 43.8908 24.0725 43.9531 24.1596C44.0154 24.2467 44.0955 24.3197 44.188 24.3737C44.2805 24.4276 44.3834 24.4615 44.4899 24.4729C44.5964 24.4844 44.7041 24.4732 44.806 24.4401C45.8521 24.2576 46.8596 23.8992 47.786 23.3801C48.9049 22.9477 49.9716 22.3908 50.966 21.7201L51.066 21.8601C51.654 22.6201 52.17 23.4401 52.606 24.3001C53.546 25.9201 54.606 27.9201 55.346 29.7401C55.9126 30.9507 56.4126 32.1907 56.846 33.4601C56.846 33.6601 57.006 33.8801 57.066 34.0401C55.9539 34.7845 54.7507 35.3827 53.486 35.8201C52.604 36.1441 51.654 36.2401 50.726 36.1001ZM26.804 27.8601C27.8836 27.2291 29.0699 26.802 30.304 26.6001C31.6212 26.3365 32.9733 26.2959 34.304 26.4801C34.5022 26.5096 34.7042 26.4616 34.8681 26.3462C35.0319 26.2308 35.1451 26.0567 35.184 25.8601C35.2009 25.7571 35.1964 25.6518 35.1709 25.5506C35.1453 25.4495 35.0992 25.3547 35.0354 25.2721C34.9716 25.1896 34.8915 25.121 34.8001 25.0708C34.7087 25.0206 34.6079 24.9897 34.504 24.9801C33.0361 24.643 31.5249 24.535 30.024 24.6601C28.4405 24.7574 26.8883 25.1438 25.444 25.8001C24.6473 26.2692 23.9258 26.8558 23.304 27.5401C22.7823 28.1059 22.411 28.7935 22.224 29.5401C22.1161 30.0545 22.1161 30.5857 22.224 31.1001C22.3346 31.6601 22.4746 32.2134 22.644 32.7601C22.924 33.6201 23.184 34.5401 23.504 35.4201C23.824 36.3001 24.184 37.2001 24.584 38.0801L26.584 42.0801L27.104 43.1201C27.2319 43.3456 27.4234 43.5284 27.6546 43.6458C27.8858 43.7632 28.1464 43.8099 28.404 43.7801C28.964 43.6401 30.004 42.6001 31.764 41.7801C32.3994 41.4461 33.0702 41.1845 33.764 41.0001C33.8858 40.9938 34.0049 40.9616 34.1134 40.9058C34.2218 40.8499 34.3171 40.7716 34.393 40.6761C34.4689 40.5805 34.5235 40.47 34.5534 40.3517C34.5833 40.2334 34.5876 40.1101 34.5662 39.99C34.5447 39.8699 34.498 39.7558 34.429 39.6551C34.3601 39.5545 34.2705 39.4697 34.1663 39.4063C34.062 39.343 33.9455 39.3025 33.8244 39.2876C33.7033 39.2728 33.5805 39.2838 33.464 39.3201C32.5738 39.4551 31.7016 39.6899 30.864 40.0201C30.0993 40.3547 29.3691 40.7633 28.684 41.2401L27.004 37.1001L25.304 32.0601C25.204 31.6801 25.064 31.3201 24.964 30.9201C24.9257 30.7084 24.9257 30.4917 24.964 30.2801C25.064 29.8781 25.272 29.5101 25.564 29.2201C25.932 28.7254 26.3453 28.2721 26.804 27.8601Z" fill="#D2700F"/>
</g>
<defs>
<clipPath id="clip0_24_683">
<rect width="48" height="48" fill="white" transform="translate(16.5 8)"/>
</clipPath>
</defs>
</svg>
