<svg width="142" height="31" viewBox="0 0 142 31" fill="none" xmlns="http://www.w3.org/2000/svg">
<rect width="142" height="31" rx="5" fill="#D2700F" fill-opacity="0.1"/>
<circle cx="19" cy="15.5" r="5.5" fill="#D2700F"/>
<path d="M41.524 21.692C40.66 21.692 39.8547 21.5373 39.108 21.228C38.372 20.9187 37.7213 20.4867 37.156 19.932C36.6013 19.3773 36.164 18.7267 35.844 17.98C35.5347 17.2333 35.38 16.4173 35.38 15.532C35.38 14.6467 35.5347 13.8307 35.844 13.084C36.164 12.3267 36.6013 11.676 37.156 11.132C37.7107 10.5773 38.3613 10.1507 39.108 9.852C39.8547 9.54267 40.66 9.388 41.524 9.388C42.3987 9.388 43.204 9.54267 43.94 9.852C44.6867 10.1507 45.3373 10.5773 45.892 11.132C46.4573 11.6867 46.8947 12.3373 47.204 13.084C47.5133 13.8307 47.668 14.6467 47.668 15.532C47.668 16.4173 47.508 17.2333 47.188 17.98C46.8787 18.7267 46.4467 19.3773 45.892 19.932C45.3373 20.4867 44.6867 20.9187 43.94 21.228C43.1933 21.5373 42.388 21.692 41.524 21.692ZM41.524 19.964C42.1427 19.964 42.708 19.852 43.22 19.628C43.7427 19.404 44.196 19.0947 44.58 18.7C44.964 18.2947 45.2627 17.8253 45.476 17.292C45.6893 16.748 45.796 16.1613 45.796 15.532C45.796 14.9027 45.6893 14.3213 45.476 13.788C45.2627 13.2547 44.964 12.7853 44.58 12.38C44.196 11.9747 43.7427 11.66 43.22 11.436C42.708 11.212 42.1427 11.1 41.524 11.1C40.9053 11.1 40.3347 11.212 39.812 11.436C39.3 11.66 38.852 11.9747 38.468 12.38C38.084 12.7853 37.7853 13.2547 37.572 13.788C37.3693 14.3213 37.268 14.9027 37.268 15.532C37.268 16.1613 37.3693 16.748 37.572 17.292C37.7853 17.8253 38.084 18.2947 38.468 18.7C38.852 19.0947 39.3053 19.404 39.828 19.628C40.3507 19.852 40.916 19.964 41.524 19.964ZM52.6909 21.692C52.0402 21.692 51.4695 21.548 50.9789 21.26C50.4882 20.9613 50.1042 20.5507 49.8269 20.028C49.5602 19.4947 49.4269 18.8813 49.4269 18.188V12.844H51.2349V18.028C51.2349 18.4227 51.3149 18.7693 51.4749 19.068C51.6349 19.3667 51.8589 19.6013 52.1469 19.772C52.4349 19.932 52.7655 20.012 53.1389 20.012C53.5229 20.012 53.8589 19.9267 54.1469 19.756C54.4349 19.5853 54.6589 19.3453 54.8189 19.036C54.9895 18.7267 55.0749 18.364 55.0749 17.948V12.844H56.8669V21.5H55.1549V19.804L55.3469 20.028C55.1442 20.5613 54.8082 20.972 54.3389 21.26C53.8695 21.548 53.3202 21.692 52.6909 21.692ZM58.9779 21.5V12.844H60.7059V14.588L60.5459 14.332C60.7379 13.7667 61.0472 13.3613 61.4739 13.116C61.9005 12.86 62.4125 12.732 63.0099 12.732H63.5379V14.38H62.7859C62.1885 14.38 61.7032 14.5667 61.3299 14.94C60.9672 15.3027 60.7859 15.8253 60.7859 16.508V21.5H58.9779ZM67.2196 21.5V19.74H67.9076C68.441 19.74 68.8676 19.5853 69.1876 19.276C69.5076 18.956 69.6676 18.5293 69.6676 17.996V9.58H71.5396V17.932C71.5396 18.6573 71.3903 19.2867 71.0916 19.82C70.8036 20.3533 70.3823 20.7693 69.8276 21.068C69.2836 21.356 68.6436 21.5 67.9076 21.5H67.2196ZM77.982 21.692C77.15 21.692 76.3873 21.4947 75.694 21.1C75.0113 20.7053 74.4673 20.1667 74.062 19.484C73.6567 18.8013 73.454 18.028 73.454 17.164C73.454 16.2893 73.6567 15.516 74.062 14.844C74.4673 14.1613 75.0113 13.628 75.694 13.244C76.3767 12.8493 77.1393 12.652 77.982 12.652C78.8353 12.652 79.598 12.8493 80.27 13.244C80.9527 13.628 81.4913 14.1613 81.886 14.844C82.2913 15.516 82.494 16.2893 82.494 17.164C82.494 18.0387 82.2913 18.8173 81.886 19.5C81.4807 20.1827 80.9367 20.7213 80.254 21.116C79.5713 21.5 78.814 21.692 77.982 21.692ZM77.982 20.012C78.494 20.012 78.9473 19.8893 79.342 19.644C79.7367 19.3987 80.046 19.0627 80.27 18.636C80.5047 18.1987 80.622 17.708 80.622 17.164C80.622 16.62 80.5047 16.1347 80.27 15.708C80.046 15.2813 79.7367 14.9453 79.342 14.7C78.9473 14.4547 78.494 14.332 77.982 14.332C77.4807 14.332 77.0273 14.4547 76.622 14.7C76.2273 14.9453 75.9127 15.2813 75.678 15.708C75.454 16.1347 75.342 16.62 75.342 17.164C75.342 17.708 75.454 18.1987 75.678 18.636C75.9127 19.0627 76.2273 19.3987 76.622 19.644C77.0273 19.8893 77.4807 20.012 77.982 20.012ZM87.3471 21.692C86.6965 21.692 86.1258 21.548 85.6351 21.26C85.1445 20.9613 84.7605 20.5507 84.4831 20.028C84.2165 19.4947 84.0831 18.8813 84.0831 18.188V12.844H85.8911V18.028C85.8911 18.4227 85.9711 18.7693 86.1311 19.068C86.2911 19.3667 86.5151 19.6013 86.8031 19.772C87.0911 19.932 87.4218 20.012 87.7951 20.012C88.1791 20.012 88.5151 19.9267 88.8031 19.756C89.0911 19.5853 89.3151 19.3453 89.4751 19.036C89.6458 18.7267 89.7311 18.364 89.7311 17.948V12.844H91.5231V21.5H89.8111V19.804L90.0031 20.028C89.8005 20.5613 89.4645 20.972 88.9951 21.26C88.5258 21.548 87.9765 21.692 87.3471 21.692ZM93.6341 21.5V12.844H95.3621V14.588L95.2021 14.332C95.3941 13.7667 95.7035 13.3613 96.1301 13.116C96.5568 12.86 97.0688 12.732 97.6661 12.732H98.1941V14.38H97.4421C96.8448 14.38 96.3595 14.5667 95.9861 14.94C95.6235 15.3027 95.4421 15.8253 95.4421 16.508V21.5H93.6341ZM99.431 21.5V12.844H101.159V14.54L100.951 14.316C101.164 13.772 101.506 13.3613 101.975 13.084C102.444 12.796 102.988 12.652 103.607 12.652C104.247 12.652 104.812 12.7907 105.303 13.068C105.794 13.3453 106.178 13.7293 106.455 14.22C106.732 14.7107 106.871 15.276 106.871 15.916V21.5H105.079V16.396C105.079 15.9587 104.999 15.5907 104.839 15.292C104.679 14.9827 104.45 14.748 104.151 14.588C103.863 14.4173 103.532 14.332 103.159 14.332C102.786 14.332 102.45 14.4173 102.151 14.588C101.863 14.748 101.639 14.9827 101.479 15.292C101.319 15.6013 101.239 15.9693 101.239 16.396V21.5H99.431ZM112.87 21.692C112.006 21.692 111.238 21.4947 110.566 21.1C109.905 20.6947 109.387 20.1507 109.014 19.468C108.641 18.7747 108.454 18.0013 108.454 17.148C108.454 16.2733 108.641 15.5 109.014 14.828C109.398 14.156 109.91 13.628 110.55 13.244C111.19 12.8493 111.915 12.652 112.726 12.652C113.377 12.652 113.958 12.764 114.47 12.988C114.982 13.212 115.414 13.5213 115.766 13.916C116.118 14.3 116.385 14.7427 116.566 15.244C116.758 15.7453 116.854 16.2787 116.854 16.844C116.854 16.9827 116.849 17.1267 116.838 17.276C116.827 17.4253 116.806 17.564 116.774 17.692H109.878V16.252H115.75L114.886 16.908C114.993 16.3853 114.955 15.9213 114.774 15.516C114.603 15.1 114.337 14.7747 113.974 14.54C113.622 14.2947 113.206 14.172 112.726 14.172C112.246 14.172 111.819 14.2947 111.446 14.54C111.073 14.7747 110.785 15.116 110.582 15.564C110.379 16.0013 110.299 16.5347 110.342 17.164C110.289 17.7507 110.369 18.2627 110.582 18.7C110.806 19.1373 111.115 19.4787 111.51 19.724C111.915 19.9693 112.374 20.092 112.886 20.092C113.409 20.092 113.851 19.9747 114.214 19.74C114.587 19.5053 114.881 19.2013 115.094 18.828L116.566 19.548C116.395 19.9533 116.129 20.3213 115.766 20.652C115.414 20.972 114.987 21.228 114.486 21.42C113.995 21.6013 113.457 21.692 112.87 21.692ZM119.387 25.02C119.173 25.02 118.96 24.9987 118.747 24.956C118.544 24.924 118.357 24.8707 118.187 24.796V23.244C118.315 23.276 118.469 23.3027 118.651 23.324C118.832 23.356 119.008 23.372 119.179 23.372C119.68 23.372 120.048 23.26 120.283 23.036C120.528 22.8227 120.747 22.492 120.939 22.044L121.515 20.732L121.483 22.252L117.739 12.844H119.674L122.443 20.06H121.786L124.539 12.844H126.491L122.667 22.444C122.464 22.956 122.208 23.404 121.899 23.788C121.6 24.1827 121.243 24.4867 120.827 24.7C120.421 24.9133 119.941 25.02 119.387 25.02Z" fill="white"/>
</svg>
