<svg width="202" height="31" viewBox="0 0 202 31" fill="none" xmlns="http://www.w3.org/2000/svg">
<rect width="202" height="31" rx="5" fill="#D2700F" fill-opacity="0.1"/>
<circle cx="19.5" cy="15.5" r="5.5" fill="#D2700F"/>
<path d="M42.024 21.692C41.16 21.692 40.3547 21.5373 39.608 21.228C38.872 20.9187 38.2213 20.4867 37.656 19.932C37.1013 19.3773 36.664 18.7267 36.344 17.98C36.0347 17.2333 35.88 16.4173 35.88 15.532C35.88 14.6467 36.0347 13.8307 36.344 13.084C36.664 12.3267 37.1013 11.676 37.656 11.132C38.2107 10.5773 38.8613 10.1507 39.608 9.852C40.3547 9.54267 41.16 9.388 42.024 9.388C42.8987 9.388 43.704 9.54267 44.44 9.852C45.1867 10.1507 45.8373 10.5773 46.392 11.132C46.9573 11.6867 47.3947 12.3373 47.704 13.084C48.0133 13.8307 48.168 14.6467 48.168 15.532C48.168 16.4173 48.008 17.2333 47.688 17.98C47.3787 18.7267 46.9467 19.3773 46.392 19.932C45.8373 20.4867 45.1867 20.9187 44.44 21.228C43.6933 21.5373 42.888 21.692 42.024 21.692ZM42.024 19.964C42.6427 19.964 43.208 19.852 43.72 19.628C44.2427 19.404 44.696 19.0947 45.08 18.7C45.464 18.2947 45.7627 17.8253 45.976 17.292C46.1893 16.748 46.296 16.1613 46.296 15.532C46.296 14.9027 46.1893 14.3213 45.976 13.788C45.7627 13.2547 45.464 12.7853 45.08 12.38C44.696 11.9747 44.2427 11.66 43.72 11.436C43.208 11.212 42.6427 11.1 42.024 11.1C41.4053 11.1 40.8347 11.212 40.312 11.436C39.8 11.66 39.352 11.9747 38.968 12.38C38.584 12.7853 38.2853 13.2547 38.072 13.788C37.8693 14.3213 37.768 14.9027 37.768 15.532C37.768 16.1613 37.8693 16.748 38.072 17.292C38.2853 17.8253 38.584 18.2947 38.968 18.7C39.352 19.0947 39.8053 19.404 40.328 19.628C40.8507 19.852 41.416 19.964 42.024 19.964ZM53.1909 21.692C52.5402 21.692 51.9695 21.548 51.4789 21.26C50.9882 20.9613 50.6042 20.5507 50.3269 20.028C50.0602 19.4947 49.9269 18.8813 49.9269 18.188V12.844H51.7349V18.028C51.7349 18.4227 51.8149 18.7693 51.9749 19.068C52.1349 19.3667 52.3589 19.6013 52.6469 19.772C52.9349 19.932 53.2655 20.012 53.6389 20.012C54.0229 20.012 54.3589 19.9267 54.6469 19.756C54.9349 19.5853 55.1589 19.3453 55.3189 19.036C55.4895 18.7267 55.5749 18.364 55.5749 17.948V12.844H57.3669V21.5H55.6549V19.804L55.8469 20.028C55.6442 20.5613 55.3082 20.972 54.8389 21.26C54.3695 21.548 53.8202 21.692 53.1909 21.692ZM59.4779 21.5V12.844H61.2059V14.588L61.0459 14.332C61.2379 13.7667 61.5472 13.3613 61.9739 13.116C62.4005 12.86 62.9125 12.732 63.5099 12.732H64.0379V14.38H63.2859C62.6885 14.38 62.2032 14.5667 61.8299 14.94C61.4672 15.3027 61.2859 15.8253 61.2859 16.508V21.5H59.4779ZM72.7116 21.692C71.8263 21.692 71.037 21.5053 70.3436 21.132C69.661 20.7587 69.1223 20.2467 68.7276 19.596C68.3436 18.9453 68.1516 18.204 68.1516 17.372V9.58H70.0396V17.292C70.0396 17.8147 70.1516 18.2787 70.3756 18.684C70.6103 19.0893 70.925 19.404 71.3196 19.628C71.725 19.852 72.189 19.964 72.7116 19.964C73.245 19.964 73.709 19.852 74.1036 19.628C74.509 19.404 74.8236 19.0893 75.0476 18.684C75.2823 18.2787 75.3996 17.8147 75.3996 17.292V9.58H77.2716V17.372C77.2716 18.204 77.0796 18.9453 76.6956 19.596C76.3116 20.2467 75.773 20.7587 75.0796 21.132C74.397 21.5053 73.6076 21.692 72.7116 21.692ZM79.4622 24.7V12.844H81.1903V14.636L80.9823 14.22C81.3023 13.7293 81.7289 13.3453 82.2623 13.068C82.7956 12.7907 83.4036 12.652 84.0863 12.652C84.9076 12.652 85.6436 12.8493 86.2943 13.244C86.9556 13.6387 87.4729 14.1773 87.8463 14.86C88.2303 15.5427 88.4223 16.3107 88.4223 17.164C88.4223 18.0173 88.2303 18.7853 87.8463 19.468C87.4729 20.1507 86.9609 20.6947 86.3103 21.1C85.6596 21.4947 84.9183 21.692 84.0863 21.692C83.4143 21.692 82.8009 21.5533 82.2463 21.276C81.7023 20.9987 81.2809 20.5987 80.9823 20.076L81.2703 19.74V24.7H79.4622ZM83.9103 20.012C84.4223 20.012 84.8756 19.8893 85.2703 19.644C85.6649 19.3987 85.9743 19.0627 86.1983 18.636C86.4329 18.1987 86.5503 17.708 86.5503 17.164C86.5503 16.62 86.4329 16.1347 86.1983 15.708C85.9743 15.2813 85.6649 14.9453 85.2703 14.7C84.8756 14.4547 84.4223 14.332 83.9103 14.332C83.4089 14.332 82.9556 14.4547 82.5503 14.7C82.1556 14.9453 81.8409 15.2813 81.6063 15.708C81.3823 16.1347 81.2703 16.62 81.2703 17.164C81.2703 17.708 81.3823 18.1987 81.6063 18.636C81.8409 19.0627 82.1556 19.3987 82.5503 19.644C82.9556 19.8893 83.4089 20.012 83.9103 20.012ZM92.1208 21.5L89.1448 12.844H91.0648L93.3368 19.74H92.6648L94.9848 12.844H96.6328L98.9368 19.74H98.2648L100.553 12.844H102.473L99.4808 21.5H97.8488L95.5128 14.444H96.1048L93.7688 21.5H92.1208ZM107.732 21.692C106.9 21.692 106.137 21.4947 105.444 21.1C104.761 20.7053 104.217 20.1667 103.812 19.484C103.407 18.8013 103.204 18.028 103.204 17.164C103.204 16.2893 103.407 15.516 103.812 14.844C104.217 14.1613 104.761 13.628 105.444 13.244C106.127 12.8493 106.889 12.652 107.732 12.652C108.585 12.652 109.348 12.8493 110.02 13.244C110.703 13.628 111.241 14.1613 111.636 14.844C112.041 15.516 112.244 16.2893 112.244 17.164C112.244 18.0387 112.041 18.8173 111.636 19.5C111.231 20.1827 110.687 20.7213 110.004 21.116C109.321 21.5 108.564 21.692 107.732 21.692ZM107.732 20.012C108.244 20.012 108.697 19.8893 109.092 19.644C109.487 19.3987 109.796 19.0627 110.02 18.636C110.255 18.1987 110.372 17.708 110.372 17.164C110.372 16.62 110.255 16.1347 110.02 15.708C109.796 15.2813 109.487 14.9453 109.092 14.7C108.697 14.4547 108.244 14.332 107.732 14.332C107.231 14.332 106.777 14.4547 106.372 14.7C105.977 14.9453 105.663 15.2813 105.428 15.708C105.204 16.1347 105.092 16.62 105.092 17.164C105.092 17.708 105.204 18.1987 105.428 18.636C105.663 19.0627 105.977 19.3987 106.372 19.644C106.777 19.8893 107.231 20.012 107.732 20.012ZM114.009 21.5V12.844H115.737V14.588L115.577 14.332C115.769 13.7667 116.078 13.3613 116.505 13.116C116.932 12.86 117.444 12.732 118.041 12.732H118.569V14.38H117.817C117.22 14.38 116.734 14.5667 116.361 14.94C115.998 15.3027 115.817 15.8253 115.817 16.508V21.5H114.009ZM119.806 21.5V9.388H121.614V17.5L120.91 17.324L125.246 12.844H127.502L124.238 16.316L127.646 21.5H125.566L122.526 16.908L123.598 16.764L121.038 19.484L121.614 18.284V21.5H119.806ZM131.857 21.5V9.58H136.193C136.993 9.58 137.697 9.72933 138.305 10.028C138.924 10.316 139.404 10.7427 139.745 11.308C140.086 11.8627 140.257 12.5293 140.257 13.308C140.257 14.076 140.081 14.7373 139.729 15.292C139.388 15.8467 138.913 16.2733 138.305 16.572C137.697 16.8707 136.993 17.02 136.193 17.02H133.745V21.5H131.857ZM133.745 15.34H136.241C136.668 15.34 137.041 15.2547 137.361 15.084C137.681 14.9133 137.932 14.6787 138.113 14.38C138.294 14.0707 138.385 13.708 138.385 13.292C138.385 12.876 138.294 12.5187 138.113 12.22C137.932 11.9107 137.681 11.676 137.361 11.516C137.041 11.3453 136.668 11.26 136.241 11.26H133.745V15.34ZM142.025 21.5V12.844H143.753V14.588L143.593 14.332C143.785 13.7667 144.094 13.3613 144.521 13.116C144.947 12.86 145.459 12.732 146.057 12.732H146.585V14.38H145.833C145.235 14.38 144.75 14.5667 144.377 14.94C144.014 15.3027 143.833 15.8253 143.833 16.508V21.5H142.025ZM151.998 21.692C151.166 21.692 150.403 21.4947 149.71 21.1C149.027 20.7053 148.483 20.1667 148.078 19.484C147.672 18.8013 147.47 18.028 147.47 17.164C147.47 16.2893 147.672 15.516 148.078 14.844C148.483 14.1613 149.027 13.628 149.71 13.244C150.392 12.8493 151.155 12.652 151.998 12.652C152.851 12.652 153.614 12.8493 154.286 13.244C154.968 13.628 155.507 14.1613 155.902 14.844C156.307 15.516 156.51 16.2893 156.51 17.164C156.51 18.0387 156.307 18.8173 155.902 19.5C155.496 20.1827 154.952 20.7213 154.27 21.116C153.587 21.5 152.83 21.692 151.998 21.692ZM151.998 20.012C152.51 20.012 152.963 19.8893 153.358 19.644C153.752 19.3987 154.062 19.0627 154.286 18.636C154.52 18.1987 154.638 17.708 154.638 17.164C154.638 16.62 154.52 16.1347 154.286 15.708C154.062 15.2813 153.752 14.9453 153.358 14.7C152.963 14.4547 152.51 14.332 151.998 14.332C151.496 14.332 151.043 14.4547 150.638 14.7C150.243 14.9453 149.928 15.2813 149.694 15.708C149.47 16.1347 149.358 16.62 149.358 17.164C149.358 17.708 149.47 18.1987 149.694 18.636C149.928 19.0627 150.243 19.3987 150.638 19.644C151.043 19.8893 151.496 20.012 151.998 20.012ZM159.016 21.5V14.476H157.416V12.844H159.016V12.396C159.016 11.7453 159.15 11.2013 159.416 10.764C159.683 10.316 160.051 9.97467 160.52 9.74C161 9.50533 161.55 9.388 162.168 9.388C162.286 9.388 162.419 9.39867 162.568 9.42C162.718 9.43067 162.84 9.44667 162.936 9.468V11.036C162.851 11.0147 162.755 11.004 162.648 11.004C162.542 10.9933 162.456 10.988 162.392 10.988C161.912 10.988 161.528 11.1 161.24 11.324C160.952 11.5373 160.808 11.8947 160.808 12.396V12.844H164.952V14.476H160.808V21.5H159.016ZM164.104 21.5V12.844H165.896V21.5H164.104ZM167.806 21.5V9.388H169.614V21.5H167.806ZM175.792 21.692C174.928 21.692 174.16 21.4947 173.488 21.1C172.827 20.6947 172.309 20.1507 171.936 19.468C171.563 18.7747 171.376 18.0013 171.376 17.148C171.376 16.2733 171.563 15.5 171.936 14.828C172.32 14.156 172.832 13.628 173.472 13.244C174.112 12.8493 174.837 12.652 175.648 12.652C176.299 12.652 176.88 12.764 177.392 12.988C177.904 13.212 178.336 13.5213 178.688 13.916C179.04 14.3 179.307 14.7427 179.488 15.244C179.68 15.7453 179.776 16.2787 179.776 16.844C179.776 16.9827 179.771 17.1267 179.76 17.276C179.749 17.4253 179.728 17.564 179.696 17.692H172.8V16.252H178.672L177.808 16.908C177.915 16.3853 177.877 15.9213 177.696 15.516C177.525 15.1 177.259 14.7747 176.896 14.54C176.544 14.2947 176.128 14.172 175.648 14.172C175.168 14.172 174.741 14.2947 174.368 14.54C173.995 14.7747 173.707 15.116 173.504 15.564C173.301 16.0013 173.221 16.5347 173.264 17.164C173.211 17.7507 173.291 18.2627 173.504 18.7C173.728 19.1373 174.037 19.4787 174.432 19.724C174.837 19.9693 175.296 20.092 175.808 20.092C176.331 20.092 176.773 19.9747 177.136 19.74C177.509 19.5053 177.803 19.2013 178.016 18.828L179.488 19.548C179.317 19.9533 179.051 20.3213 178.688 20.652C178.336 20.972 177.909 21.228 177.408 21.42C176.917 21.6013 176.379 21.692 175.792 21.692Z" fill="white"/>
</svg>
