<?xml version="1.0" encoding="UTF-8" standalone="no"?>
<svg
   version="1.1"
   viewBox="0.00 0.00 1200.00 109.00"
   width="1200.00"
   height="109.00"
   id="svg13"
   sodipodi:docname="Frame 83 (1).svg"
   inkscape:version="1.4.2 (f4327f4, 2025-05-13)"
   xmlns:inkscape="http://www.inkscape.org/namespaces/inkscape"
   xmlns:sodipodi="http://sodipodi.sourceforge.net/DTD/sodipodi-0.dtd"
   xmlns="http://www.w3.org/2000/svg"
   xmlns:svg="http://www.w3.org/2000/svg">
  <defs
     id="defs13" />
  <sodipodi:namedview
     id="namedview13"
     pagecolor="#ffffff"
     bordercolor="#000000"
     borderopacity="0.25"
     inkscape:showpageshadow="2"
     inkscape:pageopacity="0.0"
     inkscape:pagecheckerboard="0"
     inkscape:deskcolor="#d1d1d1"
     inkscape:zoom="1.4775"
     inkscape:cx="294.07783"
     inkscape:cy="54.483926"
     inkscape:window-width="1920"
     inkscape:window-height="991"
     inkscape:window-x="-9"
     inkscape:window-y="-9"
     inkscape:window-maximized="1"
     inkscape:current-layer="svg13" />
  <g
     fill="#fefefe"
     id="g13">
    <path
       d="   M 188.36 52.10   C 188.63 52.31 189.03 52.11 189.03 51.76   L 189.00 44.92   C 189.00 44.64 189.23 44.40 189.51 44.40   L 191.88 44.39   C 192.22 44.39 192.49 44.65 192.49 44.98   L 192.59 65.06   C 192.59 65.42 192.30 65.72 191.93 65.72   L 189.98 65.75   C 189.54 65.75 189.18 65.38 189.20 64.93   C 189.20 64.91 189.21 64.86 189.21 64.79   C 189.22 64.51 188.92 64.34 188.68 64.49   C 184.87 66.97 181.65 66.59 179.00 63.35   C 173.97 57.20 181.02 46.60 188.36 52.10   Z   M 185.2467 53.7551   C 182.91 53.65 180.92 55.61 180.8047 58.1507   C 180.69 60.69 182.48 62.83 184.8133 62.9449   C 187.15 63.05 189.14 61.09 189.2553 58.5493   C 189.37 56.01 187.58 53.87 185.2467 53.7551   Z"
       id="path1" />
    <path
       d="   M 264.11 51.74   L 264.11 44.87   C 264.11 44.58 264.34 44.35 264.63 44.35   L 267.01 44.35   C 267.35 44.35 267.62 44.62 267.62 44.95   L 267.62 65.12   C 267.62 65.48 267.32 65.78 266.96 65.78   L 265.00 65.80   C 264.55 65.80 264.19 65.42 264.22 64.98   C 264.22 64.96 264.22 64.91 264.23 64.83   C 264.24 64.55 263.93 64.38 263.70 64.53   C 259.86 67.00 256.62 66.61 253.98 63.34   C 248.95 57.13 256.09 46.52 263.43 52.08   C 263.71 52.29 264.11 52.09 264.11 51.74   Z   M 259.8356 53.8366   C 257.54 53.96 255.78 56.08 255.9161 58.5755   C 256.05 61.07 258.02 62.99 260.3244 62.8634   C 262.62 62.74 264.38 60.62 264.2439 58.1245   C 264.11 55.63 262.14 53.71 259.8356 53.8366   Z"
       id="path2" />
    <circle
       cx="172.65"
       cy="46.58"
       r="2.18"
       id="circle2" />
    <circle
       cx="273.06"
       cy="46.59"
       r="2.18"
       id="circle3" />
    <circle
       cx="291.48"
       cy="46.56"
       r="2.11"
       id="circle4" />
    <path
       d="   M 158.87 60.13   C 159.01 60.13 159.11 60.05 159.16 59.91   C 160.85 55.08 162.66 50.36 164.59 45.73   C 164.77 45.32 165.17 45.05 165.62 45.05   L 168.04 45.05   C 168.46 45.05 168.75 45.48 168.59 45.87   L 160.86 65.10   C 160.73 65.43 160.45 65.67 160.10 65.75   C 160.04 65.76 159.64 65.77 158.88 65.77   C 158.13 65.77 157.72 65.77 157.67 65.75   C 157.32 65.67 157.04 65.43 156.91 65.11   L 149.11 45.90   C 148.95 45.51 149.23 45.08 149.65 45.08   L 152.07 45.07   C 152.52 45.07 152.93 45.34 153.11 45.75   C 155.06 50.37 156.88 55.09 158.59 59.91   C 158.64 60.06 158.74 60.13 158.87 60.13   Z"
       id="path4" />
    <path
       d="   M 248.87 55.38   C 248.87 55.83 248.86 56.16 248.84 56.35   C 248.80 56.73 248.48 57.02 248.10 57.02   L 240.97 57.02   C 240.68 57.02 240.44 57.25 240.44 57.54   L 240.44 61.87   C 240.44 62.17 240.68 62.41 240.97 62.41   L 249.66 62.41   C 249.95 62.41 250.19 62.65 250.19 62.94   L 250.19 65.17   C 250.19 65.47 249.95 65.71 249.66 65.71   L 237.47 65.71   C 237.18 65.71 236.95 65.48 236.95 65.19   C 236.95 59.64 236.95 56.37 236.94 55.38   C 236.94 54.40 236.94 51.13 236.94 45.58   C 236.94 45.29 237.17 45.06 237.46 45.06   L 249.65 45.05   C 249.94 45.05 250.18 45.29 250.18 45.59   L 250.18 47.82   C 250.18 48.11 249.95 48.35 249.65 48.35   L 240.96 48.35   C 240.67 48.35 240.43 48.60 240.43 48.89   L 240.44 53.22   C 240.44 53.51 240.68 53.74 240.97 53.74   L 248.10 53.74   C 248.48 53.74 248.80 54.03 248.84 54.41   C 248.86 54.60 248.87 54.92 248.87 55.38   Z"
       id="path5" />
    <path
       d="   M 279.70 47.74   C 279.70 47.43 279.96 47.17 280.27 47.17   L 282.39 47.17   C 282.77 47.17 283.07 47.47 283.07 47.85   L 283.07 50.32   C 283.07 50.70 283.37 51.00 283.75 51.00   L 286.13 51.00   C 286.54 51.00 286.87 51.33 286.87 51.74   L 286.87 53.21   C 286.87 53.62 286.53 53.96 286.12 53.96   L 283.68 53.96   C 283.31 53.96 283.01 54.26 283.01 54.64   L 283.01 61.24   C 283.01 61.48 283.08 61.72 283.21 61.92   C 283.82 62.83 284.89 63.07 286.43 62.64   C 286.52 62.61 286.62 62.67 286.64 62.77   C 286.83 63.67 286.82 64.62 286.61 65.63   C 286.59 65.69 286.54 65.74 286.48 65.75   C 277.75 67.57 280.02 59.44 279.69 54.53   C 279.67 54.21 279.40 53.96 279.07 53.96   L 277.82 53.96   C 277.47 53.96 277.18 53.67 277.18 53.32   L 277.18 51.59   C 277.18 51.28 277.44 51.02 277.75 51.02   L 279.15 51.02   C 279.45 51.02 279.70 50.78 279.70 50.48   L 279.70 47.74   Z"
       id="path6" />
    <path
       d="   M 1127.27 53.73   L 1131.80 58.26   C 1131.92 58.38 1132.10 58.38 1132.22 58.26   L 1142.79 47.69   C 1142.91 47.57 1143.09 47.57 1143.21 47.69   L 1143.81 48.29   C 1143.93 48.41 1143.93 48.59 1143.81 48.71   L 1132.21 60.31   C 1132.09 60.43 1131.91 60.43 1131.79 60.31   L 1126.24 54.76   C 1126.12 54.64 1126.12 54.46 1126.24 54.34   L 1126.85 53.73   C 1126.97 53.61 1127.15 53.61 1127.27 53.73   Z"
       id="path7" />
    <path
       d="   M 209.77 59.21   C 209.76 59.47 209.55 59.67 209.29 59.67   L 199.38 59.67   C 198.95 59.67 198.70 60.16 198.95 60.51   C 201.05 63.46 203.58 63.84 206.55 61.65   C 206.91 61.38 207.39 61.36 207.77 61.58   L 209.01 62.29   C 209.49 62.57 209.56 63.24 209.14 63.61   C 205.21 67.08 199.91 67.19 196.73 62.74   C 192.63 56.97 198.28 48.49 205.39 51.04   C 208.50 52.16 209.96 54.88 209.77 59.21   Z   M 199.18 57.04   L 206.34 57.02   C 206.41 57.02 206.47 56.96 206.47 56.89   L 206.47 56.83   C 206.46 55.07 204.87 53.64 202.92 53.65   L 202.56 53.65   C 200.61 53.66 199.04 55.09 199.05 56.85   L 199.05 56.91   C 199.05 56.98 199.10 57.04 199.18 57.04   Z"
       id="path8" />
    <path
       d="   M 227.62 58.35   C 227.62 62.69 224.10 66.21 219.76 66.21   C 215.42 66.21 211.90 62.69 211.90 58.35   C 211.90 54.01 215.42 50.49 219.76 50.49   C 224.10 50.49 227.62 54.01 227.62 58.35   Z   M 220.8100 53.9751   C 218.47 53.44 216.13 54.96 215.5712 57.3737   C 215.01 59.79 216.45 62.19 218.7900 62.7249   C 221.13 63.26 223.47 61.74 224.0288 59.3263   C 224.59 56.91 223.15 54.51 220.8100 53.9751   Z"
       id="path9" />
    <path
       d="   M 300.49 52.24   C 300.49 52.49 300.79 52.61 300.95 52.43   C 302.33 50.92 303.90 50.30 305.67 50.56   C 309.33 51.08 310.69 53.33 310.68 57.05   C 310.68 59.50 310.69 62.21 310.70 65.18   C 310.70 65.49 310.45 65.74 310.14 65.74   L 307.69 65.74   C 307.40 65.74 307.17 65.51 307.17 65.22   L 307.17 56.74   C 307.17 55.07 305.76 53.75 304.09 53.86   L 303.72 53.88   C 302.00 53.98 300.65 55.41 300.65 57.14   L 300.64 65.22   C 300.64 65.51 300.41 65.74 300.13 65.74   L 297.63 65.74   C 297.36 65.74 297.14 65.52 297.14 65.24   L 297.14 51.64   C 297.14 51.26 297.44 50.96 297.82 50.96   L 299.75 50.96   C 300.16 50.96 300.49 51.29 300.49 51.69   L 300.49 52.24   Z"
       id="path10" />
    <path
       d="   M 324.52 64.27   C 321.29 66.28 318.33 66.11 315.66 63.76   C 313.03 61.44 312.48 56.73 314.46 54.03   C 317.29 50.18 320.65 49.55 324.55 52.14   C 324.82 52.32 325.18 52.16 325.24 51.84   C 325.25 51.77 325.26 51.65 325.25 51.47   C 325.23 51.17 325.48 50.92 325.78 50.92   L 327.81 50.92   C 328.26 50.92 328.62 51.28 328.62 51.73   C 328.63 57.02 328.64 61.09 328.66 63.96   C 328.73 72.23 320.47 74.53 314.65 70.21   C 314.47 70.08 314.42 69.83 314.53 69.64   L 315.59 67.80   C 315.78 67.48 316.20 67.40 316.50 67.62   C 319.77 70.10 325.05 69.77 325.14 64.62   C 325.15 64.30 324.79 64.10 324.52 64.27   Z   M 321.1996 53.8219   C 318.89 53.75 316.95 55.65 316.8818 58.0657   C 316.81 60.48 318.63 62.49 320.9404 62.5581   C 323.25 62.63 325.19 60.73 325.2582 58.3143   C 325.33 55.90 323.51 53.89 321.1996 53.8219   Z"
       id="path11" />
    <rect
       x="-1.81"
       y="-7.38"
       transform="translate(172.69,58.36) rotate(0.1)"
       width="3.62"
       height="14.76"
       rx="0.54"
       id="rect11" />
    <rect
       x="-1.75"
       y="-7.37"
       transform="translate(273.07,58.37) rotate(0.1)"
       width="3.50"
       height="14.74"
       rx="0.51"
       id="rect12" />
    <rect
       x="-1.68"
       y="-7.38"
       transform="translate(291.50,58.35) rotate(-0.1)"
       width="3.36"
       height="14.76"
       rx="0.50"
       id="rect13" />
  </g>
  <path
     fill="#d2700f"
     d="   M 80.31 56.29   C 80.33 67.44 80.33 73.11 80.31 73.29   C 80.28 73.54 80.17 73.77 79.98 73.94   C 79.25 74.58 78.28 74.58 77.09 73.95   C 72.92 71.70 68.15 68.92 62.76 65.59   C 62.63 65.51 62.46 65.61 62.47 65.77   C 62.58 67.47 62.62 69.81 62.59 72.78   C 62.57 74.69 61.72 76.27 60.05 77.52   C 59.10 78.23 57.33 78.52 54.74 78.40   C 54.32 78.38 43.33 78.40 21.76 78.45   C 19.77 78.45 18.30 77.75 17.36 76.36   C 16.75 75.45 16.43 73.82 16.39 71.47   C 16.37 70.16 16.35 65.13 16.34 56.40   C 16.32 47.66 16.32 42.64 16.34 41.33   C 16.37 38.98 16.69 37.35 17.29 36.43   C 18.23 35.04 19.69 34.34 21.69 34.33   C 43.25 34.31 54.25 34.29 54.66 34.27   C 57.26 34.14 59.03 34.43 59.98 35.13   C 61.66 36.37 62.51 37.95 62.53 39.86   C 62.57 42.83 62.54 45.17 62.44 46.87   C 62.43 47.03 62.60 47.13 62.73 47.05   C 68.10 43.71 72.87 40.90 77.03 38.64   C 78.22 38.00 79.18 38.00 79.92 38.64   C 80.11 38.81 80.23 39.04 80.25 39.29   C 80.27 39.47 80.29 45.14 80.31 56.29   Z   M 76.46 43.38   C 76.44 43.38 76.29 43.68 76.02 44.28   C 75.96 44.42 75.86 44.53 75.73 44.61   L 65.66 50.42   C 65.35 50.60 65.00 50.67 64.66 50.64   C 63.51 50.55 62.40 50.64 61.33 50.92   C 60.98 51.01 60.61 50.94 60.31 50.73   C 59.12 49.88 58.48 49.13 58.38 48.46   C 58.37 48.42 58.37 48.38 58.37 48.34   L 58.54 40.20   C 58.56 39.18 57.74 38.35 56.72 38.35   L 21.56 38.35   C 20.90 38.35 20.36 38.88 20.36 39.54   L 20.36 72.36   C 20.36 73.50 21.28 74.42 22.42 74.42   L 56.49 74.42   C 57.61 74.42 58.51 73.51 58.51 72.39   L 58.51 64.83   C 58.51 63.00 60.07 61.57 61.89 61.72   L 64.94 61.96   C 65.04 61.97 65.13 62.00 65.22 62.05   L 75.98 68.26   C 76.14 68.35 76.34 68.24 76.34 68.05   C 76.29 62.46 76.28 54.86 76.31 45.25   C 76.32 44.39 76.41 43.87 76.59 43.70   C 76.71 43.58 76.63 43.37 76.46 43.38   Z"
     id="path13" />
</svg>
