<svg width="323" height="142" viewBox="0 0 323 142" fill="none" xmlns="http://www.w3.org/2000/svg">
<path d="M195.849 101.416C197.45 103.826 196.763 105.92 196.685 107.081C196.608 108.245 196.827 108.277 197.664 109.174C197.769 109.284 197.851 109.414 197.904 109.556C197.957 109.698 197.981 109.85 197.973 110.002C197.966 110.153 197.927 110.302 197.86 110.438C197.792 110.574 197.698 110.695 197.582 110.794L195.125 112.888C195.01 112.987 194.875 113.06 194.73 113.105C194.585 113.149 194.432 113.164 194.281 113.148C194.13 113.131 193.984 113.084 193.852 113.01C193.72 112.935 193.604 112.834 193.513 112.713C192.732 111.798 192.636 111.513 191.601 111.415C190.3 111.312 187.802 111.729 185.476 109.001C184.894 108.327 184.458 107.54 184.196 106.689C183.933 105.838 183.85 104.942 183.951 104.058C184.052 103.173 184.335 102.319 184.782 101.549C185.23 100.779 185.832 100.111 186.551 99.5852C187.269 99.0596 188.089 98.6886 188.958 98.4956C189.828 98.3026 190.727 98.2918 191.601 98.4638C192.474 98.6357 193.303 98.9868 194.034 99.4949C194.765 100.003 195.383 100.657 195.849 101.416Z" stroke="#D0D5DD" stroke-opacity="0.36" stroke-width="1.5" stroke-linecap="round" stroke-linejoin="round"/>
<path d="M194.887 113.004L196.078 114.401C196.404 114.783 196.884 114.915 197.145 114.692L199.043 113.074C199.306 112.85 199.25 112.355 198.925 111.974L197.734 110.577M187.284 102.662C186.738 103.128 186.4 103.791 186.343 104.506C186.286 105.221 186.516 105.929 186.981 106.475M197.31 99.235L199.005 97.7898M190.866 95.1325L191.043 92.9047M200.544 104.612L202.771 104.789M183.025 96.2065L184.194 97.5773M178.52 103.579L180.741 103.764M188.4 117.04L188.57 114.82M183.755 110.791L182.061 112.235" stroke="#D0D5DD" stroke-opacity="0.36" stroke-width="1.5" stroke-linecap="round" stroke-linejoin="round"/>
<path fill-rule="evenodd" clip-rule="evenodd" d="M51.1461 62.204C50.6202 62.0662 50.1707 61.725 49.8963 61.2557C49.622 60.7864 49.5453 60.2273 49.6831 59.7015L52.34 49.5675C52.4779 49.0416 52.819 48.5921 53.2883 48.3177C53.7576 48.0434 54.3167 47.9667 54.8426 48.1045L62.3329 50.0683C62.8588 50.2062 63.3083 50.5473 63.5827 51.0166C63.857 51.4859 63.9337 52.045 63.7958 52.5709L63.0785 55.307C63.7002 55.2862 64.3022 55.0839 64.8104 54.7251C64.925 54.6445 65.0616 54.6011 65.2017 54.6007C65.3419 54.6003 65.4787 54.643 65.5937 54.7231C65.7087 54.8031 65.7964 54.9165 65.8448 55.048C65.8932 55.1795 65.8999 55.3227 65.8642 55.4582L64.3579 61.2037C64.3224 61.3392 64.2461 61.4605 64.1394 61.5512C64.0327 61.6418 63.9007 61.6976 63.7613 61.7107C63.6219 61.7239 63.4818 61.694 63.36 61.6249C63.2381 61.5558 63.1405 61.451 63.0802 61.3246C62.8132 60.7629 62.3878 60.2916 61.8563 59.9687L61.139 62.7049C61.0011 63.2307 60.66 63.6803 60.1907 63.9546C59.7214 64.229 59.1623 64.3056 58.6364 64.1678L51.1461 62.204ZM51.4926 60.8822C51.3173 60.8362 51.1675 60.7225 51.076 60.5661C50.9846 60.4097 50.959 60.2233 51.005 60.048L53.6618 49.914C53.7078 49.7387 53.8215 49.5889 53.9779 49.4974C54.1344 49.406 54.3207 49.3804 54.496 49.4264L61.1051 51.1591C61.2804 51.2051 61.4303 51.3188 61.5217 51.4752C61.6132 51.6316 61.6387 51.818 61.5928 51.9933L58.9359 62.1273C58.89 62.3026 58.7763 62.4524 58.6198 62.5439C58.4634 62.6353 58.277 62.6609 58.1017 62.6149L51.4926 60.8822Z" fill="white" fill-opacity="0.24"/>
</svg>
