<svg width="242" height="303" viewBox="0 0 242 303" fill="none" xmlns="http://www.w3.org/2000/svg">
<path d="M22.6396 216.313C20.5265 218.684 18.1116 218.537 16.8569 218.778C15.5995 219.02 15.6264 219.261 14.9066 220.399C14.8197 220.542 14.7046 220.665 14.5683 220.761C14.432 220.857 14.2775 220.924 14.1143 220.958C13.9511 220.992 13.7826 220.993 13.6192 220.959C13.4559 220.926 13.3011 220.859 13.1645 220.764L10.2565 218.738C10.1199 218.642 10.0042 218.52 9.91649 218.378C9.82875 218.237 9.7708 218.079 9.74617 217.914C9.72154 217.749 9.73074 217.581 9.77322 217.42C9.8157 217.259 9.89057 217.108 9.99325 216.977C10.7478 215.894 11.0237 215.712 10.8396 214.586C10.5873 213.175 9.44891 210.639 11.6979 207.41C12.2516 206.605 12.9661 205.923 13.7964 205.407C14.6267 204.892 15.5548 204.554 16.5222 204.415C17.4896 204.276 18.4753 204.338 19.4172 204.599C20.3591 204.86 21.2368 205.313 21.9949 205.93C22.7531 206.547 23.3752 207.314 23.8221 208.183C24.269 209.052 24.531 210.005 24.5915 210.98C24.6521 211.956 24.5099 212.933 24.174 213.851C23.838 214.769 23.3156 215.607 22.6396 216.313Z" stroke="#D0D5DD" stroke-opacity="0.36" stroke-width="1.5" stroke-linecap="round" stroke-linejoin="round"/>
<path d="M10.0675 218.517L8.91519 220.171C8.60043 220.623 8.5937 221.169 8.90332 221.385L11.1494 222.949C11.4612 223.167 11.9709 222.969 12.2849 222.518L13.4372 220.864M18.9318 207.565C18.2856 207.115 17.4872 206.94 16.7122 207.079C15.9373 207.218 15.2492 207.659 14.7991 208.305M25.3618 217.257L27.3683 218.655M27.9241 209.273L30.339 208.841M20.5525 222.187L20.9851 224.601M24.601 201.246L23.4707 202.868M15.5186 198.515L15.9398 200.924M3.97586 212.753L6.38013 212.315M9.31864 206.081L7.31324 204.684" stroke="#D0D5DD" stroke-opacity="0.36" stroke-width="1.5" stroke-linecap="round" stroke-linejoin="round"/>
<path fill-rule="evenodd" clip-rule="evenodd" d="M23.9932 51.75C23.9932 51.1533 24.2302 50.581 24.6522 50.159C25.0741 49.7371 25.6464 49.5 26.2432 49.5H37.7432C38.3399 49.5 38.9122 49.7371 39.3342 50.159C39.7561 50.581 39.9932 51.1533 39.9932 51.75V60.25C39.9932 60.8467 39.7561 61.419 39.3342 61.841C38.9122 62.2629 38.3399 62.5 37.7432 62.5H34.6382C34.8334 63.1543 35.2158 63.7373 35.7382 64.177C35.8557 64.2762 35.9398 64.4092 35.9792 64.5579C36.0186 64.7065 36.0114 64.8637 35.9584 65.0081C35.9055 65.1526 35.8094 65.2772 35.6833 65.3652C35.5571 65.4532 35.407 65.5002 35.2532 65.5H28.7332C28.5794 65.5 28.4294 65.4528 28.3034 65.3647C28.1774 65.2767 28.0815 65.152 28.0287 65.0077C27.9759 64.8633 27.9687 64.7062 28.0082 64.5576C28.0476 64.4091 28.1317 64.2762 28.2492 64.177C28.7712 63.7371 29.1532 63.1542 29.3482 62.5H26.2432C25.6464 62.5 25.0741 62.2629 24.6522 61.841C24.2302 61.419 23.9932 60.8467 23.9932 60.25V51.75ZM25.4932 51.75C25.4932 51.5511 25.5722 51.3603 25.7128 51.2197C25.8535 51.079 26.0443 51 26.2432 51H37.7432C37.9421 51 38.1328 51.079 38.2735 51.2197C38.4141 51.3603 38.4932 51.5511 38.4932 51.75V59.25C38.4932 59.4489 38.4141 59.6397 38.2735 59.7803C38.1328 59.921 37.9421 60 37.7432 60H26.2432C26.0443 60 25.8535 59.921 25.7128 59.7803C25.5722 59.6397 25.4932 59.4489 25.4932 59.25V51.75Z" fill="white" fill-opacity="0.24"/>
<path d="M221.738 291.247C221.534 291.044 221.348 290.859 221.146 290.684C218.259 288.099 215.892 288.651 214.816 289.255C214.574 289.392 214.309 289.58 214.045 289.798C213.868 289.668 213.657 289.647 213.543 289.76L213.469 289.833C213.05 289.738 212.609 289.752 212.185 289.926C210.978 290.422 210.493 291.633 210.493 293.167C210.493 295.772 212.011 297.68 212.851 299.026C213.403 299.91 214.115 301.141 214.115 301.916H214.713C214.713 300.973 213.959 299.674 213.359 298.714C212.517 297.365 211.091 295.603 211.091 293.167C211.091 291.881 211.437 290.873 212.414 290.472C212.578 290.406 212.753 290.37 212.93 290.367L212.894 290.404C212.78 290.517 212.801 290.726 212.932 290.901C212.712 291.164 212.522 291.425 212.384 291.666C211.775 292.732 211.217 295.079 213.825 297.941C214.005 298.143 214.191 298.327 214.394 298.528C218.993 303.087 222.529 302.832 224.305 301.072C226.08 299.312 226.338 295.807 221.738 291.247ZM220.411 290.696C219.591 291.061 218.84 291.644 218.111 292.221L215.383 289.516C216.519 288.997 218.231 288.885 220.411 290.696ZM214.93 289.761L217.724 292.53C217.355 292.839 216.999 293.163 216.658 293.501C216.32 293.836 215.996 294.186 215.688 294.549L212.894 291.779C213.34 291.088 214.232 290.203 214.93 289.761ZM213.837 297.212C212.01 295.052 212.124 293.355 212.647 292.228L215.375 294.932C214.794 295.654 214.206 296.4 213.837 297.212ZM223.955 300.725C221.906 302.756 218.376 301.782 214.743 298.181C214.56 297.999 214.38 297.814 214.203 297.624C214.548 296.753 215.239 295.888 215.873 295.1C216.173 294.726 216.614 294.237 217.012 293.843C217.408 293.451 217.902 293.013 218.279 292.715C219.075 292.085 219.946 291.4 220.827 291.059C221.007 291.222 221.224 291.431 221.388 291.594C225.021 295.195 226.004 298.693 223.955 300.725Z" fill="white" fill-opacity="0.32"/>
<path d="M214.878 289.364C215.396 289.073 216.231 288.792 217.289 288.898C218.346 289.005 219.636 289.5 221.063 290.777L221.064 290.778C221.262 290.951 221.445 291.132 221.65 291.336C223.94 293.605 225.006 295.6 225.289 297.231C225.571 298.858 225.074 300.133 224.217 300.983C223.359 301.834 222.072 302.326 220.43 302.047C218.783 301.767 216.77 300.709 214.481 298.439C214.278 298.238 214.095 298.057 213.919 297.858L213.918 297.857L213.686 297.594C212.568 296.284 212.123 295.099 212.022 294.117C211.929 293.2 212.134 292.452 212.384 291.936L212.493 291.729C212.626 291.496 212.811 291.24 213.028 290.981L213.092 290.905L213.032 290.826C212.978 290.754 212.951 290.68 212.945 290.619C212.94 290.559 212.957 290.518 212.981 290.493L213.019 290.456L213.24 290.238L212.929 290.242C212.784 290.244 212.641 290.267 212.503 290.309L212.367 290.356C211.316 290.788 210.966 291.868 210.966 293.167C210.966 295.648 212.422 297.449 213.253 298.78C213.552 299.26 213.887 299.82 214.147 300.375C214.385 300.882 214.553 301.373 214.582 301.791H214.233C214.201 301.396 214.026 300.924 213.803 300.458C213.553 299.937 213.234 299.403 212.957 298.96C212.107 297.599 210.618 295.727 210.618 293.167C210.618 291.654 211.095 290.509 212.232 290.042H212.233C212.629 289.879 213.044 289.865 213.442 289.955L213.509 289.97L213.558 289.922L213.631 289.849C213.656 289.824 213.698 289.807 213.76 289.812C213.822 289.818 213.898 289.846 213.971 289.899L214.049 289.957L214.124 289.895C214.385 289.68 214.644 289.496 214.878 289.364ZM220.782 290.942C219.88 291.292 218.994 291.99 218.201 292.617C217.82 292.918 217.323 293.359 216.924 293.754C216.523 294.151 216.079 294.644 215.775 295.021C215.145 295.805 214.44 296.686 214.087 297.578L214.059 297.652L214.112 297.71C214.29 297.9 214.47 298.088 214.655 298.271V298.27C216.48 300.079 218.289 301.238 219.91 301.686C221.535 302.134 222.979 301.868 224.043 300.813C225.107 299.759 225.376 298.326 224.923 296.714C224.471 295.107 223.301 293.314 221.477 291.506C221.312 291.342 221.093 291.131 220.911 290.967L220.854 290.915L220.782 290.942ZM212.534 292.176C212.263 292.759 212.098 293.49 212.237 294.353C212.376 295.215 212.818 296.199 213.742 297.293L213.869 297.444L213.951 297.264C214.312 296.468 214.891 295.735 215.473 295.011L215.543 294.923L215.463 294.843L212.735 292.14L212.608 292.014L212.534 292.176ZM214.863 289.655C214.15 290.106 213.245 291.005 212.789 291.712L212.734 291.797L212.806 291.868L215.6 294.638L215.695 294.732L215.783 294.63C216.089 294.27 216.411 293.923 216.746 293.59L216.745 293.589C217.084 293.253 217.439 292.932 217.805 292.626L217.909 292.538L217.812 292.441L215.019 289.673L214.947 289.603L214.863 289.655ZM217.525 289.109C216.655 288.972 215.918 289.134 215.331 289.402L215.166 289.478L215.295 289.605L218.022 292.31L218.102 292.388L218.188 292.318C218.919 291.741 219.659 291.168 220.462 290.811L220.646 290.729L220.491 290.6C219.388 289.683 218.395 289.247 217.525 289.109Z" stroke="#D0D5DD" stroke-opacity="0.36" stroke-width="0.25"/>
<mask id="path-6-inside-1_21_298" fill="white">
<path d="M240.79 7.5H234.243C234.243 3.6205 232.591 3.6205 230.993 3.6205C229.456 3.6205 228.003 3.6205 228.003 0H227.743C227.743 3.8795 229.396 3.8795 230.993 3.8795C232.531 3.8795 233.983 3.8795 233.983 7.5H227.196C226.808 7.5 226.493 7.837 226.493 8.2495V14.2505C226.493 14.6655 226.808 15 227.196 15H240.79C241.178 15 241.493 14.6655 241.493 14.2505V8.2495C241.493 7.837 241.178 7.5 240.79 7.5ZM239.762 8.0005H240.224C240.583 8.0005 240.583 8.501 240.224 8.501H239.762C239.403 8.501 239.403 8.0005 239.762 8.0005ZM238.263 8.0005H238.725C239.084 8.0005 239.084 8.501 238.725 8.501H238.263C237.904 8.501 237.904 8.0005 238.263 8.0005ZM238.993 10.7495V11.25C238.993 11.3892 238.881 11.5015 238.744 11.5015H238.244C238.211 11.5016 238.178 11.4951 238.147 11.4825C238.117 11.4699 238.089 11.4514 238.066 11.428C238.042 11.4046 238.024 11.3769 238.011 11.3463C237.999 11.3158 237.992 11.283 237.992 11.25V10.7495C237.992 10.6128 238.104 10.5005 238.244 10.5005H238.744C238.81 10.5008 238.873 10.5271 238.92 10.5737C238.967 10.6204 238.993 10.6835 238.993 10.7495ZM237.494 9.2505C237.494 9.11125 237.606 9.0015 237.743 9.0015H238.244C238.38 9.0015 238.493 9.11125 238.493 9.2505V9.751C238.492 9.81696 238.466 9.88014 238.419 9.92678C238.373 9.97342 238.31 9.99974 238.244 10H237.743C237.677 9.99974 237.614 9.97342 237.567 9.92678C237.521 9.88014 237.494 9.81696 237.494 9.751V9.2505ZM236.762 8.0005H237.223C237.582 8.0005 237.582 8.501 237.223 8.501H236.762C236.403 8.501 236.403 8.0005 236.762 8.0005ZM237.494 10.7495V11.25C237.494 11.3892 237.382 11.5015 237.243 11.5015H236.742C236.605 11.5015 236.493 11.3892 236.493 11.25V10.7495C236.493 10.6835 236.52 10.6204 236.566 10.5737C236.613 10.5271 236.676 10.5008 236.742 10.5005H237.243C237.382 10.5005 237.494 10.6128 237.494 10.7495ZM236.243 9.0015H236.742C236.775 9.00117 236.808 9.00737 236.838 9.01973C236.869 9.0321 236.896 9.05039 236.92 9.07354C236.943 9.0967 236.962 9.12426 236.974 9.15463C236.987 9.18501 236.994 9.21759 236.994 9.2505V9.751C236.994 9.88775 236.881 10 236.742 10H236.243C236.177 10.0001 236.113 9.97389 236.066 9.92722C236.019 9.88054 235.993 9.81717 235.993 9.751V9.2505C235.993 9.21769 235.999 9.18519 236.012 9.15488C236.024 9.12458 236.043 9.09706 236.066 9.07391C236.089 9.05077 236.117 9.03245 236.147 9.02003C236.178 9.0076 236.21 9.0013 236.243 9.0015ZM235.493 12.251C235.493 12.1118 235.606 11.9995 235.744 11.9995H236.243C236.381 11.9995 236.493 12.1118 236.493 12.251V12.7515C236.493 12.8883 236.381 13.0005 236.243 13.0005H235.744C235.677 13.0006 235.614 12.9744 235.567 12.9277C235.52 12.881 235.494 12.8177 235.493 12.7515V12.251ZM235.243 11.5015C235.21 11.5014 235.178 11.4949 235.147 11.4822C235.117 11.4695 235.089 11.451 235.066 11.4276C235.043 11.4043 235.024 11.3765 235.012 11.3461C234.999 11.3156 234.993 11.283 234.993 11.25V10.7495C234.993 10.6128 235.105 10.5005 235.243 10.5005H235.744C235.81 10.5008 235.873 10.5271 235.919 10.5737C235.966 10.6204 235.992 10.6835 235.993 10.7495V11.25C235.993 11.3892 235.88 11.5015 235.744 11.5015H235.243ZM235.263 8.0005H235.724C236.083 8.0005 236.083 8.501 235.724 8.501H235.263C234.904 8.501 234.904 8.0005 235.263 8.0005ZM234.494 9.2505C234.494 9.11125 234.606 9.0015 234.743 9.0015H235.243C235.276 9.0013 235.309 9.0076 235.339 9.02003C235.369 9.03245 235.397 9.05077 235.42 9.07391C235.443 9.09706 235.462 9.12458 235.474 9.15488C235.487 9.18519 235.493 9.21769 235.493 9.2505V9.751C235.493 9.88775 235.381 10 235.243 10H234.743C234.677 9.99974 234.614 9.97342 234.567 9.92678C234.52 9.88014 234.494 9.81696 234.494 9.751V9.2505ZM234.993 12.251V12.7515C234.993 12.8883 234.881 13.0005 234.743 13.0005H234.243C234.177 13.0006 234.114 12.9744 234.067 12.9277C234.02 12.881 233.993 12.8177 233.993 12.7515V12.251C233.993 12.1118 234.105 11.9995 234.243 11.9995H234.743C234.881 11.9995 234.993 12.1118 234.993 12.251ZM234.494 11.25C234.494 11.3892 234.381 11.5015 234.243 11.5015H233.743C233.71 11.5014 233.677 11.4949 233.647 11.4822C233.617 11.4695 233.589 11.451 233.566 11.4276C233.542 11.4043 233.524 11.3765 233.511 11.3461C233.499 11.3156 233.493 11.283 233.493 11.25V10.7495C233.493 10.6128 233.605 10.5005 233.743 10.5005H234.243C234.381 10.5005 234.494 10.6128 234.494 10.7495V11.25ZM233.762 8.0005H234.224C234.583 8.0005 234.583 8.501 234.224 8.501H233.762C233.404 8.501 233.404 8.0005 233.762 8.0005ZM232.993 9.2505C232.993 9.21769 233 9.18519 233.012 9.15488C233.025 9.12458 233.043 9.09706 233.067 9.07391C233.09 9.05077 233.118 9.03245 233.148 9.02003C233.178 9.0076 233.211 9.0013 233.244 9.0015H233.743C233.776 9.0013 233.808 9.0076 233.839 9.02003C233.869 9.03245 233.897 9.05077 233.92 9.07391C233.943 9.09706 233.962 9.12458 233.974 9.15488C233.987 9.18519 233.993 9.21769 233.993 9.2505V9.751C233.993 9.88775 233.881 10 233.743 10H233.244C233.177 10.0001 233.114 9.97389 233.067 9.92722C233.02 9.88054 232.994 9.81717 232.993 9.751V9.2505ZM233.493 12.251V12.7515C233.492 12.8175 233.466 12.8806 233.419 12.9273C233.373 12.9739 233.31 13.0002 233.244 13.0005H232.743C232.677 13.0006 232.613 12.9744 232.567 12.9277C232.52 12.881 232.493 12.8177 232.493 12.7515V12.251C232.493 12.1118 232.605 11.9995 232.743 11.9995H233.244C233.38 11.9995 233.493 12.1118 233.493 12.251ZM232.993 11.25C232.993 11.3892 232.881 11.5015 232.743 11.5015H232.243C232.106 11.5015 231.994 11.3892 231.994 11.25V10.7495C231.994 10.6835 232.02 10.6204 232.067 10.5737C232.114 10.5271 232.177 10.5008 232.243 10.5005H232.743C232.881 10.5005 232.993 10.6128 232.993 10.7495V11.25ZM232.262 8.0005H232.724C233.083 8.0005 233.083 8.501 232.724 8.501H232.262C231.903 8.501 231.903 8.0005 232.262 8.0005ZM231.493 9.2505C231.493 9.21769 231.5 9.18519 231.512 9.15488C231.525 9.12458 231.543 9.09706 231.566 9.07391C231.59 9.05077 231.617 9.03245 231.648 9.02003C231.678 9.0076 231.711 9.0013 231.743 9.0015H232.243C232.275 9.0013 232.308 9.0076 232.338 9.02003C232.369 9.03245 232.396 9.05077 232.42 9.07391C232.443 9.09706 232.461 9.12458 232.474 9.15488C232.486 9.18519 232.493 9.21769 232.493 9.2505V9.751C232.493 9.88775 232.381 10 232.243 10H231.743C231.677 10.0001 231.614 9.97389 231.567 9.92722C231.52 9.88054 231.493 9.81717 231.493 9.751V9.2505ZM230.762 8.0005H231.225C231.582 8.0005 231.582 8.501 231.225 8.501H230.762C230.403 8.501 230.403 8.0005 230.762 8.0005ZM231.493 10.7495V11.25C231.493 11.3892 231.381 11.5015 231.243 11.5015H230.744C230.711 11.5014 230.678 11.4949 230.648 11.4822C230.617 11.4695 230.59 11.451 230.566 11.4276C230.543 11.4043 230.525 11.3765 230.512 11.3461C230.5 11.3156 230.493 11.283 230.493 11.25V10.7495C230.493 10.6128 230.606 10.5005 230.744 10.5005H231.243C231.381 10.5005 231.493 10.6128 231.493 10.7495ZM230.243 9.0015H230.744C230.776 9.0013 230.809 9.00761 230.839 9.02005C230.869 9.03249 230.897 9.05082 230.92 9.07399C230.943 9.09715 230.962 9.12468 230.974 9.15498C230.987 9.18528 230.993 9.21774 230.993 9.2505V9.751C230.993 9.81702 230.966 9.88031 230.92 9.927C230.873 9.97368 230.81 9.99993 230.744 10H230.243C230.177 10.0001 230.113 9.97389 230.067 9.92722C230.02 9.88054 229.993 9.81717 229.993 9.751V9.2505C229.993 9.21769 229.999 9.18519 230.012 9.15488C230.024 9.12458 230.043 9.09706 230.066 9.07391C230.089 9.05077 230.117 9.03245 230.147 9.02003C230.178 9.0076 230.21 9.0013 230.243 9.0015ZM229.262 8.0005H229.724C230.083 8.0005 230.083 8.501 229.724 8.501H229.262C228.904 8.501 228.904 8.0005 229.262 8.0005ZM229.993 10.7495V11.25C229.993 11.3892 229.881 11.5015 229.743 11.5015H229.243C229.21 11.5014 229.178 11.4949 229.147 11.4822C229.117 11.4695 229.089 11.451 229.066 11.4276C229.043 11.4043 229.025 11.3765 229.012 11.3461C228.999 11.3156 228.993 11.283 228.993 11.25V10.7495C228.993 10.6128 229.105 10.5005 229.243 10.5005H229.743C229.881 10.5005 229.993 10.6128 229.993 10.7495ZM228.743 9.0015H229.243C229.276 9.0013 229.309 9.0076 229.339 9.02003C229.369 9.03245 229.397 9.05077 229.42 9.07391C229.444 9.09706 229.462 9.12458 229.475 9.15488C229.487 9.18519 229.494 9.21769 229.494 9.2505V9.751C229.494 9.88775 229.381 10 229.243 10H228.743C228.677 10.0001 228.613 9.97389 228.566 9.92722C228.519 9.88054 228.493 9.81717 228.493 9.751V9.2505C228.493 9.21769 228.499 9.18519 228.512 9.15488C228.524 9.12458 228.543 9.09706 228.566 9.07391C228.589 9.05077 228.617 9.03245 228.647 9.02003C228.678 9.0076 228.71 9.0013 228.743 9.0015ZM227.763 8.0005H228.224C228.583 8.0005 228.583 8.501 228.224 8.501H227.763C227.404 8.501 227.404 8.0005 227.763 8.0005ZM226.994 9.2505C226.993 9.21774 227 9.18528 227.012 9.15498C227.025 9.12468 227.043 9.09715 227.066 9.07399C227.089 9.05082 227.117 9.03249 227.147 9.02005C227.177 9.00761 227.21 9.0013 227.243 9.0015H227.743C227.776 9.0013 227.809 9.0076 227.839 9.02003C227.869 9.03245 227.897 9.05077 227.92 9.07391C227.943 9.09706 227.962 9.12458 227.974 9.15488C227.987 9.18519 227.993 9.21769 227.993 9.2505V9.751C227.993 9.88775 227.881 10 227.743 10H227.243C227.177 9.99993 227.113 9.97368 227.067 9.927C227.02 9.88031 226.994 9.81702 226.994 9.751V9.2505ZM226.994 10.7495C226.994 10.6128 227.096 10.5005 227.224 10.5005H228.262C228.39 10.5005 228.493 10.6128 228.493 10.7495V11.25C228.493 11.3892 228.39 11.5015 228.262 11.5015H227.224C227.096 11.5015 226.994 11.3892 226.994 11.25V10.7495ZM228.493 14.2505C228.493 14.3872 228.39 14.4995 228.262 14.4995H227.224C227.096 14.4995 226.994 14.3872 226.994 14.2505V13.75C226.994 13.6132 227.096 13.501 227.224 13.501H228.262C228.39 13.501 228.493 13.6132 228.493 13.75V14.2505ZM228.771 13.0005H227.216C227.093 13.0005 226.994 12.8883 226.994 12.7515V12.251C226.994 12.1118 227.093 11.9995 227.216 11.9995H228.771C228.893 11.9995 228.993 12.1118 228.993 12.251V12.7515C228.993 12.8883 228.893 13.0005 228.771 13.0005ZM229.993 14.2505C229.993 14.3872 229.881 14.4995 229.743 14.4995H229.243C229.177 14.4996 229.114 14.4734 229.067 14.4267C229.02 14.38 228.993 14.3167 228.993 14.2505V13.75C228.993 13.7172 229 13.6847 229.012 13.6544C229.025 13.6241 229.043 13.5966 229.066 13.5734C229.09 13.5503 229.117 13.532 229.148 13.5195C229.178 13.5071 229.211 13.5008 229.243 13.501H229.743C229.775 13.5008 229.808 13.5071 229.838 13.5195C229.869 13.532 229.896 13.5503 229.92 13.5734C229.943 13.5966 229.961 13.6241 229.974 13.6544C229.986 13.6847 229.993 13.7172 229.993 13.75V14.2505ZM230.243 13.0005H229.743C229.677 13.0002 229.614 12.9739 229.567 12.9273C229.52 12.8806 229.494 12.8175 229.494 12.7515V12.251C229.494 12.1118 229.606 11.9995 229.743 11.9995H230.243C230.381 11.9995 230.493 12.1118 230.493 12.251V12.7515C230.493 12.8883 230.381 13.0005 230.243 13.0005ZM231.493 14.2505C231.493 14.3872 231.381 14.4995 231.243 14.4995H230.744C230.677 14.4996 230.614 14.4734 230.567 14.4267C230.52 14.38 230.494 14.3167 230.493 14.2505V13.75C230.493 13.7172 230.5 13.6847 230.512 13.6544C230.525 13.6241 230.543 13.5966 230.567 13.5734C230.59 13.5503 230.618 13.532 230.648 13.5195C230.678 13.5071 230.711 13.5008 230.744 13.501H231.243C231.276 13.5008 231.308 13.5071 231.339 13.5195C231.369 13.532 231.397 13.5503 231.42 13.5734C231.443 13.5966 231.462 13.6241 231.474 13.6544C231.487 13.6847 231.493 13.7172 231.493 13.75V14.2505ZM231.743 13.0005H231.243C231.177 13.0006 231.113 12.9744 231.066 12.9277C231.019 12.881 230.993 12.8177 230.993 12.7515V12.251C230.993 12.1118 231.105 11.9995 231.243 11.9995H231.743C231.881 11.9995 231.994 12.1118 231.994 12.251V12.7515C231.994 12.8883 231.881 13.0005 231.743 13.0005ZM236.994 14.2505C236.994 14.3872 236.901 14.4995 236.784 14.4995H232.201C232.086 14.4995 231.994 14.3872 231.994 14.2505V13.75C231.994 13.6132 232.086 13.501 232.201 13.501H236.784C236.901 13.501 236.994 13.6132 236.994 13.75V14.2505ZM236.994 12.7515V12.251C236.994 12.1118 237.106 11.9995 237.243 11.9995H237.743C237.88 11.9995 237.992 12.1118 237.992 12.251V12.7515C237.992 12.8175 237.966 12.8806 237.919 12.9273C237.872 12.9739 237.809 13.0002 237.743 13.0005H237.243C237.177 13.0002 237.114 12.9739 237.067 12.9273C237.02 12.8806 236.994 12.8175 236.994 12.7515ZM238.493 14.2505C238.492 14.3165 238.466 14.3796 238.419 14.4263C238.373 14.4729 238.31 14.4992 238.244 14.4995H237.743C237.677 14.4992 237.614 14.4729 237.567 14.4263C237.521 14.3796 237.494 14.3165 237.494 14.2505V13.75C237.494 13.6108 237.606 13.501 237.743 13.501H238.244C238.38 13.501 238.493 13.6108 238.493 13.75V14.2505ZM240.993 14.2505C240.993 14.3872 240.893 14.4995 240.77 14.4995H239.215C239.093 14.4995 238.993 14.3872 238.993 14.2505V13.75C238.993 13.6108 239.093 13.501 239.215 13.501H240.771C240.893 13.501 240.993 13.6108 240.993 13.75L240.993 14.2505ZM240.993 12.7515C240.993 12.8883 240.902 13.0005 240.788 13.0005H238.698C238.586 13.0005 238.493 12.8883 238.493 12.7515V12.251C238.493 12.1118 238.586 11.9995 238.698 11.9995H240.788C240.902 11.9995 240.993 12.1118 240.993 12.251V12.7515ZM240.993 11.25C240.993 11.3892 240.89 11.5015 240.763 11.5015H239.723C239.596 11.5015 239.494 11.3892 239.494 11.25V10.7495C239.494 10.6128 239.596 10.5005 239.723 10.5005H240.763C240.89 10.5005 240.993 10.6128 240.993 10.7495V11.25ZM240.993 9.751C240.993 9.88775 240.893 10 240.77 10H239.215C239.093 10 238.993 9.88775 238.993 9.751V9.2505C238.993 9.11125 239.093 9.0015 239.215 9.0015H240.771C240.893 9.0015 240.993 9.11125 240.993 9.2505L240.993 9.751Z"/>
</mask>
<path d="M240.79 7.5H234.243C234.243 3.6205 232.591 3.6205 230.993 3.6205C229.456 3.6205 228.003 3.6205 228.003 0H227.743C227.743 3.8795 229.396 3.8795 230.993 3.8795C232.531 3.8795 233.983 3.8795 233.983 7.5H227.196C226.808 7.5 226.493 7.837 226.493 8.2495V14.2505C226.493 14.6655 226.808 15 227.196 15H240.79C241.178 15 241.493 14.6655 241.493 14.2505V8.2495C241.493 7.837 241.178 7.5 240.79 7.5ZM239.762 8.0005H240.224C240.583 8.0005 240.583 8.501 240.224 8.501H239.762C239.403 8.501 239.403 8.0005 239.762 8.0005ZM238.263 8.0005H238.725C239.084 8.0005 239.084 8.501 238.725 8.501H238.263C237.904 8.501 237.904 8.0005 238.263 8.0005ZM238.993 10.7495V11.25C238.993 11.3892 238.881 11.5015 238.744 11.5015H238.244C238.211 11.5016 238.178 11.4951 238.147 11.4825C238.117 11.4699 238.089 11.4514 238.066 11.428C238.042 11.4046 238.024 11.3769 238.011 11.3463C237.999 11.3158 237.992 11.283 237.992 11.25V10.7495C237.992 10.6128 238.104 10.5005 238.244 10.5005H238.744C238.81 10.5008 238.873 10.5271 238.92 10.5737C238.967 10.6204 238.993 10.6835 238.993 10.7495ZM237.494 9.2505C237.494 9.11125 237.606 9.0015 237.743 9.0015H238.244C238.38 9.0015 238.493 9.11125 238.493 9.2505V9.751C238.492 9.81696 238.466 9.88014 238.419 9.92678C238.373 9.97342 238.31 9.99974 238.244 10H237.743C237.677 9.99974 237.614 9.97342 237.567 9.92678C237.521 9.88014 237.494 9.81696 237.494 9.751V9.2505ZM236.762 8.0005H237.223C237.582 8.0005 237.582 8.501 237.223 8.501H236.762C236.403 8.501 236.403 8.0005 236.762 8.0005ZM237.494 10.7495V11.25C237.494 11.3892 237.382 11.5015 237.243 11.5015H236.742C236.605 11.5015 236.493 11.3892 236.493 11.25V10.7495C236.493 10.6835 236.52 10.6204 236.566 10.5737C236.613 10.5271 236.676 10.5008 236.742 10.5005H237.243C237.382 10.5005 237.494 10.6128 237.494 10.7495ZM236.243 9.0015H236.742C236.775 9.00117 236.808 9.00737 236.838 9.01973C236.869 9.0321 236.896 9.05039 236.92 9.07354C236.943 9.0967 236.962 9.12426 236.974 9.15463C236.987 9.18501 236.994 9.21759 236.994 9.2505V9.751C236.994 9.88775 236.881 10 236.742 10H236.243C236.177 10.0001 236.113 9.97389 236.066 9.92722C236.019 9.88054 235.993 9.81717 235.993 9.751V9.2505C235.993 9.21769 235.999 9.18519 236.012 9.15488C236.024 9.12458 236.043 9.09706 236.066 9.07391C236.089 9.05077 236.117 9.03245 236.147 9.02003C236.178 9.0076 236.21 9.0013 236.243 9.0015ZM235.493 12.251C235.493 12.1118 235.606 11.9995 235.744 11.9995H236.243C236.381 11.9995 236.493 12.1118 236.493 12.251V12.7515C236.493 12.8883 236.381 13.0005 236.243 13.0005H235.744C235.677 13.0006 235.614 12.9744 235.567 12.9277C235.52 12.881 235.494 12.8177 235.493 12.7515V12.251ZM235.243 11.5015C235.21 11.5014 235.178 11.4949 235.147 11.4822C235.117 11.4695 235.089 11.451 235.066 11.4276C235.043 11.4043 235.024 11.3765 235.012 11.3461C234.999 11.3156 234.993 11.283 234.993 11.25V10.7495C234.993 10.6128 235.105 10.5005 235.243 10.5005H235.744C235.81 10.5008 235.873 10.5271 235.919 10.5737C235.966 10.6204 235.992 10.6835 235.993 10.7495V11.25C235.993 11.3892 235.88 11.5015 235.744 11.5015H235.243ZM235.263 8.0005H235.724C236.083 8.0005 236.083 8.501 235.724 8.501H235.263C234.904 8.501 234.904 8.0005 235.263 8.0005ZM234.494 9.2505C234.494 9.11125 234.606 9.0015 234.743 9.0015H235.243C235.276 9.0013 235.309 9.0076 235.339 9.02003C235.369 9.03245 235.397 9.05077 235.42 9.07391C235.443 9.09706 235.462 9.12458 235.474 9.15488C235.487 9.18519 235.493 9.21769 235.493 9.2505V9.751C235.493 9.88775 235.381 10 235.243 10H234.743C234.677 9.99974 234.614 9.97342 234.567 9.92678C234.52 9.88014 234.494 9.81696 234.494 9.751V9.2505ZM234.993 12.251V12.7515C234.993 12.8883 234.881 13.0005 234.743 13.0005H234.243C234.177 13.0006 234.114 12.9744 234.067 12.9277C234.02 12.881 233.993 12.8177 233.993 12.7515V12.251C233.993 12.1118 234.105 11.9995 234.243 11.9995H234.743C234.881 11.9995 234.993 12.1118 234.993 12.251ZM234.494 11.25C234.494 11.3892 234.381 11.5015 234.243 11.5015H233.743C233.71 11.5014 233.677 11.4949 233.647 11.4822C233.617 11.4695 233.589 11.451 233.566 11.4276C233.542 11.4043 233.524 11.3765 233.511 11.3461C233.499 11.3156 233.493 11.283 233.493 11.25V10.7495C233.493 10.6128 233.605 10.5005 233.743 10.5005H234.243C234.381 10.5005 234.494 10.6128 234.494 10.7495V11.25ZM233.762 8.0005H234.224C234.583 8.0005 234.583 8.501 234.224 8.501H233.762C233.404 8.501 233.404 8.0005 233.762 8.0005ZM232.993 9.2505C232.993 9.21769 233 9.18519 233.012 9.15488C233.025 9.12458 233.043 9.09706 233.067 9.07391C233.09 9.05077 233.118 9.03245 233.148 9.02003C233.178 9.0076 233.211 9.0013 233.244 9.0015H233.743C233.776 9.0013 233.808 9.0076 233.839 9.02003C233.869 9.03245 233.897 9.05077 233.92 9.07391C233.943 9.09706 233.962 9.12458 233.974 9.15488C233.987 9.18519 233.993 9.21769 233.993 9.2505V9.751C233.993 9.88775 233.881 10 233.743 10H233.244C233.177 10.0001 233.114 9.97389 233.067 9.92722C233.02 9.88054 232.994 9.81717 232.993 9.751V9.2505ZM233.493 12.251V12.7515C233.492 12.8175 233.466 12.8806 233.419 12.9273C233.373 12.9739 233.31 13.0002 233.244 13.0005H232.743C232.677 13.0006 232.613 12.9744 232.567 12.9277C232.52 12.881 232.493 12.8177 232.493 12.7515V12.251C232.493 12.1118 232.605 11.9995 232.743 11.9995H233.244C233.38 11.9995 233.493 12.1118 233.493 12.251ZM232.993 11.25C232.993 11.3892 232.881 11.5015 232.743 11.5015H232.243C232.106 11.5015 231.994 11.3892 231.994 11.25V10.7495C231.994 10.6835 232.02 10.6204 232.067 10.5737C232.114 10.5271 232.177 10.5008 232.243 10.5005H232.743C232.881 10.5005 232.993 10.6128 232.993 10.7495V11.25ZM232.262 8.0005H232.724C233.083 8.0005 233.083 8.501 232.724 8.501H232.262C231.903 8.501 231.903 8.0005 232.262 8.0005ZM231.493 9.2505C231.493 9.21769 231.5 9.18519 231.512 9.15488C231.525 9.12458 231.543 9.09706 231.566 9.07391C231.59 9.05077 231.617 9.03245 231.648 9.02003C231.678 9.0076 231.711 9.0013 231.743 9.0015H232.243C232.275 9.0013 232.308 9.0076 232.338 9.02003C232.369 9.03245 232.396 9.05077 232.42 9.07391C232.443 9.09706 232.461 9.12458 232.474 9.15488C232.486 9.18519 232.493 9.21769 232.493 9.2505V9.751C232.493 9.88775 232.381 10 232.243 10H231.743C231.677 10.0001 231.614 9.97389 231.567 9.92722C231.52 9.88054 231.493 9.81717 231.493 9.751V9.2505ZM230.762 8.0005H231.225C231.582 8.0005 231.582 8.501 231.225 8.501H230.762C230.403 8.501 230.403 8.0005 230.762 8.0005ZM231.493 10.7495V11.25C231.493 11.3892 231.381 11.5015 231.243 11.5015H230.744C230.711 11.5014 230.678 11.4949 230.648 11.4822C230.617 11.4695 230.59 11.451 230.566 11.4276C230.543 11.4043 230.525 11.3765 230.512 11.3461C230.5 11.3156 230.493 11.283 230.493 11.25V10.7495C230.493 10.6128 230.606 10.5005 230.744 10.5005H231.243C231.381 10.5005 231.493 10.6128 231.493 10.7495ZM230.243 9.0015H230.744C230.776 9.0013 230.809 9.00761 230.839 9.02005C230.869 9.03249 230.897 9.05082 230.92 9.07399C230.943 9.09715 230.962 9.12468 230.974 9.15498C230.987 9.18528 230.993 9.21774 230.993 9.2505V9.751C230.993 9.81702 230.966 9.88031 230.92 9.927C230.873 9.97368 230.81 9.99993 230.744 10H230.243C230.177 10.0001 230.113 9.97389 230.067 9.92722C230.02 9.88054 229.993 9.81717 229.993 9.751V9.2505C229.993 9.21769 229.999 9.18519 230.012 9.15488C230.024 9.12458 230.043 9.09706 230.066 9.07391C230.089 9.05077 230.117 9.03245 230.147 9.02003C230.178 9.0076 230.21 9.0013 230.243 9.0015ZM229.262 8.0005H229.724C230.083 8.0005 230.083 8.501 229.724 8.501H229.262C228.904 8.501 228.904 8.0005 229.262 8.0005ZM229.993 10.7495V11.25C229.993 11.3892 229.881 11.5015 229.743 11.5015H229.243C229.21 11.5014 229.178 11.4949 229.147 11.4822C229.117 11.4695 229.089 11.451 229.066 11.4276C229.043 11.4043 229.025 11.3765 229.012 11.3461C228.999 11.3156 228.993 11.283 228.993 11.25V10.7495C228.993 10.6128 229.105 10.5005 229.243 10.5005H229.743C229.881 10.5005 229.993 10.6128 229.993 10.7495ZM228.743 9.0015H229.243C229.276 9.0013 229.309 9.0076 229.339 9.02003C229.369 9.03245 229.397 9.05077 229.42 9.07391C229.444 9.09706 229.462 9.12458 229.475 9.15488C229.487 9.18519 229.494 9.21769 229.494 9.2505V9.751C229.494 9.88775 229.381 10 229.243 10H228.743C228.677 10.0001 228.613 9.97389 228.566 9.92722C228.519 9.88054 228.493 9.81717 228.493 9.751V9.2505C228.493 9.21769 228.499 9.18519 228.512 9.15488C228.524 9.12458 228.543 9.09706 228.566 9.07391C228.589 9.05077 228.617 9.03245 228.647 9.02003C228.678 9.0076 228.71 9.0013 228.743 9.0015ZM227.763 8.0005H228.224C228.583 8.0005 228.583 8.501 228.224 8.501H227.763C227.404 8.501 227.404 8.0005 227.763 8.0005ZM226.994 9.2505C226.993 9.21774 227 9.18528 227.012 9.15498C227.025 9.12468 227.043 9.09715 227.066 9.07399C227.089 9.05082 227.117 9.03249 227.147 9.02005C227.177 9.00761 227.21 9.0013 227.243 9.0015H227.743C227.776 9.0013 227.809 9.0076 227.839 9.02003C227.869 9.03245 227.897 9.05077 227.92 9.07391C227.943 9.09706 227.962 9.12458 227.974 9.15488C227.987 9.18519 227.993 9.21769 227.993 9.2505V9.751C227.993 9.88775 227.881 10 227.743 10H227.243C227.177 9.99993 227.113 9.97368 227.067 9.927C227.02 9.88031 226.994 9.81702 226.994 9.751V9.2505ZM226.994 10.7495C226.994 10.6128 227.096 10.5005 227.224 10.5005H228.262C228.39 10.5005 228.493 10.6128 228.493 10.7495V11.25C228.493 11.3892 228.39 11.5015 228.262 11.5015H227.224C227.096 11.5015 226.994 11.3892 226.994 11.25V10.7495ZM228.493 14.2505C228.493 14.3872 228.39 14.4995 228.262 14.4995H227.224C227.096 14.4995 226.994 14.3872 226.994 14.2505V13.75C226.994 13.6132 227.096 13.501 227.224 13.501H228.262C228.39 13.501 228.493 13.6132 228.493 13.75V14.2505ZM228.771 13.0005H227.216C227.093 13.0005 226.994 12.8883 226.994 12.7515V12.251C226.994 12.1118 227.093 11.9995 227.216 11.9995H228.771C228.893 11.9995 228.993 12.1118 228.993 12.251V12.7515C228.993 12.8883 228.893 13.0005 228.771 13.0005ZM229.993 14.2505C229.993 14.3872 229.881 14.4995 229.743 14.4995H229.243C229.177 14.4996 229.114 14.4734 229.067 14.4267C229.02 14.38 228.993 14.3167 228.993 14.2505V13.75C228.993 13.7172 229 13.6847 229.012 13.6544C229.025 13.6241 229.043 13.5966 229.066 13.5734C229.09 13.5503 229.117 13.532 229.148 13.5195C229.178 13.5071 229.211 13.5008 229.243 13.501H229.743C229.775 13.5008 229.808 13.5071 229.838 13.5195C229.869 13.532 229.896 13.5503 229.92 13.5734C229.943 13.5966 229.961 13.6241 229.974 13.6544C229.986 13.6847 229.993 13.7172 229.993 13.75V14.2505ZM230.243 13.0005H229.743C229.677 13.0002 229.614 12.9739 229.567 12.9273C229.52 12.8806 229.494 12.8175 229.494 12.7515V12.251C229.494 12.1118 229.606 11.9995 229.743 11.9995H230.243C230.381 11.9995 230.493 12.1118 230.493 12.251V12.7515C230.493 12.8883 230.381 13.0005 230.243 13.0005ZM231.493 14.2505C231.493 14.3872 231.381 14.4995 231.243 14.4995H230.744C230.677 14.4996 230.614 14.4734 230.567 14.4267C230.52 14.38 230.494 14.3167 230.493 14.2505V13.75C230.493 13.7172 230.5 13.6847 230.512 13.6544C230.525 13.6241 230.543 13.5966 230.567 13.5734C230.59 13.5503 230.618 13.532 230.648 13.5195C230.678 13.5071 230.711 13.5008 230.744 13.501H231.243C231.276 13.5008 231.308 13.5071 231.339 13.5195C231.369 13.532 231.397 13.5503 231.42 13.5734C231.443 13.5966 231.462 13.6241 231.474 13.6544C231.487 13.6847 231.493 13.7172 231.493 13.75V14.2505ZM231.743 13.0005H231.243C231.177 13.0006 231.113 12.9744 231.066 12.9277C231.019 12.881 230.993 12.8177 230.993 12.7515V12.251C230.993 12.1118 231.105 11.9995 231.243 11.9995H231.743C231.881 11.9995 231.994 12.1118 231.994 12.251V12.7515C231.994 12.8883 231.881 13.0005 231.743 13.0005ZM236.994 14.2505C236.994 14.3872 236.901 14.4995 236.784 14.4995H232.201C232.086 14.4995 231.994 14.3872 231.994 14.2505V13.75C231.994 13.6132 232.086 13.501 232.201 13.501H236.784C236.901 13.501 236.994 13.6132 236.994 13.75V14.2505ZM236.994 12.7515V12.251C236.994 12.1118 237.106 11.9995 237.243 11.9995H237.743C237.88 11.9995 237.992 12.1118 237.992 12.251V12.7515C237.992 12.8175 237.966 12.8806 237.919 12.9273C237.872 12.9739 237.809 13.0002 237.743 13.0005H237.243C237.177 13.0002 237.114 12.9739 237.067 12.9273C237.02 12.8806 236.994 12.8175 236.994 12.7515ZM238.493 14.2505C238.492 14.3165 238.466 14.3796 238.419 14.4263C238.373 14.4729 238.31 14.4992 238.244 14.4995H237.743C237.677 14.4992 237.614 14.4729 237.567 14.4263C237.521 14.3796 237.494 14.3165 237.494 14.2505V13.75C237.494 13.6108 237.606 13.501 237.743 13.501H238.244C238.38 13.501 238.493 13.6108 238.493 13.75V14.2505ZM240.993 14.2505C240.993 14.3872 240.893 14.4995 240.77 14.4995H239.215C239.093 14.4995 238.993 14.3872 238.993 14.2505V13.75C238.993 13.6108 239.093 13.501 239.215 13.501H240.771C240.893 13.501 240.993 13.6108 240.993 13.75L240.993 14.2505ZM240.993 12.7515C240.993 12.8883 240.902 13.0005 240.788 13.0005H238.698C238.586 13.0005 238.493 12.8883 238.493 12.7515V12.251C238.493 12.1118 238.586 11.9995 238.698 11.9995H240.788C240.902 11.9995 240.993 12.1118 240.993 12.251V12.7515ZM240.993 11.25C240.993 11.3892 240.89 11.5015 240.763 11.5015H239.723C239.596 11.5015 239.494 11.3892 239.494 11.25V10.7495C239.494 10.6128 239.596 10.5005 239.723 10.5005H240.763C240.89 10.5005 240.993 10.6128 240.993 10.7495V11.25ZM240.993 9.751C240.993 9.88775 240.893 10 240.77 10H239.215C239.093 10 238.993 9.88775 238.993 9.751V9.2505C238.993 9.11125 239.093 9.0015 239.215 9.0015H240.771C240.893 9.0015 240.993 9.11125 240.993 9.2505L240.993 9.751Z" fill="white" fill-opacity="0.57" stroke="#D0D5DD" stroke-opacity="0.36" stroke-width="0.5" mask="url(#path-6-inside-1_21_298)"/>
</svg>
