<svg width="220" height="276" viewBox="0 0 220 276" fill="none" xmlns="http://www.w3.org/2000/svg">
<path d="M20.6247 197.061C18.6996 199.221 16.4997 199.087 15.3566 199.306C14.2111 199.527 14.2356 199.747 13.5799 200.784C13.5008 200.913 13.3959 201.025 13.2717 201.113C13.1476 201.201 13.0068 201.262 12.8581 201.293C12.7094 201.324 12.5559 201.324 12.4071 201.294C12.2583 201.263 12.1173 201.203 11.9928 201.116L9.34365 199.27C9.21924 199.183 9.11385 199.072 9.03392 198.943C8.954 198.814 8.9012 198.67 8.87876 198.519C8.85632 198.369 8.86471 198.216 8.90341 198.069C8.94211 197.923 9.01031 197.785 9.10385 197.666C9.7912 196.679 10.0426 196.514 9.87486 195.488C9.64504 194.203 8.60795 191.892 10.6568 188.951C11.1612 188.217 11.8121 187.596 12.5685 187.126C13.3249 186.656 14.1704 186.348 15.0517 186.222C15.933 186.095 16.831 186.152 17.6891 186.39C18.5472 186.627 19.3467 187.04 20.0374 187.602C20.728 188.164 21.2948 188.863 21.7019 189.655C22.109 190.447 22.3477 191.314 22.4029 192.203C22.458 193.091 22.3285 193.982 22.0225 194.818C21.7164 195.654 21.2405 196.418 20.6247 197.061Z" stroke="#D0D5DD" stroke-opacity="0.94" stroke-width="1.5" stroke-linecap="round" stroke-linejoin="round"/>
<path d="M9.1716 199.069L8.12183 200.576C7.83509 200.987 7.82896 201.485 8.11102 201.681L10.1572 203.107C10.4413 203.305 10.9056 203.125 11.1916 202.714L12.2414 201.207M17.2469 189.091C16.6582 188.682 15.9309 188.523 15.2249 188.649C14.519 188.775 13.8921 189.177 13.4821 189.766M23.1047 197.921L24.9326 199.194M25.4389 190.647L27.6389 190.254M18.7234 202.413L19.1175 204.612M22.4115 183.335L21.3819 184.813M14.1375 180.847L14.5213 183.042M3.62211 193.817L5.81239 193.419M8.48937 187.74L6.66246 186.467" stroke="#D0D5DD" stroke-opacity="0.94" stroke-width="1.5" stroke-linecap="round" stroke-linejoin="round"/>
<path fill-rule="evenodd" clip-rule="evenodd" d="M21.8577 47.1442C21.8577 46.6006 22.0736 46.0792 22.458 45.6948C22.8424 45.3104 23.3638 45.0945 23.9074 45.0945H34.3839C34.9275 45.0945 35.4489 45.3104 35.8333 45.6948C36.2177 46.0792 36.4337 46.6006 36.4337 47.1442V54.8877C36.4337 55.4313 36.2177 55.9527 35.8333 56.3371C35.4489 56.7215 34.9275 56.9375 34.3839 56.9375H31.5553C31.7331 57.5336 32.0814 58.0646 32.5574 58.4652C32.6644 58.5556 32.7411 58.6768 32.777 58.8122C32.8129 58.9476 32.8062 59.0908 32.758 59.2224C32.7098 59.3539 32.6223 59.4675 32.5073 59.5476C32.3924 59.6278 32.2556 59.6707 32.1155 59.6705H26.1758C26.0358 59.6705 25.8991 59.6275 25.7843 59.5472C25.6695 59.467 25.5822 59.3535 25.5341 59.222C25.486 59.0904 25.4794 58.9473 25.5153 58.812C25.5512 58.6766 25.6279 58.5556 25.7349 58.4652C26.2105 58.0645 26.5585 57.5335 26.7361 56.9375H23.9074C23.3638 56.9375 22.8424 56.7215 22.458 56.3371C22.0736 55.9527 21.8577 55.4313 21.8577 54.8877V47.1442ZM23.2242 47.1442C23.2242 46.963 23.2961 46.7892 23.4243 46.6611C23.5524 46.533 23.7262 46.461 23.9074 46.461H34.3839C34.5651 46.461 34.7389 46.533 34.867 46.6611C34.9952 46.7892 35.0672 46.963 35.0672 47.1442V53.9767C35.0672 54.1579 34.9952 54.3317 34.867 54.4599C34.7389 54.588 34.5651 54.66 34.3839 54.66H23.9074C23.7262 54.66 23.5524 54.588 23.4243 54.4599C23.2961 54.3317 23.2242 54.1579 23.2242 53.9767V47.1442Z" fill="white" fill-opacity="0.89"/>
<path d="M23.9075 45.5945H34.384C34.795 45.5945 35.1891 45.758 35.4797 46.0486C35.7703 46.3392 35.9338 46.7333 35.9338 47.1443V54.8875C35.9338 55.2984 35.7702 55.6925 35.4797 55.9832C35.1891 56.2738 34.795 56.4372 34.384 56.4373H30.884L31.0764 57.0808C31.2821 57.7698 31.6847 58.3832 32.2346 58.8464V58.8474C32.2633 58.8716 32.2836 58.9039 32.2932 58.9402C32.3028 58.9765 32.3013 59.0153 32.2883 59.0505C32.2754 59.0857 32.2517 59.116 32.2209 59.1375C32.1902 59.1588 32.1539 59.1707 32.1165 59.1707H26.176C26.1385 59.1707 26.1013 59.159 26.0706 59.1375C26.0399 59.116 26.0161 59.0857 26.0032 59.0505C25.9903 59.0153 25.9887 58.9765 25.9983 58.9402C26.0079 58.9039 26.0282 58.8707 26.0569 58.8464C26.6068 58.3829 27.0097 57.7691 27.2151 57.0798L27.4065 56.4373H23.9075C23.4965 56.4373 23.1024 56.2738 22.8118 55.9832C22.5212 55.6925 22.3577 55.2984 22.3577 54.8875V47.1443C22.3577 46.7333 22.5211 46.3392 22.8118 46.0486C23.1024 45.7579 23.4965 45.5945 23.9075 45.5945ZM23.9075 45.9607C23.5937 45.9607 23.2925 46.0855 23.0706 46.3074C22.8487 46.5293 22.7239 46.8305 22.7239 47.1443V53.9763C22.7239 54.2901 22.8488 54.5913 23.0706 54.8132C23.2925 55.0351 23.5937 55.1599 23.9075 55.1599H34.384C34.6978 55.1599 34.9991 55.0351 35.2209 54.8132C35.4427 54.5914 35.5676 54.29 35.5676 53.9763V47.1443C35.5676 46.8305 35.4428 46.5293 35.2209 46.3074C34.9991 46.0855 34.6978 45.9607 34.384 45.9607H23.9075Z" stroke="#D0D5DD" stroke-opacity="0.73"/>
<path d="M202.003 265.326C201.817 265.141 201.648 264.973 201.464 264.813C198.834 262.458 196.677 262.961 195.698 263.512C195.476 263.636 195.236 263.808 194.994 264.006C194.834 263.887 194.641 263.869 194.537 263.971L194.47 264.038C194.088 263.952 193.686 263.964 193.301 264.122C192.201 264.574 191.759 265.678 191.759 267.075C191.759 269.448 193.142 271.186 193.907 272.412C194.41 273.218 195.059 274.339 195.059 275.046H195.603C195.603 274.186 194.916 273.003 194.37 272.128C193.603 270.899 192.304 269.294 192.304 267.075C192.304 265.903 192.619 264.985 193.509 264.62C193.659 264.559 193.818 264.527 193.979 264.525L193.946 264.558C193.842 264.661 193.861 264.851 193.981 265.011C193.781 265.25 193.607 265.488 193.482 265.708C192.927 266.679 192.419 268.817 194.795 271.424C194.958 271.608 195.128 271.775 195.313 271.959C199.503 276.112 202.724 275.879 204.341 274.276C205.959 272.673 206.194 269.48 202.003 265.326ZM200.794 264.824C200.048 265.156 199.363 265.688 198.699 266.213L196.214 263.749C197.249 263.276 198.808 263.174 200.794 264.824ZM195.801 263.972L198.346 266.495C198.01 266.776 197.686 267.071 197.375 267.379C197.067 267.685 196.772 268.003 196.491 268.334L193.946 265.811C194.352 265.181 195.165 264.374 195.801 263.972ZM194.805 270.76C193.141 268.792 193.244 267.246 193.721 266.219L196.207 268.683C195.677 269.341 195.141 270.02 194.805 270.76ZM204.023 273.96C202.156 275.811 198.94 274.923 195.631 271.643C195.464 271.477 195.3 271.308 195.139 271.136C195.453 270.342 196.083 269.553 196.66 268.836C196.934 268.496 197.335 268.05 197.698 267.691C198.058 267.333 198.508 266.935 198.852 266.663C199.577 266.089 200.37 265.465 201.173 265.155C201.337 265.303 201.535 265.494 201.685 265.642C204.994 268.922 205.89 272.11 204.023 273.96Z" fill="white" fill-opacity="0.32"/>
<path d="M197.949 263.197C198.91 263.293 200.083 263.743 201.381 264.906V264.906L201.382 264.907C201.562 265.064 201.728 265.23 201.915 265.415C204 267.482 204.97 269.296 205.227 270.78C205.483 272.258 205.032 273.416 204.253 274.188C203.474 274.96 202.306 275.408 200.813 275.154C199.316 274.899 197.485 273.936 195.401 271.87C195.215 271.686 195.048 271.522 194.888 271.341L194.887 271.34L194.675 271.1C193.659 269.908 193.255 268.831 193.163 267.94C193.066 266.988 193.323 266.236 193.59 265.77C193.71 265.559 193.88 265.327 194.077 265.091L194.141 265.015L194.081 264.936C194.033 264.872 194.009 264.806 194.004 264.752C194 264.7 194.014 264.667 194.033 264.647L194.068 264.614L194.288 264.395L193.978 264.4C193.801 264.402 193.626 264.438 193.462 264.504H193.461C192.498 264.9 192.179 265.89 192.179 267.074C192.179 268.773 192.927 270.122 193.619 271.201L194.264 272.195C194.537 272.631 194.842 273.14 195.078 273.646C195.292 274.103 195.444 274.545 195.473 274.921H195.177C195.145 274.561 194.987 274.133 194.784 273.712C194.556 273.236 194.265 272.75 194.013 272.346C193.238 271.104 191.884 269.403 191.884 267.075C191.884 265.699 192.318 264.661 193.348 264.238C193.706 264.09 194.082 264.078 194.443 264.159L194.51 264.175L194.558 264.126L194.625 264.06C194.645 264.04 194.68 264.026 194.735 264.031C194.789 264.035 194.856 264.059 194.92 264.107L194.998 264.164L195.073 264.103C195.311 263.907 195.546 263.74 195.759 263.62C196.23 263.356 196.988 263.1 197.949 263.197ZM201.128 265.038C200.304 265.357 199.496 265.994 198.774 266.565C198.426 266.839 197.973 267.241 197.61 267.602C197.244 267.964 196.84 268.413 196.563 268.757C195.989 269.471 195.345 270.275 195.023 271.09L194.993 271.163L195.047 271.221L195.543 271.732C197.206 273.38 198.855 274.438 200.334 274.846C201.818 275.256 203.138 275.013 204.111 274.049C205.083 273.085 205.329 271.775 204.915 270.303C204.529 268.928 203.566 267.406 202.077 265.863L201.773 265.553C201.622 265.404 201.423 265.212 201.257 265.062L201.199 265.01L201.128 265.038ZM193.608 266.167C193.36 266.7 193.21 267.368 193.337 268.156C193.464 268.945 193.867 269.844 194.71 270.841L194.837 270.992L194.919 270.812C195.247 270.088 195.773 269.421 196.304 268.761L196.374 268.673L196.294 268.594L193.809 266.131L193.683 266.005L193.608 266.167ZM195.735 263.866C195.083 264.278 194.257 265.098 193.841 265.743L193.786 265.828L193.858 265.9L196.404 268.422L196.499 268.518L196.587 268.414C196.866 268.087 197.158 267.771 197.463 267.468C197.772 267.162 198.094 266.87 198.427 266.591L198.531 266.503L198.435 266.406L195.889 263.883L195.819 263.814L195.735 263.866ZM198.167 263.367C197.372 263.242 196.698 263.39 196.161 263.635L195.997 263.71L196.125 263.838L198.611 266.302L198.69 266.379L198.777 266.311C199.442 265.785 200.115 265.263 200.845 264.939L201.029 264.857L200.874 264.728C199.868 263.892 198.961 263.493 198.167 263.367Z" stroke="#D0D5DD" stroke-opacity="0.94" stroke-width="0.25"/>
<mask id="path-7-inside-1_21_375" fill="white">
<path d="M219.36 6.83249H213.395C213.395 3.29827 211.89 3.29827 210.434 3.29827C209.034 3.29827 207.711 3.29827 207.711 0H207.474C207.474 3.53422 208.979 3.53422 210.434 3.53422C211.835 3.53422 213.159 3.53422 213.159 6.83249H206.976C206.622 6.83249 206.335 7.1395 206.335 7.51529V12.9822C206.335 13.3603 206.622 13.665 206.976 13.665H219.36C219.713 13.665 220 13.3603 220 12.9822V7.51529C220 7.1395 219.713 6.83249 219.36 6.83249ZM218.423 7.28845H218.843C219.17 7.28845 219.17 7.7444 218.843 7.7444H218.423C218.096 7.7444 218.096 7.28845 218.423 7.28845ZM217.057 7.28845H217.478C217.805 7.28845 217.805 7.7444 217.478 7.7444H217.057C216.731 7.7444 216.731 7.28845 217.057 7.28845ZM217.722 9.79278V10.2487C217.722 10.3756 217.62 10.4779 217.496 10.4779H217.04C217.01 10.4779 216.98 10.472 216.952 10.4605C216.924 10.449 216.899 10.4322 216.878 10.4109C216.856 10.3896 216.839 10.3643 216.828 10.3365C216.816 10.3087 216.81 10.2788 216.811 10.2487V9.79278C216.811 9.66821 216.913 9.56595 217.04 9.56595H217.496C217.556 9.56618 217.613 9.59016 217.656 9.63265C217.698 9.67514 217.722 9.7327 217.722 9.79278ZM216.357 8.4272C216.357 8.30034 216.459 8.20036 216.584 8.20036H217.04C217.164 8.20036 217.266 8.30034 217.266 8.4272V8.88315C217.266 8.94324 217.242 9.0008 217.2 9.04329C217.157 9.08577 217.1 9.10975 217.04 9.10999H216.584C216.524 9.10975 216.466 9.08577 216.424 9.04329C216.381 9.0008 216.357 8.94324 216.357 8.88315V8.4272ZM215.69 7.28845H216.11C216.437 7.28845 216.437 7.7444 216.11 7.7444H215.69C215.363 7.7444 215.363 7.28845 215.69 7.28845ZM216.357 9.79278V10.2487C216.357 10.3756 216.255 10.4779 216.128 10.4779H215.672C215.547 10.4779 215.445 10.3756 215.445 10.2487V9.79278C215.445 9.7327 215.469 9.67514 215.512 9.63265C215.554 9.59016 215.612 9.56618 215.672 9.56595H216.128C216.255 9.56595 216.357 9.66821 216.357 9.79278ZM215.217 8.20036H215.672C215.702 8.20006 215.732 8.2057 215.759 8.21697C215.787 8.22823 215.812 8.24489 215.834 8.26599C215.855 8.28708 215.872 8.31219 215.883 8.33986C215.895 8.36753 215.901 8.39721 215.901 8.4272V8.88315C215.901 9.00773 215.799 9.10999 215.672 9.10999H215.217C215.157 9.11005 215.099 9.08621 215.056 9.04369C215.013 9.00117 214.989 8.94344 214.989 8.88315V8.4272C214.989 8.3973 214.995 8.3677 215.006 8.34009C215.018 8.31248 215.035 8.28741 215.056 8.26633C215.077 8.24524 215.102 8.22856 215.13 8.21724C215.157 8.20591 215.187 8.20018 215.217 8.20036ZM214.534 11.1607C214.534 11.0338 214.636 10.9315 214.762 10.9315H215.217C215.343 10.9315 215.445 11.0338 215.445 11.1607V11.6166C215.445 11.7412 215.343 11.8434 215.217 11.8434H214.762C214.702 11.8435 214.644 11.8197 214.601 11.7771C214.559 11.7346 214.534 11.6769 214.534 11.6166V11.1607ZM214.306 10.4779C214.276 10.4778 214.246 10.4718 214.219 10.4603C214.191 10.4487 214.166 10.4318 214.145 10.4105C214.124 10.3893 214.107 10.364 214.095 10.3363C214.084 10.3085 214.078 10.2788 214.078 10.2487V9.79278C214.078 9.66821 214.18 9.56595 214.306 9.56595H214.762C214.822 9.56618 214.88 9.59016 214.922 9.63265C214.965 9.67514 214.989 9.7327 214.989 9.79278V10.2487C214.989 10.3756 214.887 10.4779 214.762 10.4779H214.306ZM214.324 7.28845H214.744C215.071 7.28845 215.071 7.7444 214.744 7.7444H214.324C213.997 7.7444 213.997 7.28845 214.324 7.28845ZM213.623 8.4272C213.623 8.30034 213.726 8.20036 213.85 8.20036H214.306C214.336 8.20018 214.366 8.20591 214.393 8.21724C214.421 8.22856 214.446 8.24524 214.467 8.26633C214.489 8.28741 214.505 8.31248 214.517 8.34009C214.528 8.3677 214.534 8.3973 214.534 8.4272V8.88315C214.534 9.00773 214.432 9.10999 214.306 9.10999H213.85C213.79 9.10975 213.733 9.08577 213.69 9.04329C213.648 9.0008 213.624 8.94324 213.623 8.88315V8.4272ZM214.078 11.1607V11.6166C214.078 11.7412 213.976 11.8434 213.85 11.8434H213.395C213.335 11.8435 213.277 11.8197 213.235 11.7771C213.192 11.7346 213.168 11.6769 213.167 11.6166V11.1607C213.167 11.0338 213.27 10.9315 213.395 10.9315H213.85C213.976 10.9315 214.078 11.0338 214.078 11.1607ZM213.623 10.2487C213.623 10.3756 213.521 10.4779 213.395 10.4779H212.939C212.909 10.4778 212.88 10.4718 212.852 10.4603C212.824 10.4487 212.799 10.4318 212.778 10.4105C212.757 10.3893 212.74 10.364 212.729 10.3363C212.717 10.3085 212.711 10.2788 212.711 10.2487V9.79278C212.711 9.66821 212.814 9.56595 212.939 9.56595H213.395C213.521 9.56595 213.623 9.66821 213.623 9.79278V10.2487ZM212.957 7.28845H213.378C213.705 7.28845 213.705 7.7444 213.378 7.7444H212.957C212.63 7.7444 212.63 7.28845 212.957 7.28845ZM212.257 8.4272C212.257 8.3973 212.263 8.3677 212.274 8.34009C212.285 8.31248 212.302 8.28741 212.323 8.26633C212.345 8.24524 212.37 8.22856 212.397 8.21724C212.425 8.20591 212.455 8.20018 212.485 8.20036H212.939C212.969 8.20018 212.999 8.20591 213.027 8.21724C213.054 8.22856 213.079 8.24524 213.101 8.26633C213.122 8.28741 213.139 8.31248 213.15 8.34009C213.162 8.3677 213.167 8.3973 213.167 8.4272V8.88315C213.167 9.00773 213.065 9.10999 212.939 9.10999H212.485C212.424 9.11005 212.367 9.08621 212.324 9.04369C212.281 9.00117 212.257 8.94344 212.257 8.88315V8.4272ZM212.711 11.1607V11.6166C212.711 11.6767 212.687 11.7343 212.645 11.7767C212.602 11.8192 212.545 11.8432 212.485 11.8434H212.029C211.968 11.8435 211.911 11.8197 211.868 11.7771C211.825 11.7346 211.801 11.6769 211.801 11.6166V11.1607C211.801 11.0338 211.903 10.9315 212.029 10.9315H212.485C212.609 10.9315 212.711 11.0338 212.711 11.1607ZM212.257 10.2487C212.257 10.3756 212.154 10.4779 212.029 10.4779H211.573C211.448 10.4779 211.346 10.3756 211.346 10.2487V9.79278C211.346 9.7327 211.37 9.67514 211.413 9.63265C211.455 9.59016 211.513 9.56618 211.573 9.56595H212.029C212.154 9.56595 212.257 9.66821 212.257 9.79278V10.2487ZM211.591 7.28845H212.011C212.338 7.28845 212.338 7.7444 212.011 7.7444H211.591C211.264 7.7444 211.264 7.28845 211.591 7.28845ZM210.89 8.4272C210.89 8.3973 210.896 8.3677 210.907 8.34009C210.919 8.31248 210.936 8.28741 210.957 8.26633C210.978 8.24524 211.003 8.22856 211.031 8.21724C211.058 8.20591 211.088 8.20018 211.118 8.20036H211.573C211.603 8.20018 211.632 8.20591 211.66 8.21724C211.688 8.22856 211.713 8.24524 211.734 8.26633C211.755 8.28741 211.772 8.31248 211.783 8.34009C211.795 8.3677 211.801 8.3973 211.801 8.4272V8.88315C211.801 9.00773 211.698 9.10999 211.573 9.10999H211.118C211.058 9.11005 211 9.08621 210.957 9.04369C210.914 9.00117 210.89 8.94344 210.89 8.88315V8.4272ZM210.224 7.28845H210.645C210.971 7.28845 210.971 7.7444 210.645 7.7444H210.224C209.897 7.7444 209.897 7.28845 210.224 7.28845ZM210.89 9.79278V10.2487C210.89 10.3756 210.788 10.4779 210.662 10.4779H210.207C210.177 10.4778 210.147 10.4718 210.12 10.4603C210.092 10.4487 210.067 10.4318 210.046 10.4105C210.025 10.3893 210.008 10.364 209.996 10.3363C209.985 10.3085 209.979 10.2788 209.979 10.2487V9.79278C209.979 9.66821 210.081 9.56595 210.207 9.56595H210.662C210.788 9.56595 210.89 9.66821 210.89 9.79278ZM209.751 8.20036H210.207C210.237 8.20018 210.267 8.20592 210.294 8.21726C210.322 8.22859 210.347 8.24529 210.368 8.26639C210.389 8.28749 210.406 8.31257 210.417 8.34018C210.428 8.36778 210.434 8.39736 210.434 8.4272V8.88315C210.434 8.9433 210.41 9.00096 210.367 9.04348C210.325 9.08601 210.267 9.10993 210.207 9.10999H209.751C209.691 9.11005 209.633 9.08621 209.59 9.04369C209.548 9.00117 209.523 8.94344 209.523 8.88315V8.4272C209.523 8.3973 209.529 8.3677 209.541 8.34009C209.552 8.31248 209.569 8.28741 209.59 8.26633C209.611 8.24524 209.636 8.22856 209.664 8.21724C209.692 8.20591 209.721 8.20018 209.751 8.20036ZM208.857 7.28845H209.279C209.606 7.28845 209.606 7.7444 209.279 7.7444H208.857C208.531 7.7444 208.531 7.28845 208.857 7.28845ZM209.523 9.79278V10.2487C209.523 10.3756 209.421 10.4779 209.295 10.4779H208.84C208.81 10.4778 208.781 10.4718 208.753 10.4603C208.725 10.4487 208.7 10.4318 208.679 10.4105C208.658 10.3893 208.641 10.364 208.63 10.3363C208.618 10.3085 208.612 10.2788 208.612 10.2487V9.79278C208.612 9.66821 208.715 9.56595 208.84 9.56595H209.295C209.421 9.56595 209.523 9.66821 209.523 9.79278ZM208.384 8.20036H208.84C208.87 8.20018 208.9 8.20591 208.928 8.21724C208.955 8.22856 208.98 8.24524 209.002 8.26633C209.023 8.28741 209.04 8.31248 209.051 8.34009C209.063 8.3677 209.068 8.3973 209.068 8.4272V8.88315C209.068 9.00773 208.966 9.10999 208.84 9.10999H208.384C208.324 9.11005 208.266 9.08621 208.224 9.04369C208.181 9.00117 208.157 8.94344 208.157 8.88315V8.4272C208.156 8.3973 208.162 8.3677 208.174 8.34009C208.185 8.31248 208.202 8.28741 208.223 8.26633C208.244 8.24524 208.27 8.22856 208.297 8.21724C208.325 8.20591 208.355 8.20018 208.384 8.20036ZM207.491 7.28845H207.912C208.239 7.28845 208.239 7.7444 207.912 7.7444H207.491C207.165 7.7444 207.165 7.28845 207.491 7.28845ZM206.791 8.4272C206.791 8.39736 206.796 8.36778 206.808 8.34018C206.819 8.31257 206.836 8.28749 206.857 8.26639C206.878 8.24529 206.903 8.22859 206.931 8.21726C206.958 8.20592 206.988 8.20018 207.018 8.20036H207.474C207.504 8.20018 207.533 8.20591 207.561 8.21724C207.589 8.22856 207.614 8.24524 207.635 8.26633C207.656 8.28741 207.673 8.31248 207.684 8.34009C207.696 8.3677 207.702 8.3973 207.702 8.4272V8.88315C207.702 9.00773 207.599 9.10999 207.474 9.10999H207.018C206.958 9.10993 206.9 9.08601 206.857 9.04348C206.815 9.00096 206.791 8.9433 206.791 8.88315V8.4272ZM206.791 9.79278C206.791 9.66821 206.884 9.56595 207.001 9.56595H207.946C208.063 9.56595 208.157 9.66821 208.157 9.79278V10.2487C208.157 10.3756 208.063 10.4779 207.946 10.4779H207.001C206.884 10.4779 206.791 10.3756 206.791 10.2487V9.79278ZM208.157 12.9822C208.157 13.1068 208.063 13.209 207.946 13.209H207.001C206.884 13.209 206.791 13.1068 206.791 12.9822V12.5262C206.791 12.4017 206.884 12.2994 207.001 12.2994H207.946C208.063 12.2994 208.157 12.4017 208.157 12.5262V12.9822ZM208.41 11.8434H206.993C206.881 11.8434 206.791 11.7412 206.791 11.6166V11.1607C206.791 11.0338 206.881 10.9315 206.993 10.9315H208.41C208.521 10.9315 208.613 11.0338 208.613 11.1607V11.6166C208.612 11.7412 208.521 11.8434 208.41 11.8434ZM209.523 12.9822C209.523 13.1068 209.421 13.209 209.295 13.209H208.84C208.78 13.2091 208.722 13.1852 208.68 13.1427C208.637 13.1002 208.613 13.0425 208.612 12.9822V12.5262C208.612 12.4963 208.618 12.4667 208.63 12.4391C208.641 12.4115 208.658 12.3865 208.679 12.3654C208.7 12.3443 208.726 12.3276 208.753 12.3163C208.781 12.305 208.811 12.2992 208.84 12.2994H209.295C209.325 12.2992 209.355 12.305 209.382 12.3163C209.41 12.3276 209.435 12.3443 209.456 12.3654C209.478 12.3865 209.494 12.4115 209.506 12.4391C209.517 12.4667 209.523 12.4963 209.523 12.5262V12.9822ZM209.751 11.8434H209.295C209.235 11.8432 209.178 11.8192 209.135 11.7767C209.093 11.7343 209.069 11.6767 209.068 11.6166V11.1607C209.068 11.0338 209.171 10.9315 209.295 10.9315H209.751C209.877 10.9315 209.979 11.0338 209.979 11.1607V11.6166C209.979 11.7412 209.877 11.8434 209.751 11.8434ZM210.89 12.9822C210.89 13.1068 210.788 13.209 210.662 13.209H210.207C210.147 13.2091 210.089 13.1852 210.046 13.1427C210.004 13.1002 209.979 13.0425 209.979 12.9822V12.5262C209.979 12.4963 209.985 12.4667 209.996 12.4391C210.008 12.4115 210.025 12.3865 210.046 12.3654C210.067 12.3443 210.092 12.3276 210.12 12.3163C210.148 12.305 210.177 12.2992 210.207 12.2994H210.662C210.692 12.2992 210.722 12.305 210.749 12.3163C210.777 12.3276 210.802 12.3443 210.823 12.3654C210.844 12.3865 210.861 12.4115 210.873 12.4391C210.884 12.4667 210.89 12.4963 210.89 12.5262V12.9822ZM211.118 11.8434H210.662C210.602 11.8435 210.544 11.8197 210.501 11.7771C210.458 11.7346 210.434 11.6769 210.434 11.6166V11.1607C210.434 11.0338 210.536 10.9315 210.662 10.9315H211.118C211.244 10.9315 211.346 11.0338 211.346 11.1607V11.6166C211.346 11.7412 211.244 11.8434 211.118 11.8434ZM215.901 12.9822C215.901 13.1068 215.816 13.209 215.71 13.209H211.535C211.43 13.209 211.346 13.1068 211.346 12.9822V12.5262C211.346 12.4017 211.43 12.2994 211.535 12.2994H215.71C215.816 12.2994 215.901 12.4017 215.901 12.5262V12.9822ZM215.901 11.6166V11.1607C215.901 11.0338 216.003 10.9315 216.128 10.9315H216.584C216.708 10.9315 216.811 11.0338 216.811 11.1607V11.6166C216.81 11.6767 216.786 11.7343 216.744 11.7767C216.701 11.8192 216.644 11.8432 216.584 11.8434H216.128C216.068 11.8432 216.01 11.8192 215.968 11.7767C215.925 11.7343 215.901 11.6767 215.901 11.6166ZM217.266 12.9822C217.266 13.0423 217.242 13.0998 217.2 13.1423C217.157 13.1848 217.1 13.2088 217.04 13.209H216.584C216.524 13.2088 216.466 13.1848 216.424 13.1423C216.381 13.0998 216.357 13.0423 216.357 12.9822V12.5262C216.357 12.3994 216.459 12.2994 216.584 12.2994H217.04C217.164 12.2994 217.266 12.3994 217.266 12.5262V12.9822ZM219.544 12.9822C219.544 13.1068 219.453 13.209 219.342 13.209H217.925C217.814 13.209 217.722 13.1068 217.722 12.9822V12.5262C217.722 12.3994 217.814 12.2994 217.925 12.2994H219.342C219.453 12.2994 219.544 12.3994 219.544 12.5262L219.544 12.9822ZM219.544 11.6166C219.544 11.7412 219.462 11.8434 219.357 11.8434H217.453C217.351 11.8434 217.267 11.7412 217.267 11.6166V11.1607C217.267 11.0338 217.351 10.9315 217.453 10.9315H219.357C219.462 10.9315 219.544 11.0338 219.544 11.1607V11.6166ZM219.544 10.2487C219.544 10.3756 219.451 10.4779 219.335 10.4779H218.387C218.272 10.4779 218.178 10.3756 218.178 10.2487V9.79278C218.178 9.66821 218.272 9.56595 218.387 9.56595H219.335C219.451 9.56595 219.544 9.66821 219.544 9.79278V10.2487ZM219.544 8.88315C219.544 9.00773 219.453 9.10999 219.342 9.10999H217.925C217.814 9.10999 217.722 9.00773 217.722 8.88315V8.4272C217.722 8.30034 217.814 8.20036 217.925 8.20036H219.342C219.453 8.20036 219.544 8.30034 219.544 8.4272L219.544 8.88315Z"/>
</mask>
<path d="M219.36 6.83249H213.395C213.395 3.29827 211.89 3.29827 210.434 3.29827C209.034 3.29827 207.711 3.29827 207.711 0H207.474C207.474 3.53422 208.979 3.53422 210.434 3.53422C211.835 3.53422 213.159 3.53422 213.159 6.83249H206.976C206.622 6.83249 206.335 7.1395 206.335 7.51529V12.9822C206.335 13.3603 206.622 13.665 206.976 13.665H219.36C219.713 13.665 220 13.3603 220 12.9822V7.51529C220 7.1395 219.713 6.83249 219.36 6.83249ZM218.423 7.28845H218.843C219.17 7.28845 219.17 7.7444 218.843 7.7444H218.423C218.096 7.7444 218.096 7.28845 218.423 7.28845ZM217.057 7.28845H217.478C217.805 7.28845 217.805 7.7444 217.478 7.7444H217.057C216.731 7.7444 216.731 7.28845 217.057 7.28845ZM217.722 9.79278V10.2487C217.722 10.3756 217.62 10.4779 217.496 10.4779H217.04C217.01 10.4779 216.98 10.472 216.952 10.4605C216.924 10.449 216.899 10.4322 216.878 10.4109C216.856 10.3896 216.839 10.3643 216.828 10.3365C216.816 10.3087 216.81 10.2788 216.811 10.2487V9.79278C216.811 9.66821 216.913 9.56595 217.04 9.56595H217.496C217.556 9.56618 217.613 9.59016 217.656 9.63265C217.698 9.67514 217.722 9.7327 217.722 9.79278ZM216.357 8.4272C216.357 8.30034 216.459 8.20036 216.584 8.20036H217.04C217.164 8.20036 217.266 8.30034 217.266 8.4272V8.88315C217.266 8.94324 217.242 9.0008 217.2 9.04329C217.157 9.08577 217.1 9.10975 217.04 9.10999H216.584C216.524 9.10975 216.466 9.08577 216.424 9.04329C216.381 9.0008 216.357 8.94324 216.357 8.88315V8.4272ZM215.69 7.28845H216.11C216.437 7.28845 216.437 7.7444 216.11 7.7444H215.69C215.363 7.7444 215.363 7.28845 215.69 7.28845ZM216.357 9.79278V10.2487C216.357 10.3756 216.255 10.4779 216.128 10.4779H215.672C215.547 10.4779 215.445 10.3756 215.445 10.2487V9.79278C215.445 9.7327 215.469 9.67514 215.512 9.63265C215.554 9.59016 215.612 9.56618 215.672 9.56595H216.128C216.255 9.56595 216.357 9.66821 216.357 9.79278ZM215.217 8.20036H215.672C215.702 8.20006 215.732 8.2057 215.759 8.21697C215.787 8.22823 215.812 8.24489 215.834 8.26599C215.855 8.28708 215.872 8.31219 215.883 8.33986C215.895 8.36753 215.901 8.39721 215.901 8.4272V8.88315C215.901 9.00773 215.799 9.10999 215.672 9.10999H215.217C215.157 9.11005 215.099 9.08621 215.056 9.04369C215.013 9.00117 214.989 8.94344 214.989 8.88315V8.4272C214.989 8.3973 214.995 8.3677 215.006 8.34009C215.018 8.31248 215.035 8.28741 215.056 8.26633C215.077 8.24524 215.102 8.22856 215.13 8.21724C215.157 8.20591 215.187 8.20018 215.217 8.20036ZM214.534 11.1607C214.534 11.0338 214.636 10.9315 214.762 10.9315H215.217C215.343 10.9315 215.445 11.0338 215.445 11.1607V11.6166C215.445 11.7412 215.343 11.8434 215.217 11.8434H214.762C214.702 11.8435 214.644 11.8197 214.601 11.7771C214.559 11.7346 214.534 11.6769 214.534 11.6166V11.1607ZM214.306 10.4779C214.276 10.4778 214.246 10.4718 214.219 10.4603C214.191 10.4487 214.166 10.4318 214.145 10.4105C214.124 10.3893 214.107 10.364 214.095 10.3363C214.084 10.3085 214.078 10.2788 214.078 10.2487V9.79278C214.078 9.66821 214.18 9.56595 214.306 9.56595H214.762C214.822 9.56618 214.88 9.59016 214.922 9.63265C214.965 9.67514 214.989 9.7327 214.989 9.79278V10.2487C214.989 10.3756 214.887 10.4779 214.762 10.4779H214.306ZM214.324 7.28845H214.744C215.071 7.28845 215.071 7.7444 214.744 7.7444H214.324C213.997 7.7444 213.997 7.28845 214.324 7.28845ZM213.623 8.4272C213.623 8.30034 213.726 8.20036 213.85 8.20036H214.306C214.336 8.20018 214.366 8.20591 214.393 8.21724C214.421 8.22856 214.446 8.24524 214.467 8.26633C214.489 8.28741 214.505 8.31248 214.517 8.34009C214.528 8.3677 214.534 8.3973 214.534 8.4272V8.88315C214.534 9.00773 214.432 9.10999 214.306 9.10999H213.85C213.79 9.10975 213.733 9.08577 213.69 9.04329C213.648 9.0008 213.624 8.94324 213.623 8.88315V8.4272ZM214.078 11.1607V11.6166C214.078 11.7412 213.976 11.8434 213.85 11.8434H213.395C213.335 11.8435 213.277 11.8197 213.235 11.7771C213.192 11.7346 213.168 11.6769 213.167 11.6166V11.1607C213.167 11.0338 213.27 10.9315 213.395 10.9315H213.85C213.976 10.9315 214.078 11.0338 214.078 11.1607ZM213.623 10.2487C213.623 10.3756 213.521 10.4779 213.395 10.4779H212.939C212.909 10.4778 212.88 10.4718 212.852 10.4603C212.824 10.4487 212.799 10.4318 212.778 10.4105C212.757 10.3893 212.74 10.364 212.729 10.3363C212.717 10.3085 212.711 10.2788 212.711 10.2487V9.79278C212.711 9.66821 212.814 9.56595 212.939 9.56595H213.395C213.521 9.56595 213.623 9.66821 213.623 9.79278V10.2487ZM212.957 7.28845H213.378C213.705 7.28845 213.705 7.7444 213.378 7.7444H212.957C212.63 7.7444 212.63 7.28845 212.957 7.28845ZM212.257 8.4272C212.257 8.3973 212.263 8.3677 212.274 8.34009C212.285 8.31248 212.302 8.28741 212.323 8.26633C212.345 8.24524 212.37 8.22856 212.397 8.21724C212.425 8.20591 212.455 8.20018 212.485 8.20036H212.939C212.969 8.20018 212.999 8.20591 213.027 8.21724C213.054 8.22856 213.079 8.24524 213.101 8.26633C213.122 8.28741 213.139 8.31248 213.15 8.34009C213.162 8.3677 213.167 8.3973 213.167 8.4272V8.88315C213.167 9.00773 213.065 9.10999 212.939 9.10999H212.485C212.424 9.11005 212.367 9.08621 212.324 9.04369C212.281 9.00117 212.257 8.94344 212.257 8.88315V8.4272ZM212.711 11.1607V11.6166C212.711 11.6767 212.687 11.7343 212.645 11.7767C212.602 11.8192 212.545 11.8432 212.485 11.8434H212.029C211.968 11.8435 211.911 11.8197 211.868 11.7771C211.825 11.7346 211.801 11.6769 211.801 11.6166V11.1607C211.801 11.0338 211.903 10.9315 212.029 10.9315H212.485C212.609 10.9315 212.711 11.0338 212.711 11.1607ZM212.257 10.2487C212.257 10.3756 212.154 10.4779 212.029 10.4779H211.573C211.448 10.4779 211.346 10.3756 211.346 10.2487V9.79278C211.346 9.7327 211.37 9.67514 211.413 9.63265C211.455 9.59016 211.513 9.56618 211.573 9.56595H212.029C212.154 9.56595 212.257 9.66821 212.257 9.79278V10.2487ZM211.591 7.28845H212.011C212.338 7.28845 212.338 7.7444 212.011 7.7444H211.591C211.264 7.7444 211.264 7.28845 211.591 7.28845ZM210.89 8.4272C210.89 8.3973 210.896 8.3677 210.907 8.34009C210.919 8.31248 210.936 8.28741 210.957 8.26633C210.978 8.24524 211.003 8.22856 211.031 8.21724C211.058 8.20591 211.088 8.20018 211.118 8.20036H211.573C211.603 8.20018 211.632 8.20591 211.66 8.21724C211.688 8.22856 211.713 8.24524 211.734 8.26633C211.755 8.28741 211.772 8.31248 211.783 8.34009C211.795 8.3677 211.801 8.3973 211.801 8.4272V8.88315C211.801 9.00773 211.698 9.10999 211.573 9.10999H211.118C211.058 9.11005 211 9.08621 210.957 9.04369C210.914 9.00117 210.89 8.94344 210.89 8.88315V8.4272ZM210.224 7.28845H210.645C210.971 7.28845 210.971 7.7444 210.645 7.7444H210.224C209.897 7.7444 209.897 7.28845 210.224 7.28845ZM210.89 9.79278V10.2487C210.89 10.3756 210.788 10.4779 210.662 10.4779H210.207C210.177 10.4778 210.147 10.4718 210.12 10.4603C210.092 10.4487 210.067 10.4318 210.046 10.4105C210.025 10.3893 210.008 10.364 209.996 10.3363C209.985 10.3085 209.979 10.2788 209.979 10.2487V9.79278C209.979 9.66821 210.081 9.56595 210.207 9.56595H210.662C210.788 9.56595 210.89 9.66821 210.89 9.79278ZM209.751 8.20036H210.207C210.237 8.20018 210.267 8.20592 210.294 8.21726C210.322 8.22859 210.347 8.24529 210.368 8.26639C210.389 8.28749 210.406 8.31257 210.417 8.34018C210.428 8.36778 210.434 8.39736 210.434 8.4272V8.88315C210.434 8.9433 210.41 9.00096 210.367 9.04348C210.325 9.08601 210.267 9.10993 210.207 9.10999H209.751C209.691 9.11005 209.633 9.08621 209.59 9.04369C209.548 9.00117 209.523 8.94344 209.523 8.88315V8.4272C209.523 8.3973 209.529 8.3677 209.541 8.34009C209.552 8.31248 209.569 8.28741 209.59 8.26633C209.611 8.24524 209.636 8.22856 209.664 8.21724C209.692 8.20591 209.721 8.20018 209.751 8.20036ZM208.857 7.28845H209.279C209.606 7.28845 209.606 7.7444 209.279 7.7444H208.857C208.531 7.7444 208.531 7.28845 208.857 7.28845ZM209.523 9.79278V10.2487C209.523 10.3756 209.421 10.4779 209.295 10.4779H208.84C208.81 10.4778 208.781 10.4718 208.753 10.4603C208.725 10.4487 208.7 10.4318 208.679 10.4105C208.658 10.3893 208.641 10.364 208.63 10.3363C208.618 10.3085 208.612 10.2788 208.612 10.2487V9.79278C208.612 9.66821 208.715 9.56595 208.84 9.56595H209.295C209.421 9.56595 209.523 9.66821 209.523 9.79278ZM208.384 8.20036H208.84C208.87 8.20018 208.9 8.20591 208.928 8.21724C208.955 8.22856 208.98 8.24524 209.002 8.26633C209.023 8.28741 209.04 8.31248 209.051 8.34009C209.063 8.3677 209.068 8.3973 209.068 8.4272V8.88315C209.068 9.00773 208.966 9.10999 208.84 9.10999H208.384C208.324 9.11005 208.266 9.08621 208.224 9.04369C208.181 9.00117 208.157 8.94344 208.157 8.88315V8.4272C208.156 8.3973 208.162 8.3677 208.174 8.34009C208.185 8.31248 208.202 8.28741 208.223 8.26633C208.244 8.24524 208.27 8.22856 208.297 8.21724C208.325 8.20591 208.355 8.20018 208.384 8.20036ZM207.491 7.28845H207.912C208.239 7.28845 208.239 7.7444 207.912 7.7444H207.491C207.165 7.7444 207.165 7.28845 207.491 7.28845ZM206.791 8.4272C206.791 8.39736 206.796 8.36778 206.808 8.34018C206.819 8.31257 206.836 8.28749 206.857 8.26639C206.878 8.24529 206.903 8.22859 206.931 8.21726C206.958 8.20592 206.988 8.20018 207.018 8.20036H207.474C207.504 8.20018 207.533 8.20591 207.561 8.21724C207.589 8.22856 207.614 8.24524 207.635 8.26633C207.656 8.28741 207.673 8.31248 207.684 8.34009C207.696 8.3677 207.702 8.3973 207.702 8.4272V8.88315C207.702 9.00773 207.599 9.10999 207.474 9.10999H207.018C206.958 9.10993 206.9 9.08601 206.857 9.04348C206.815 9.00096 206.791 8.9433 206.791 8.88315V8.4272ZM206.791 9.79278C206.791 9.66821 206.884 9.56595 207.001 9.56595H207.946C208.063 9.56595 208.157 9.66821 208.157 9.79278V10.2487C208.157 10.3756 208.063 10.4779 207.946 10.4779H207.001C206.884 10.4779 206.791 10.3756 206.791 10.2487V9.79278ZM208.157 12.9822C208.157 13.1068 208.063 13.209 207.946 13.209H207.001C206.884 13.209 206.791 13.1068 206.791 12.9822V12.5262C206.791 12.4017 206.884 12.2994 207.001 12.2994H207.946C208.063 12.2994 208.157 12.4017 208.157 12.5262V12.9822ZM208.41 11.8434H206.993C206.881 11.8434 206.791 11.7412 206.791 11.6166V11.1607C206.791 11.0338 206.881 10.9315 206.993 10.9315H208.41C208.521 10.9315 208.613 11.0338 208.613 11.1607V11.6166C208.612 11.7412 208.521 11.8434 208.41 11.8434ZM209.523 12.9822C209.523 13.1068 209.421 13.209 209.295 13.209H208.84C208.78 13.2091 208.722 13.1852 208.68 13.1427C208.637 13.1002 208.613 13.0425 208.612 12.9822V12.5262C208.612 12.4963 208.618 12.4667 208.63 12.4391C208.641 12.4115 208.658 12.3865 208.679 12.3654C208.7 12.3443 208.726 12.3276 208.753 12.3163C208.781 12.305 208.811 12.2992 208.84 12.2994H209.295C209.325 12.2992 209.355 12.305 209.382 12.3163C209.41 12.3276 209.435 12.3443 209.456 12.3654C209.478 12.3865 209.494 12.4115 209.506 12.4391C209.517 12.4667 209.523 12.4963 209.523 12.5262V12.9822ZM209.751 11.8434H209.295C209.235 11.8432 209.178 11.8192 209.135 11.7767C209.093 11.7343 209.069 11.6767 209.068 11.6166V11.1607C209.068 11.0338 209.171 10.9315 209.295 10.9315H209.751C209.877 10.9315 209.979 11.0338 209.979 11.1607V11.6166C209.979 11.7412 209.877 11.8434 209.751 11.8434ZM210.89 12.9822C210.89 13.1068 210.788 13.209 210.662 13.209H210.207C210.147 13.2091 210.089 13.1852 210.046 13.1427C210.004 13.1002 209.979 13.0425 209.979 12.9822V12.5262C209.979 12.4963 209.985 12.4667 209.996 12.4391C210.008 12.4115 210.025 12.3865 210.046 12.3654C210.067 12.3443 210.092 12.3276 210.12 12.3163C210.148 12.305 210.177 12.2992 210.207 12.2994H210.662C210.692 12.2992 210.722 12.305 210.749 12.3163C210.777 12.3276 210.802 12.3443 210.823 12.3654C210.844 12.3865 210.861 12.4115 210.873 12.4391C210.884 12.4667 210.89 12.4963 210.89 12.5262V12.9822ZM211.118 11.8434H210.662C210.602 11.8435 210.544 11.8197 210.501 11.7771C210.458 11.7346 210.434 11.6769 210.434 11.6166V11.1607C210.434 11.0338 210.536 10.9315 210.662 10.9315H211.118C211.244 10.9315 211.346 11.0338 211.346 11.1607V11.6166C211.346 11.7412 211.244 11.8434 211.118 11.8434ZM215.901 12.9822C215.901 13.1068 215.816 13.209 215.71 13.209H211.535C211.43 13.209 211.346 13.1068 211.346 12.9822V12.5262C211.346 12.4017 211.43 12.2994 211.535 12.2994H215.71C215.816 12.2994 215.901 12.4017 215.901 12.5262V12.9822ZM215.901 11.6166V11.1607C215.901 11.0338 216.003 10.9315 216.128 10.9315H216.584C216.708 10.9315 216.811 11.0338 216.811 11.1607V11.6166C216.81 11.6767 216.786 11.7343 216.744 11.7767C216.701 11.8192 216.644 11.8432 216.584 11.8434H216.128C216.068 11.8432 216.01 11.8192 215.968 11.7767C215.925 11.7343 215.901 11.6767 215.901 11.6166ZM217.266 12.9822C217.266 13.0423 217.242 13.0998 217.2 13.1423C217.157 13.1848 217.1 13.2088 217.04 13.209H216.584C216.524 13.2088 216.466 13.1848 216.424 13.1423C216.381 13.0998 216.357 13.0423 216.357 12.9822V12.5262C216.357 12.3994 216.459 12.2994 216.584 12.2994H217.04C217.164 12.2994 217.266 12.3994 217.266 12.5262V12.9822ZM219.544 12.9822C219.544 13.1068 219.453 13.209 219.342 13.209H217.925C217.814 13.209 217.722 13.1068 217.722 12.9822V12.5262C217.722 12.3994 217.814 12.2994 217.925 12.2994H219.342C219.453 12.2994 219.544 12.3994 219.544 12.5262L219.544 12.9822ZM219.544 11.6166C219.544 11.7412 219.462 11.8434 219.357 11.8434H217.453C217.351 11.8434 217.267 11.7412 217.267 11.6166V11.1607C217.267 11.0338 217.351 10.9315 217.453 10.9315H219.357C219.462 10.9315 219.544 11.0338 219.544 11.1607V11.6166ZM219.544 10.2487C219.544 10.3756 219.451 10.4779 219.335 10.4779H218.387C218.272 10.4779 218.178 10.3756 218.178 10.2487V9.79278C218.178 9.66821 218.272 9.56595 218.387 9.56595H219.335C219.451 9.56595 219.544 9.66821 219.544 9.79278V10.2487ZM219.544 8.88315C219.544 9.00773 219.453 9.10999 219.342 9.10999H217.925C217.814 9.10999 217.722 9.00773 217.722 8.88315V8.4272C217.722 8.30034 217.814 8.20036 217.925 8.20036H219.342C219.453 8.20036 219.544 8.30034 219.544 8.4272L219.544 8.88315Z" fill="white" fill-opacity="0.89" stroke="#D0D5DD" stroke-opacity="0.94" stroke-width="0.5" mask="url(#path-7-inside-1_21_375)"/>
</svg>
