<svg width="242" height="303" viewBox="0 0 242 303" fill="none" xmlns="http://www.w3.org/2000/svg">
<path d="M218.853 216.313C220.967 218.684 223.381 218.537 224.636 218.778C225.894 219.02 225.867 219.261 226.586 220.399C226.673 220.542 226.788 220.665 226.925 220.761C227.061 220.857 227.216 220.924 227.379 220.958C227.542 220.992 227.71 220.993 227.874 220.959C228.037 220.926 228.192 220.859 228.329 220.764L231.237 218.738C231.373 218.642 231.489 218.52 231.577 218.378C231.664 218.237 231.722 218.079 231.747 217.914C231.772 217.749 231.762 217.581 231.72 217.42C231.677 217.259 231.602 217.108 231.5 216.977C230.745 215.894 230.469 215.712 230.653 214.586C230.906 213.175 232.044 210.639 229.795 207.41C229.241 206.605 228.527 205.923 227.697 205.407C226.866 204.892 225.938 204.554 224.971 204.415C224.003 204.276 223.018 204.338 222.076 204.599C221.134 204.86 220.256 205.313 219.498 205.93C218.74 206.547 218.118 207.314 217.671 208.183C217.224 209.052 216.962 210.005 216.902 210.98C216.841 211.956 216.983 212.933 217.319 213.851C217.655 214.769 218.177 215.607 218.853 216.313Z" stroke="#D0D5DD" stroke-opacity="0.36" stroke-width="1.5" stroke-linecap="round" stroke-linejoin="round"/>
<path d="M231.426 218.517L232.578 220.171C232.893 220.623 232.899 221.169 232.59 221.385L230.344 222.949C230.032 223.167 229.522 222.969 229.208 222.518L228.056 220.864M222.561 207.565C223.207 207.115 224.006 206.94 224.781 207.079C225.556 207.218 226.244 207.659 226.694 208.305M216.131 217.257L214.125 218.655M213.569 209.273L211.154 208.841M220.941 222.187L220.508 224.601M216.892 201.246L218.022 202.868M225.974 198.515L225.553 200.924M237.517 212.753L235.113 212.315M232.174 206.081L234.18 204.684" stroke="#D0D5DD" stroke-opacity="0.36" stroke-width="1.5" stroke-linecap="round" stroke-linejoin="round"/>
<path fill-rule="evenodd" clip-rule="evenodd" d="M217.5 51.75C217.5 51.1533 217.263 50.581 216.841 50.159C216.419 49.7371 215.847 49.5 215.25 49.5H203.75C203.153 49.5 202.581 49.7371 202.159 50.159C201.737 50.581 201.5 51.1533 201.5 51.75V60.25C201.5 60.8467 201.737 61.419 202.159 61.841C202.581 62.2629 203.153 62.5 203.75 62.5H206.855C206.66 63.1543 206.277 63.7373 205.755 64.177C205.637 64.2762 205.553 64.4092 205.514 64.5579C205.475 64.7065 205.482 64.8637 205.535 65.0081C205.588 65.1526 205.684 65.2772 205.81 65.3652C205.936 65.4532 206.086 65.5002 206.24 65.5H212.76C212.914 65.5 213.064 65.4528 213.19 65.3647C213.316 65.2767 213.412 65.152 213.464 65.0077C213.517 64.8633 213.524 64.7062 213.485 64.5576C213.446 64.4091 213.361 64.2762 213.244 64.177C212.722 63.7371 212.34 63.1542 212.145 62.5H215.25C215.847 62.5 216.419 62.2629 216.841 61.841C217.263 61.419 217.5 60.8467 217.5 60.25V51.75ZM216 51.75C216 51.5511 215.921 51.3603 215.78 51.2197C215.64 51.079 215.449 51 215.25 51H203.75C203.551 51 203.36 51.079 203.22 51.2197C203.079 51.3603 203 51.5511 203 51.75V59.25C203 59.4489 203.079 59.6397 203.22 59.7803C203.36 59.921 203.551 60 203.75 60H215.25C215.449 60 215.64 59.921 215.78 59.7803C215.921 59.6397 216 59.4489 216 59.25V51.75Z" fill="white" fill-opacity="0.24"/>
<path d="M19.755 291.247C19.9595 291.044 20.1453 290.859 20.3468 290.684C23.234 288.099 25.6013 288.651 26.6768 289.255C26.9195 289.392 27.1838 289.58 27.4485 289.798C27.625 289.668 27.8362 289.647 27.9502 289.76L28.0238 289.833C28.443 289.738 28.8845 289.752 29.3077 289.926C30.515 290.422 31 291.633 31 293.167C31 295.772 29.4822 297.68 28.6425 299.026C28.0905 299.91 27.3777 301.141 27.3777 301.916H26.78C26.78 300.973 27.5343 299.674 28.134 298.714C28.9757 297.365 30.4022 295.603 30.402 293.167C30.402 291.881 30.0558 290.873 29.079 290.472C28.9149 290.406 28.7399 290.37 28.5628 290.367L28.5995 290.404C28.7132 290.517 28.6925 290.726 28.5608 290.901C28.7808 291.164 28.9713 291.425 29.1088 291.666C29.7183 292.732 30.2757 295.079 27.6677 297.941C27.4882 298.143 27.3022 298.327 27.0992 298.528C22.4998 303.087 18.9638 302.832 17.1885 301.072C15.4132 299.312 15.1553 295.807 19.755 291.247ZM21.082 290.696C21.9017 291.061 22.6532 291.644 23.3822 292.221L26.1102 289.516C24.974 288.997 23.262 288.885 21.082 290.696ZM26.5627 289.761L23.769 292.53C24.1379 292.839 24.4937 293.163 24.8355 293.501C25.1733 293.836 25.4968 294.186 25.8053 294.549L28.5993 291.779C28.1535 291.088 27.261 290.203 26.5627 289.761ZM27.656 297.212C29.483 295.052 29.3695 293.355 28.846 292.228L26.118 294.932C26.6988 295.654 27.2875 296.4 27.656 297.212ZM17.538 300.725C19.5875 302.756 23.117 301.782 26.7498 298.181C26.9335 297.999 27.1136 297.814 27.2898 297.624C26.9455 296.753 26.2537 295.888 25.6205 295.1C25.32 294.726 24.879 294.237 24.4812 293.843C24.0855 293.451 23.5915 293.013 23.2145 292.715C22.418 292.085 21.5475 291.4 20.6663 291.059C20.4865 291.222 20.2687 291.431 20.1047 291.594C16.4722 295.195 15.4888 298.693 17.538 300.725Z" fill="white" fill-opacity="0.32"/>
<path d="M26.6152 289.364C26.0967 289.073 25.2618 288.792 24.2041 288.898C23.1472 289.005 21.8567 289.5 20.4297 290.777L20.4287 290.778C20.2309 290.951 20.0479 291.132 19.8428 291.336C17.5536 293.605 16.4867 295.6 16.2041 297.231C15.9224 298.858 16.4187 300.133 17.2764 300.983C18.1341 301.834 19.421 302.326 21.0635 302.047C22.7103 301.767 24.7228 300.709 27.0117 298.439C27.2154 298.238 27.3979 298.057 27.5742 297.858L27.5752 297.857L27.8076 297.594C28.9251 296.284 29.3701 295.099 29.4707 294.117C29.5646 293.2 29.359 292.452 29.1094 291.936L29 291.729C28.8674 291.496 28.6818 291.24 28.4648 290.981L28.4014 290.905L28.4609 290.826C28.5149 290.754 28.5427 290.68 28.5479 290.619C28.5529 290.559 28.5362 290.518 28.5117 290.493L28.4746 290.456L28.2529 290.238L28.5645 290.242C28.709 290.244 28.8524 290.267 28.9902 290.309L29.126 290.356C30.1767 290.788 30.5273 291.868 30.5273 293.167C30.5275 295.648 29.0714 297.449 28.2402 298.78C27.9409 299.26 27.6059 299.82 27.3457 300.375C27.1084 300.882 26.9404 301.373 26.9111 301.791H27.2598C27.2921 301.396 27.4667 300.924 27.6904 300.458C27.9406 299.937 28.2596 299.403 28.5361 298.96C29.3857 297.599 30.875 295.727 30.875 293.167C30.8749 291.654 30.3981 290.509 29.2607 290.042H29.2598C28.8639 289.879 28.4489 289.865 28.0508 289.955L27.9844 289.97L27.9355 289.922L27.8623 289.849C27.8374 289.824 27.7954 289.807 27.7334 289.812C27.6708 289.818 27.5949 289.846 27.5225 289.899L27.4443 289.957L27.3691 289.895C27.1081 289.68 26.8495 289.496 26.6152 289.364ZM20.7109 290.942C21.6132 291.292 22.4993 291.99 23.292 292.617C23.6729 292.918 24.1706 293.359 24.5693 293.754C24.9701 294.151 25.4141 294.644 25.7178 295.021C26.3479 295.805 27.0537 296.686 27.4062 297.578L27.4346 297.652L27.3809 297.71C27.2036 297.9 27.0228 298.088 26.8379 298.271V298.27C25.0129 300.079 23.2038 301.238 21.583 301.686C19.9578 302.134 18.5138 301.868 17.4502 300.813C16.3864 299.759 16.1171 298.326 16.5703 296.714C17.0221 295.107 18.1921 293.314 20.0166 291.506C20.1815 291.342 20.4006 291.131 20.582 290.967L20.6396 290.915L20.7109 290.942ZM28.959 292.176C29.2297 292.759 29.3949 293.49 29.2559 294.353C29.1169 295.215 28.6757 296.199 27.751 297.293L27.624 297.444L27.542 297.264C27.1811 296.468 26.6025 295.735 26.0205 295.011L25.9502 294.923L26.0303 294.843L28.7578 292.14L28.8848 292.014L28.959 292.176ZM26.6299 289.655C27.3435 290.106 28.2485 291.005 28.7041 291.712L28.7588 291.797L28.6875 291.868L25.8936 294.638L25.7979 294.732L25.71 294.63C25.4038 294.27 25.0824 293.923 24.7471 293.59L24.748 293.589C24.4087 293.253 24.0546 292.932 23.6885 292.626L23.584 292.538L23.6807 292.441L26.4746 289.673L26.5459 289.603L26.6299 289.655ZM23.9678 289.109C24.8377 288.972 25.5748 289.134 26.1621 289.402L26.3271 289.478L26.1982 289.605L23.4707 292.31L23.3916 292.388L23.3047 292.318C22.574 291.741 21.8343 291.168 21.0312 290.811L20.8477 290.729L21.002 290.6C22.1052 289.683 23.0986 289.247 23.9678 289.109Z" stroke="#D0D5DD" stroke-opacity="0.36" stroke-width="0.25"/>
<mask id="path-6-inside-1_21_305" fill="white">
<path d="M0.703 7.5H7.24975C7.24975 3.6205 8.9025 3.6205 10.5005 3.6205C12.0373 3.6205 13.49 3.6205 13.49 0H13.75C13.75 3.8795 12.0973 3.8795 10.5005 3.8795C8.9625 3.8795 7.50975 3.8795 7.50975 7.5H14.2967C14.685 7.5 15 7.837 15 8.2495V14.2505C15 14.6655 14.685 15 14.2967 15H0.703C0.315001 15 0 14.6655 0 14.2505V8.2495C0 7.837 0.315001 7.5 0.703 7.5ZM1.731 8.0005H1.2695C0.9105 8.0005 0.9105 8.501 1.2695 8.501H1.731C2.08975 8.501 2.08975 8.0005 1.731 8.0005ZM3.23 8.0005H2.7685C2.4095 8.0005 2.4095 8.501 2.7685 8.501H3.23C3.58875 8.501 3.58875 8.0005 3.23 8.0005ZM2.5 10.7495V11.25C2.5 11.3892 2.61225 11.5015 2.749 11.5015H3.2495C3.28255 11.5016 3.31528 11.4951 3.34582 11.4825C3.37637 11.4699 3.40412 11.4514 3.42748 11.428C3.45085 11.4046 3.46937 11.3769 3.48199 11.3463C3.49461 11.3158 3.50107 11.283 3.501 11.25V10.7495C3.501 10.6128 3.38875 10.5005 3.2495 10.5005H2.749C2.68304 10.5008 2.61986 10.5271 2.57322 10.5737C2.52658 10.6204 2.50026 10.6835 2.5 10.7495ZM3.999 9.2505C3.999 9.11125 3.88675 9.0015 3.75 9.0015H3.2495C3.11275 9.0015 3.0005 9.11125 3.0005 9.2505V9.751C3.00076 9.81696 3.02708 9.88014 3.07372 9.92678C3.12036 9.97342 3.18354 9.99974 3.2495 10H3.75C3.81596 9.99974 3.87914 9.97342 3.92578 9.92678C3.97242 9.88014 3.99874 9.81696 3.999 9.751V9.2505ZM4.7315 8.0005H4.27C3.911 8.0005 3.911 8.501 4.27 8.501H4.7315C5.09025 8.501 5.09025 8.0005 4.7315 8.0005ZM3.999 10.7495V11.25C3.999 11.3892 4.11125 11.5015 4.2505 11.5015H4.751C4.88775 11.5015 5 11.3892 5 11.25V10.7495C4.99974 10.6835 4.97342 10.6204 4.92678 10.5737C4.88014 10.5271 4.81696 10.5008 4.751 10.5005H4.2505C4.11125 10.5005 3.999 10.6128 3.999 10.7495ZM5.25025 9.0015H4.751C4.71809 9.00117 4.68544 9.00737 4.65494 9.01973C4.62444 9.0321 4.5967 9.05039 4.57331 9.07354C4.54992 9.0967 4.53136 9.12426 4.51869 9.15463C4.50602 9.18501 4.4995 9.21759 4.4995 9.2505V9.751C4.4995 9.88775 4.61175 10 4.751 10H5.25025C5.31642 10.0001 5.37993 9.97389 5.42684 9.92722C5.47374 9.88054 5.50023 9.81717 5.5005 9.751V9.2505C5.50053 9.21769 5.49407 9.18519 5.48149 9.15488C5.46891 9.12458 5.45046 9.09706 5.4272 9.07391C5.40394 9.05077 5.37633 9.03245 5.34596 9.02003C5.31559 9.0076 5.28306 9.0013 5.25025 9.0015ZM5.99975 12.251C5.99975 12.1118 5.8875 11.9995 5.7495 11.9995H5.25025C5.11225 11.9995 5 12.1118 5 12.251V12.7515C5 12.8883 5.11225 13.0005 5.25025 13.0005H5.7495C5.81567 13.0006 5.87918 12.9744 5.92609 12.9277C5.97299 12.881 5.99949 12.8177 5.99975 12.7515V12.251ZM6.25 11.5015C6.28295 11.5014 6.31556 11.4949 6.34598 11.4822C6.37639 11.4695 6.40401 11.451 6.42725 11.4276C6.45049 11.4043 6.4689 11.3765 6.48143 11.3461C6.49395 11.3156 6.50035 11.283 6.50025 11.25V10.7495C6.50025 10.6128 6.388 10.5005 6.25 10.5005H5.7495C5.68354 10.5008 5.62036 10.5271 5.57372 10.5737C5.52708 10.6204 5.50076 10.6835 5.5005 10.7495V11.25C5.5005 11.3892 5.61275 11.5015 5.7495 11.5015H6.25ZM6.2305 8.0005H5.769C5.41 8.0005 5.41 8.501 5.769 8.501H6.2305C6.58925 8.501 6.58925 8.0005 6.2305 8.0005ZM6.9995 9.2505C6.9995 9.11125 6.88725 9.0015 6.7505 9.0015H6.25C6.21719 9.0013 6.18466 9.0076 6.15429 9.02003C6.12392 9.03245 6.09631 9.05077 6.07305 9.07391C6.04979 9.09706 6.03133 9.12458 6.01875 9.15488C6.00618 9.18519 5.99972 9.21769 5.99975 9.2505V9.751C5.99975 9.88775 6.112 10 6.25 10H6.7505C6.81646 9.99974 6.87964 9.97342 6.92628 9.92678C6.97292 9.88014 6.99924 9.81696 6.9995 9.751V9.2505ZM6.50025 12.251V12.7515C6.50025 12.8883 6.6125 13.0005 6.7505 13.0005H7.24975C7.31592 13.0006 7.37943 12.9744 7.42634 12.9277C7.47324 12.881 7.49974 12.8177 7.5 12.7515V12.251C7.5 12.1118 7.38775 11.9995 7.24975 11.9995H6.7505C6.6125 11.9995 6.50025 12.1118 6.50025 12.251ZM6.9995 11.25C6.9995 11.3892 7.11175 11.5015 7.24975 11.5015H7.75025C7.7832 11.5014 7.81581 11.4949 7.84623 11.4822C7.87664 11.4695 7.90426 11.451 7.9275 11.4276C7.95074 11.4043 7.96915 11.3765 7.98168 11.3461C7.9942 11.3156 8.0006 11.283 8.0005 11.25V10.7495C8.0005 10.6128 7.88825 10.5005 7.75025 10.5005H7.24975C7.11175 10.5005 6.9995 10.6128 6.9995 10.7495V11.25ZM7.73075 8.0005H7.26925C6.91025 8.0005 6.91025 8.501 7.26925 8.501H7.73075C8.0895 8.501 8.0895 8.0005 7.73075 8.0005ZM8.49975 9.2505C8.49978 9.21769 8.49332 9.18519 8.48074 9.15488C8.46816 9.12458 8.44971 9.09706 8.42645 9.07391C8.40319 9.05077 8.37558 9.03245 8.34521 9.02003C8.31484 9.0076 8.28231 9.0013 8.2495 9.0015H7.75025C7.71744 9.0013 7.68491 9.0076 7.65454 9.02003C7.62417 9.03245 7.59656 9.05077 7.5733 9.07391C7.55004 9.09706 7.53159 9.12458 7.51901 9.15488C7.50643 9.18519 7.49997 9.21769 7.5 9.2505V9.751C7.5 9.88775 7.61225 10 7.75025 10H8.2495C8.31567 10.0001 8.37918 9.97389 8.42609 9.92722C8.47299 9.88054 8.49949 9.81717 8.49975 9.751V9.2505ZM8.0005 12.251V12.7515C8.00076 12.8175 8.02708 12.8806 8.07372 12.9273C8.12036 12.9739 8.18354 13.0002 8.2495 13.0005H8.75C8.81617 13.0006 8.87968 12.9744 8.92659 12.9277C8.9735 12.881 8.99999 12.8177 9.00025 12.7515V12.251C9.00025 12.1118 8.888 11.9995 8.75 11.9995H8.2495C8.11275 11.9995 8.0005 12.1118 8.0005 12.251ZM8.49975 11.25C8.49975 11.3892 8.612 11.5015 8.75 11.5015H9.2505C9.38725 11.5015 9.4995 11.3892 9.4995 11.25V10.7495C9.49924 10.6835 9.47292 10.6204 9.42628 10.5737C9.37964 10.5271 9.31646 10.5008 9.2505 10.5005H8.75C8.612 10.5005 8.49975 10.6128 8.49975 10.7495V11.25ZM9.231 8.0005H8.7695C8.4105 8.0005 8.4105 8.501 8.7695 8.501H9.231C9.58975 8.501 9.58975 8.0005 9.231 8.0005ZM10 9.2505C10 9.21769 9.99357 9.18519 9.98099 9.15488C9.96841 9.12458 9.94996 9.09706 9.9267 9.07391C9.90344 9.05077 9.87583 9.03245 9.84546 9.02003C9.81509 9.0076 9.78256 9.0013 9.74975 9.0015H9.2505C9.21769 9.0013 9.18516 9.0076 9.15479 9.02003C9.12442 9.03245 9.09681 9.05077 9.07355 9.07391C9.05029 9.09706 9.03184 9.12458 9.01926 9.15488C9.00668 9.18519 9.00022 9.21769 9.00025 9.2505V9.751C9.00025 9.88775 9.1125 10 9.2505 10H9.74975C9.81592 10.0001 9.87943 9.97389 9.92634 9.92722C9.97324 9.88054 9.99974 9.81717 10 9.751V9.2505ZM10.7312 8.0005H10.2685C9.91075 8.0005 9.91075 8.501 10.2685 8.501H10.7312C11.09 8.501 11.09 8.0005 10.7312 8.0005ZM10 10.7495V11.25C10 11.3892 10.1122 11.5015 10.2502 11.5015H10.7495C10.7824 11.5014 10.8151 11.4949 10.8455 11.4822C10.8759 11.4695 10.9035 11.451 10.9267 11.4276C10.95 11.4043 10.9684 11.3765 10.9809 11.3461C10.9935 11.3156 10.9998 11.283 10.9998 11.25V10.7495C10.9998 10.6128 10.8875 10.5005 10.7495 10.5005H10.2502C10.1122 10.5005 10 10.6128 10 10.7495ZM11.25 9.0015H10.7495C10.7167 9.0013 10.6843 9.00761 10.654 9.02005C10.6237 9.03249 10.5961 9.05082 10.573 9.07399C10.5498 9.09715 10.5315 9.12468 10.519 9.15498C10.5066 9.18528 10.5003 9.21774 10.5005 9.2505V9.751C10.5006 9.81702 10.5268 9.88031 10.5735 9.927C10.6202 9.97368 10.6835 9.99993 10.7495 10H11.25C11.3162 10.0001 11.3797 9.97389 11.4266 9.92722C11.4735 9.88054 11.5 9.81717 11.5003 9.751V9.2505C11.5003 9.21769 11.4938 9.18519 11.4812 9.15488C11.4687 9.12458 11.4502 9.09706 11.427 9.07391C11.4037 9.05077 11.3761 9.03245 11.3457 9.02003C11.3153 9.0076 11.2828 9.0013 11.25 9.0015ZM12.2315 8.0005H11.7687C11.4097 8.0005 11.4097 8.501 11.7687 8.501H12.2315C12.589 8.501 12.589 8.0005 12.2315 8.0005ZM11.5003 10.7495V11.25C11.5003 11.3892 11.6125 11.5015 11.7505 11.5015H12.2497C12.2827 11.5014 12.3153 11.4949 12.3457 11.4822C12.3761 11.4695 12.4038 11.451 12.427 11.4276C12.4502 11.4043 12.4687 11.3765 12.4812 11.3461C12.4937 11.3156 12.5001 11.283 12.5 11.25V10.7495C12.5 10.6128 12.3877 10.5005 12.2497 10.5005H11.7505C11.6125 10.5005 11.5003 10.6128 11.5003 10.7495ZM12.7503 9.0015H12.2497C12.2169 9.0013 12.1844 9.0076 12.154 9.02003C12.1237 9.03245 12.0961 9.05077 12.0728 9.07391C12.0495 9.09706 12.0311 9.12458 12.0185 9.15488C12.0059 9.18519 11.9995 9.21769 11.9995 9.2505V9.751C11.9995 9.88775 12.1117 10 12.2497 10H12.7503C12.8164 10.0001 12.8799 9.97389 12.9268 9.92722C12.9737 9.88054 13.0002 9.81717 13.0005 9.751V9.2505C13.0005 9.21769 12.9941 9.18519 12.9815 9.15488C12.9689 9.12458 12.9505 9.09706 12.9272 9.07391C12.9039 9.05077 12.8763 9.03245 12.846 9.02003C12.8156 9.0076 12.7831 9.0013 12.7503 9.0015ZM13.7305 8.0005H13.269C12.91 8.0005 12.91 8.501 13.269 8.501H13.7305C14.0892 8.501 14.0892 8.0005 13.7305 8.0005ZM14.4995 9.2505C14.4997 9.21774 14.4934 9.18528 14.481 9.15498C14.4685 9.12468 14.4502 9.09715 14.427 9.07399C14.4039 9.05082 14.3763 9.03249 14.346 9.02005C14.3157 9.00761 14.2833 9.0013 14.2505 9.0015H13.75C13.7172 9.0013 13.6847 9.0076 13.6543 9.02003C13.6239 9.03245 13.5963 9.05077 13.573 9.07391C13.5498 9.09706 13.5313 9.12458 13.5188 9.15488C13.5062 9.18519 13.4997 9.21769 13.4997 9.2505V9.751C13.4997 9.88775 13.612 10 13.75 10H14.2505C14.3165 9.99993 14.3798 9.97368 14.4265 9.927C14.4732 9.88031 14.4994 9.81702 14.4995 9.751V9.2505ZM14.4995 10.7495C14.4995 10.6128 14.397 10.5005 14.2687 10.5005H13.2313C13.103 10.5005 13.0005 10.6128 13.0005 10.7495V11.25C13.0005 11.3892 13.103 11.5015 13.2313 11.5015H14.2687C14.397 11.5015 14.4995 11.3892 14.4995 11.25V10.7495ZM13.0005 14.2505C13.0005 14.3872 13.103 14.4995 13.2313 14.4995H14.2687C14.397 14.4995 14.4995 14.3872 14.4995 14.2505V13.75C14.4995 13.6132 14.397 13.501 14.2687 13.501H13.2313C13.103 13.501 13.0005 13.6132 13.0005 13.75V14.2505ZM12.7222 13.0005H14.2773C14.4005 13.0005 14.4995 12.8883 14.4995 12.7515V12.251C14.4995 12.1118 14.4005 11.9995 14.2773 11.9995H12.722C12.6 11.9995 12.4997 12.1118 12.4997 12.251V12.7515C12.5 12.8883 12.6 13.0005 12.7222 13.0005ZM11.5003 14.2505C11.5003 14.3872 11.6125 14.4995 11.7505 14.4995H12.2497C12.3159 14.4996 12.3794 14.4734 12.4263 14.4267C12.4732 14.38 12.4997 14.3167 12.5 14.2505V13.75C12.5 13.7172 12.4936 13.6847 12.481 13.6544C12.4684 13.6241 12.45 13.5966 12.4267 13.5734C12.4034 13.5503 12.3758 13.532 12.3455 13.5195C12.3151 13.5071 12.2826 13.5008 12.2497 13.501H11.7505C11.7177 13.5008 11.6852 13.5071 11.6548 13.5195C11.6244 13.532 11.5968 13.5503 11.5735 13.5734C11.5503 13.5966 11.5318 13.6241 11.5193 13.6544C11.5067 13.6847 11.5002 13.7172 11.5003 13.75V14.2505ZM11.25 13.0005H11.7505C11.8165 13.0002 11.8796 12.9739 11.9263 12.9273C11.9729 12.8806 11.9992 12.8175 11.9995 12.7515V12.251C11.9995 12.1118 11.8872 11.9995 11.7505 11.9995H11.25C11.112 11.9995 10.9998 12.1118 10.9998 12.251V12.7515C10.9998 12.8883 11.112 13.0005 11.25 13.0005ZM10 14.2505C10 14.3872 10.1122 14.4995 10.2502 14.4995H10.7495C10.8157 14.4996 10.8792 14.4734 10.9261 14.4267C10.973 14.38 10.9995 14.3167 10.9998 14.2505V13.75C10.9998 13.7172 10.9933 13.6847 10.9807 13.6544C10.9682 13.6241 10.9497 13.5966 10.9265 13.5734C10.9032 13.5503 10.8756 13.532 10.8452 13.5195C10.8148 13.5071 10.7823 13.5008 10.7495 13.501H10.2502C10.2174 13.5008 10.1849 13.5071 10.1545 13.5195C10.1242 13.532 10.0966 13.5503 10.0733 13.5734C10.05 13.5966 10.0316 13.6241 10.019 13.6544C10.0064 13.6847 9.99997 13.7172 10 13.75V14.2505ZM9.74975 13.0005H10.2502C10.3164 13.0006 10.3799 12.9744 10.4268 12.9277C10.4737 12.881 10.5002 12.8177 10.5005 12.7515V12.251C10.5005 12.1118 10.3882 11.9995 10.2502 11.9995H9.74975C9.61175 11.9995 9.4995 12.1118 9.4995 12.251V12.7515C9.4995 12.8883 9.61175 13.0005 9.74975 13.0005ZM4.4995 14.2505C4.4995 14.3872 4.59225 14.4995 4.7095 14.4995H9.292C9.40675 14.4995 9.4995 14.3872 9.4995 14.2505V13.75C9.4995 13.6132 9.40675 13.501 9.292 13.501H4.7095C4.59225 13.501 4.4995 13.6132 4.4995 13.75V14.2505ZM4.4995 12.7515V12.251C4.4995 12.1118 4.38725 11.9995 4.2505 11.9995H3.75C3.61325 11.9995 3.501 12.1118 3.501 12.251V12.7515C3.50126 12.8175 3.52758 12.8806 3.57422 12.9273C3.62086 12.9739 3.68404 13.0002 3.75 13.0005H4.2505C4.31646 13.0002 4.37964 12.9739 4.42628 12.9273C4.47292 12.8806 4.49924 12.8175 4.4995 12.7515ZM3.0005 14.2505C3.00076 14.3165 3.02708 14.3796 3.07372 14.4263C3.12036 14.4729 3.18354 14.4992 3.2495 14.4995H3.75C3.81596 14.4992 3.87914 14.4729 3.92578 14.4263C3.97242 14.3796 3.99874 14.3165 3.999 14.2505V13.75C3.999 13.6108 3.88675 13.501 3.75 13.501H3.2495C3.11275 13.501 3.0005 13.6108 3.0005 13.75V14.2505ZM0.5005 14.2505C0.5005 14.3872 0.6005 14.4995 0.72275 14.4995H2.278C2.4 14.4995 2.5 14.3872 2.5 14.2505V13.75C2.5 13.6108 2.4 13.501 2.27775 13.501H0.7225C0.6005 13.501 0.50025 13.6108 0.50025 13.75L0.5005 14.2505ZM0.5005 12.7515C0.5005 12.8883 0.59075 13.0005 0.7055 13.0005H2.79525C2.9075 13.0005 3.00025 12.8883 3.00025 12.7515V12.251C3.00025 12.1118 2.9075 11.9995 2.79525 11.9995H0.7055C0.59075 11.9995 0.5005 12.1118 0.5005 12.251V12.7515ZM0.5005 11.25C0.5005 11.3892 0.603 11.5015 0.73 11.5015H1.77C1.897 11.5015 1.9995 11.3892 1.9995 11.25V10.7495C1.9995 10.6128 1.897 10.5005 1.77 10.5005H0.73C0.603 10.5005 0.5005 10.6128 0.5005 10.7495V11.25ZM0.5005 9.751C0.5005 9.88775 0.6005 10 0.72275 10H2.278C2.4 10 2.5 9.88775 2.5 9.751V9.2505C2.5 9.11125 2.4 9.0015 2.27775 9.0015H0.7225C0.6005 9.0015 0.50025 9.11125 0.50025 9.2505L0.5005 9.751Z"/>
</mask>
<path d="M0.703 7.5H7.24975C7.24975 3.6205 8.9025 3.6205 10.5005 3.6205C12.0373 3.6205 13.49 3.6205 13.49 0H13.75C13.75 3.8795 12.0973 3.8795 10.5005 3.8795C8.9625 3.8795 7.50975 3.8795 7.50975 7.5H14.2967C14.685 7.5 15 7.837 15 8.2495V14.2505C15 14.6655 14.685 15 14.2967 15H0.703C0.315001 15 0 14.6655 0 14.2505V8.2495C0 7.837 0.315001 7.5 0.703 7.5ZM1.731 8.0005H1.2695C0.9105 8.0005 0.9105 8.501 1.2695 8.501H1.731C2.08975 8.501 2.08975 8.0005 1.731 8.0005ZM3.23 8.0005H2.7685C2.4095 8.0005 2.4095 8.501 2.7685 8.501H3.23C3.58875 8.501 3.58875 8.0005 3.23 8.0005ZM2.5 10.7495V11.25C2.5 11.3892 2.61225 11.5015 2.749 11.5015H3.2495C3.28255 11.5016 3.31528 11.4951 3.34582 11.4825C3.37637 11.4699 3.40412 11.4514 3.42748 11.428C3.45085 11.4046 3.46937 11.3769 3.48199 11.3463C3.49461 11.3158 3.50107 11.283 3.501 11.25V10.7495C3.501 10.6128 3.38875 10.5005 3.2495 10.5005H2.749C2.68304 10.5008 2.61986 10.5271 2.57322 10.5737C2.52658 10.6204 2.50026 10.6835 2.5 10.7495ZM3.999 9.2505C3.999 9.11125 3.88675 9.0015 3.75 9.0015H3.2495C3.11275 9.0015 3.0005 9.11125 3.0005 9.2505V9.751C3.00076 9.81696 3.02708 9.88014 3.07372 9.92678C3.12036 9.97342 3.18354 9.99974 3.2495 10H3.75C3.81596 9.99974 3.87914 9.97342 3.92578 9.92678C3.97242 9.88014 3.99874 9.81696 3.999 9.751V9.2505ZM4.7315 8.0005H4.27C3.911 8.0005 3.911 8.501 4.27 8.501H4.7315C5.09025 8.501 5.09025 8.0005 4.7315 8.0005ZM3.999 10.7495V11.25C3.999 11.3892 4.11125 11.5015 4.2505 11.5015H4.751C4.88775 11.5015 5 11.3892 5 11.25V10.7495C4.99974 10.6835 4.97342 10.6204 4.92678 10.5737C4.88014 10.5271 4.81696 10.5008 4.751 10.5005H4.2505C4.11125 10.5005 3.999 10.6128 3.999 10.7495ZM5.25025 9.0015H4.751C4.71809 9.00117 4.68544 9.00737 4.65494 9.01973C4.62444 9.0321 4.5967 9.05039 4.57331 9.07354C4.54992 9.0967 4.53136 9.12426 4.51869 9.15463C4.50602 9.18501 4.4995 9.21759 4.4995 9.2505V9.751C4.4995 9.88775 4.61175 10 4.751 10H5.25025C5.31642 10.0001 5.37993 9.97389 5.42684 9.92722C5.47374 9.88054 5.50023 9.81717 5.5005 9.751V9.2505C5.50053 9.21769 5.49407 9.18519 5.48149 9.15488C5.46891 9.12458 5.45046 9.09706 5.4272 9.07391C5.40394 9.05077 5.37633 9.03245 5.34596 9.02003C5.31559 9.0076 5.28306 9.0013 5.25025 9.0015ZM5.99975 12.251C5.99975 12.1118 5.8875 11.9995 5.7495 11.9995H5.25025C5.11225 11.9995 5 12.1118 5 12.251V12.7515C5 12.8883 5.11225 13.0005 5.25025 13.0005H5.7495C5.81567 13.0006 5.87918 12.9744 5.92609 12.9277C5.97299 12.881 5.99949 12.8177 5.99975 12.7515V12.251ZM6.25 11.5015C6.28295 11.5014 6.31556 11.4949 6.34598 11.4822C6.37639 11.4695 6.40401 11.451 6.42725 11.4276C6.45049 11.4043 6.4689 11.3765 6.48143 11.3461C6.49395 11.3156 6.50035 11.283 6.50025 11.25V10.7495C6.50025 10.6128 6.388 10.5005 6.25 10.5005H5.7495C5.68354 10.5008 5.62036 10.5271 5.57372 10.5737C5.52708 10.6204 5.50076 10.6835 5.5005 10.7495V11.25C5.5005 11.3892 5.61275 11.5015 5.7495 11.5015H6.25ZM6.2305 8.0005H5.769C5.41 8.0005 5.41 8.501 5.769 8.501H6.2305C6.58925 8.501 6.58925 8.0005 6.2305 8.0005ZM6.9995 9.2505C6.9995 9.11125 6.88725 9.0015 6.7505 9.0015H6.25C6.21719 9.0013 6.18466 9.0076 6.15429 9.02003C6.12392 9.03245 6.09631 9.05077 6.07305 9.07391C6.04979 9.09706 6.03133 9.12458 6.01875 9.15488C6.00618 9.18519 5.99972 9.21769 5.99975 9.2505V9.751C5.99975 9.88775 6.112 10 6.25 10H6.7505C6.81646 9.99974 6.87964 9.97342 6.92628 9.92678C6.97292 9.88014 6.99924 9.81696 6.9995 9.751V9.2505ZM6.50025 12.251V12.7515C6.50025 12.8883 6.6125 13.0005 6.7505 13.0005H7.24975C7.31592 13.0006 7.37943 12.9744 7.42634 12.9277C7.47324 12.881 7.49974 12.8177 7.5 12.7515V12.251C7.5 12.1118 7.38775 11.9995 7.24975 11.9995H6.7505C6.6125 11.9995 6.50025 12.1118 6.50025 12.251ZM6.9995 11.25C6.9995 11.3892 7.11175 11.5015 7.24975 11.5015H7.75025C7.7832 11.5014 7.81581 11.4949 7.84623 11.4822C7.87664 11.4695 7.90426 11.451 7.9275 11.4276C7.95074 11.4043 7.96915 11.3765 7.98168 11.3461C7.9942 11.3156 8.0006 11.283 8.0005 11.25V10.7495C8.0005 10.6128 7.88825 10.5005 7.75025 10.5005H7.24975C7.11175 10.5005 6.9995 10.6128 6.9995 10.7495V11.25ZM7.73075 8.0005H7.26925C6.91025 8.0005 6.91025 8.501 7.26925 8.501H7.73075C8.0895 8.501 8.0895 8.0005 7.73075 8.0005ZM8.49975 9.2505C8.49978 9.21769 8.49332 9.18519 8.48074 9.15488C8.46816 9.12458 8.44971 9.09706 8.42645 9.07391C8.40319 9.05077 8.37558 9.03245 8.34521 9.02003C8.31484 9.0076 8.28231 9.0013 8.2495 9.0015H7.75025C7.71744 9.0013 7.68491 9.0076 7.65454 9.02003C7.62417 9.03245 7.59656 9.05077 7.5733 9.07391C7.55004 9.09706 7.53159 9.12458 7.51901 9.15488C7.50643 9.18519 7.49997 9.21769 7.5 9.2505V9.751C7.5 9.88775 7.61225 10 7.75025 10H8.2495C8.31567 10.0001 8.37918 9.97389 8.42609 9.92722C8.47299 9.88054 8.49949 9.81717 8.49975 9.751V9.2505ZM8.0005 12.251V12.7515C8.00076 12.8175 8.02708 12.8806 8.07372 12.9273C8.12036 12.9739 8.18354 13.0002 8.2495 13.0005H8.75C8.81617 13.0006 8.87968 12.9744 8.92659 12.9277C8.9735 12.881 8.99999 12.8177 9.00025 12.7515V12.251C9.00025 12.1118 8.888 11.9995 8.75 11.9995H8.2495C8.11275 11.9995 8.0005 12.1118 8.0005 12.251ZM8.49975 11.25C8.49975 11.3892 8.612 11.5015 8.75 11.5015H9.2505C9.38725 11.5015 9.4995 11.3892 9.4995 11.25V10.7495C9.49924 10.6835 9.47292 10.6204 9.42628 10.5737C9.37964 10.5271 9.31646 10.5008 9.2505 10.5005H8.75C8.612 10.5005 8.49975 10.6128 8.49975 10.7495V11.25ZM9.231 8.0005H8.7695C8.4105 8.0005 8.4105 8.501 8.7695 8.501H9.231C9.58975 8.501 9.58975 8.0005 9.231 8.0005ZM10 9.2505C10 9.21769 9.99357 9.18519 9.98099 9.15488C9.96841 9.12458 9.94996 9.09706 9.9267 9.07391C9.90344 9.05077 9.87583 9.03245 9.84546 9.02003C9.81509 9.0076 9.78256 9.0013 9.74975 9.0015H9.2505C9.21769 9.0013 9.18516 9.0076 9.15479 9.02003C9.12442 9.03245 9.09681 9.05077 9.07355 9.07391C9.05029 9.09706 9.03184 9.12458 9.01926 9.15488C9.00668 9.18519 9.00022 9.21769 9.00025 9.2505V9.751C9.00025 9.88775 9.1125 10 9.2505 10H9.74975C9.81592 10.0001 9.87943 9.97389 9.92634 9.92722C9.97324 9.88054 9.99974 9.81717 10 9.751V9.2505ZM10.7312 8.0005H10.2685C9.91075 8.0005 9.91075 8.501 10.2685 8.501H10.7312C11.09 8.501 11.09 8.0005 10.7312 8.0005ZM10 10.7495V11.25C10 11.3892 10.1122 11.5015 10.2502 11.5015H10.7495C10.7824 11.5014 10.8151 11.4949 10.8455 11.4822C10.8759 11.4695 10.9035 11.451 10.9267 11.4276C10.95 11.4043 10.9684 11.3765 10.9809 11.3461C10.9935 11.3156 10.9998 11.283 10.9998 11.25V10.7495C10.9998 10.6128 10.8875 10.5005 10.7495 10.5005H10.2502C10.1122 10.5005 10 10.6128 10 10.7495ZM11.25 9.0015H10.7495C10.7167 9.0013 10.6843 9.00761 10.654 9.02005C10.6237 9.03249 10.5961 9.05082 10.573 9.07399C10.5498 9.09715 10.5315 9.12468 10.519 9.15498C10.5066 9.18528 10.5003 9.21774 10.5005 9.2505V9.751C10.5006 9.81702 10.5268 9.88031 10.5735 9.927C10.6202 9.97368 10.6835 9.99993 10.7495 10H11.25C11.3162 10.0001 11.3797 9.97389 11.4266 9.92722C11.4735 9.88054 11.5 9.81717 11.5003 9.751V9.2505C11.5003 9.21769 11.4938 9.18519 11.4812 9.15488C11.4687 9.12458 11.4502 9.09706 11.427 9.07391C11.4037 9.05077 11.3761 9.03245 11.3457 9.02003C11.3153 9.0076 11.2828 9.0013 11.25 9.0015ZM12.2315 8.0005H11.7687C11.4097 8.0005 11.4097 8.501 11.7687 8.501H12.2315C12.589 8.501 12.589 8.0005 12.2315 8.0005ZM11.5003 10.7495V11.25C11.5003 11.3892 11.6125 11.5015 11.7505 11.5015H12.2497C12.2827 11.5014 12.3153 11.4949 12.3457 11.4822C12.3761 11.4695 12.4038 11.451 12.427 11.4276C12.4502 11.4043 12.4687 11.3765 12.4812 11.3461C12.4937 11.3156 12.5001 11.283 12.5 11.25V10.7495C12.5 10.6128 12.3877 10.5005 12.2497 10.5005H11.7505C11.6125 10.5005 11.5003 10.6128 11.5003 10.7495ZM12.7503 9.0015H12.2497C12.2169 9.0013 12.1844 9.0076 12.154 9.02003C12.1237 9.03245 12.0961 9.05077 12.0728 9.07391C12.0495 9.09706 12.0311 9.12458 12.0185 9.15488C12.0059 9.18519 11.9995 9.21769 11.9995 9.2505V9.751C11.9995 9.88775 12.1117 10 12.2497 10H12.7503C12.8164 10.0001 12.8799 9.97389 12.9268 9.92722C12.9737 9.88054 13.0002 9.81717 13.0005 9.751V9.2505C13.0005 9.21769 12.9941 9.18519 12.9815 9.15488C12.9689 9.12458 12.9505 9.09706 12.9272 9.07391C12.9039 9.05077 12.8763 9.03245 12.846 9.02003C12.8156 9.0076 12.7831 9.0013 12.7503 9.0015ZM13.7305 8.0005H13.269C12.91 8.0005 12.91 8.501 13.269 8.501H13.7305C14.0892 8.501 14.0892 8.0005 13.7305 8.0005ZM14.4995 9.2505C14.4997 9.21774 14.4934 9.18528 14.481 9.15498C14.4685 9.12468 14.4502 9.09715 14.427 9.07399C14.4039 9.05082 14.3763 9.03249 14.346 9.02005C14.3157 9.00761 14.2833 9.0013 14.2505 9.0015H13.75C13.7172 9.0013 13.6847 9.0076 13.6543 9.02003C13.6239 9.03245 13.5963 9.05077 13.573 9.07391C13.5498 9.09706 13.5313 9.12458 13.5188 9.15488C13.5062 9.18519 13.4997 9.21769 13.4997 9.2505V9.751C13.4997 9.88775 13.612 10 13.75 10H14.2505C14.3165 9.99993 14.3798 9.97368 14.4265 9.927C14.4732 9.88031 14.4994 9.81702 14.4995 9.751V9.2505ZM14.4995 10.7495C14.4995 10.6128 14.397 10.5005 14.2687 10.5005H13.2313C13.103 10.5005 13.0005 10.6128 13.0005 10.7495V11.25C13.0005 11.3892 13.103 11.5015 13.2313 11.5015H14.2687C14.397 11.5015 14.4995 11.3892 14.4995 11.25V10.7495ZM13.0005 14.2505C13.0005 14.3872 13.103 14.4995 13.2313 14.4995H14.2687C14.397 14.4995 14.4995 14.3872 14.4995 14.2505V13.75C14.4995 13.6132 14.397 13.501 14.2687 13.501H13.2313C13.103 13.501 13.0005 13.6132 13.0005 13.75V14.2505ZM12.7222 13.0005H14.2773C14.4005 13.0005 14.4995 12.8883 14.4995 12.7515V12.251C14.4995 12.1118 14.4005 11.9995 14.2773 11.9995H12.722C12.6 11.9995 12.4997 12.1118 12.4997 12.251V12.7515C12.5 12.8883 12.6 13.0005 12.7222 13.0005ZM11.5003 14.2505C11.5003 14.3872 11.6125 14.4995 11.7505 14.4995H12.2497C12.3159 14.4996 12.3794 14.4734 12.4263 14.4267C12.4732 14.38 12.4997 14.3167 12.5 14.2505V13.75C12.5 13.7172 12.4936 13.6847 12.481 13.6544C12.4684 13.6241 12.45 13.5966 12.4267 13.5734C12.4034 13.5503 12.3758 13.532 12.3455 13.5195C12.3151 13.5071 12.2826 13.5008 12.2497 13.501H11.7505C11.7177 13.5008 11.6852 13.5071 11.6548 13.5195C11.6244 13.532 11.5968 13.5503 11.5735 13.5734C11.5503 13.5966 11.5318 13.6241 11.5193 13.6544C11.5067 13.6847 11.5002 13.7172 11.5003 13.75V14.2505ZM11.25 13.0005H11.7505C11.8165 13.0002 11.8796 12.9739 11.9263 12.9273C11.9729 12.8806 11.9992 12.8175 11.9995 12.7515V12.251C11.9995 12.1118 11.8872 11.9995 11.7505 11.9995H11.25C11.112 11.9995 10.9998 12.1118 10.9998 12.251V12.7515C10.9998 12.8883 11.112 13.0005 11.25 13.0005ZM10 14.2505C10 14.3872 10.1122 14.4995 10.2502 14.4995H10.7495C10.8157 14.4996 10.8792 14.4734 10.9261 14.4267C10.973 14.38 10.9995 14.3167 10.9998 14.2505V13.75C10.9998 13.7172 10.9933 13.6847 10.9807 13.6544C10.9682 13.6241 10.9497 13.5966 10.9265 13.5734C10.9032 13.5503 10.8756 13.532 10.8452 13.5195C10.8148 13.5071 10.7823 13.5008 10.7495 13.501H10.2502C10.2174 13.5008 10.1849 13.5071 10.1545 13.5195C10.1242 13.532 10.0966 13.5503 10.0733 13.5734C10.05 13.5966 10.0316 13.6241 10.019 13.6544C10.0064 13.6847 9.99997 13.7172 10 13.75V14.2505ZM9.74975 13.0005H10.2502C10.3164 13.0006 10.3799 12.9744 10.4268 12.9277C10.4737 12.881 10.5002 12.8177 10.5005 12.7515V12.251C10.5005 12.1118 10.3882 11.9995 10.2502 11.9995H9.74975C9.61175 11.9995 9.4995 12.1118 9.4995 12.251V12.7515C9.4995 12.8883 9.61175 13.0005 9.74975 13.0005ZM4.4995 14.2505C4.4995 14.3872 4.59225 14.4995 4.7095 14.4995H9.292C9.40675 14.4995 9.4995 14.3872 9.4995 14.2505V13.75C9.4995 13.6132 9.40675 13.501 9.292 13.501H4.7095C4.59225 13.501 4.4995 13.6132 4.4995 13.75V14.2505ZM4.4995 12.7515V12.251C4.4995 12.1118 4.38725 11.9995 4.2505 11.9995H3.75C3.61325 11.9995 3.501 12.1118 3.501 12.251V12.7515C3.50126 12.8175 3.52758 12.8806 3.57422 12.9273C3.62086 12.9739 3.68404 13.0002 3.75 13.0005H4.2505C4.31646 13.0002 4.37964 12.9739 4.42628 12.9273C4.47292 12.8806 4.49924 12.8175 4.4995 12.7515ZM3.0005 14.2505C3.00076 14.3165 3.02708 14.3796 3.07372 14.4263C3.12036 14.4729 3.18354 14.4992 3.2495 14.4995H3.75C3.81596 14.4992 3.87914 14.4729 3.92578 14.4263C3.97242 14.3796 3.99874 14.3165 3.999 14.2505V13.75C3.999 13.6108 3.88675 13.501 3.75 13.501H3.2495C3.11275 13.501 3.0005 13.6108 3.0005 13.75V14.2505ZM0.5005 14.2505C0.5005 14.3872 0.6005 14.4995 0.72275 14.4995H2.278C2.4 14.4995 2.5 14.3872 2.5 14.2505V13.75C2.5 13.6108 2.4 13.501 2.27775 13.501H0.7225C0.6005 13.501 0.50025 13.6108 0.50025 13.75L0.5005 14.2505ZM0.5005 12.7515C0.5005 12.8883 0.59075 13.0005 0.7055 13.0005H2.79525C2.9075 13.0005 3.00025 12.8883 3.00025 12.7515V12.251C3.00025 12.1118 2.9075 11.9995 2.79525 11.9995H0.7055C0.59075 11.9995 0.5005 12.1118 0.5005 12.251V12.7515ZM0.5005 11.25C0.5005 11.3892 0.603 11.5015 0.73 11.5015H1.77C1.897 11.5015 1.9995 11.3892 1.9995 11.25V10.7495C1.9995 10.6128 1.897 10.5005 1.77 10.5005H0.73C0.603 10.5005 0.5005 10.6128 0.5005 10.7495V11.25ZM0.5005 9.751C0.5005 9.88775 0.6005 10 0.72275 10H2.278C2.4 10 2.5 9.88775 2.5 9.751V9.2505C2.5 9.11125 2.4 9.0015 2.27775 9.0015H0.7225C0.6005 9.0015 0.50025 9.11125 0.50025 9.2505L0.5005 9.751Z" fill="white" fill-opacity="0.57" stroke="#D0D5DD" stroke-opacity="0.36" stroke-width="0.5" mask="url(#path-6-inside-1_21_305)"/>
</svg>
