<svg width="164" height="195" viewBox="0 0 164 195" fill="none" xmlns="http://www.w3.org/2000/svg">
<path d="M146.003 183.348C145.817 183.137 145.648 182.944 145.464 182.762C142.834 180.073 140.677 180.647 139.698 181.276C139.476 181.418 139.236 181.614 138.994 181.841C138.834 181.705 138.641 181.684 138.537 181.801L138.47 181.876C138.088 181.778 137.686 181.792 137.301 181.973C136.201 182.489 135.759 183.749 135.759 185.344C135.759 188.053 137.142 190.038 137.907 191.438C138.41 192.357 139.059 193.638 139.059 194.444H139.603C139.603 193.463 138.916 192.112 138.37 191.113C137.603 189.71 136.304 187.877 136.304 185.344C136.304 184.007 136.619 182.958 137.509 182.542C137.659 182.472 137.818 182.435 137.979 182.432L137.946 182.47C137.842 182.588 137.861 182.806 137.981 182.988C137.781 183.261 137.607 183.533 137.482 183.783C136.927 184.892 136.419 187.333 138.795 190.31C138.958 190.52 139.128 190.711 139.313 190.92C143.503 195.662 146.724 195.396 148.341 193.566C149.959 191.735 150.194 188.09 146.003 183.348ZM144.794 182.774C144.048 183.153 143.363 183.761 142.699 184.36L140.214 181.547C141.249 181.008 142.808 180.89 144.794 182.774ZM139.801 181.802L142.346 184.682C142.01 185.003 141.686 185.339 141.375 185.691C141.067 186.04 140.772 186.404 140.491 186.781L137.946 183.901C138.352 183.182 139.165 182.261 139.801 181.802ZM138.805 189.552C137.141 187.304 137.244 185.539 137.721 184.367L140.207 187.18C139.677 187.931 139.141 188.706 138.805 189.552ZM148.023 193.205C146.156 195.318 142.94 194.304 139.631 190.559C139.464 190.37 139.3 190.177 139.139 189.98C139.453 189.074 140.083 188.174 140.66 187.354C140.934 186.966 141.335 186.457 141.698 186.047C142.058 185.639 142.508 185.184 142.852 184.874C143.577 184.219 144.37 183.507 145.173 183.152C145.337 183.321 145.535 183.539 145.685 183.708C148.994 187.453 149.89 191.092 148.023 193.205Z" fill="white" fill-opacity="0.32"/>
<path d="M139.765 181.381C140.235 181.079 140.991 180.789 141.948 180.899C142.903 181.008 144.075 181.52 145.375 182.849L145.376 182.851C145.556 183.03 145.723 183.219 145.909 183.431C150.082 188.153 149.803 191.722 148.247 193.483C147.467 194.366 146.302 194.874 144.816 194.585C143.322 194.295 141.492 193.198 139.406 190.837C139.221 190.627 139.054 190.439 138.894 190.233L138.893 190.232L138.681 189.958C136.581 187.147 137.076 184.873 137.594 183.839C137.715 183.597 137.885 183.331 138.082 183.062L138.133 182.991L138.085 182.919C138.036 182.844 138.009 182.764 138.004 182.695C137.999 182.626 138.016 182.579 138.039 182.552L138.073 182.516L138.262 182.303L137.977 182.308C137.798 182.311 137.621 182.351 137.456 182.428V182.429C136.494 182.88 136.179 184.001 136.179 185.344C136.179 187.917 137.501 189.785 138.26 191.173C138.533 191.672 138.839 192.255 139.076 192.833C139.294 193.363 139.447 193.879 139.473 194.319H139.178C139.15 193.912 138.991 193.422 138.786 192.935C138.559 192.393 138.269 191.838 138.017 191.377H138.016C137.243 189.964 135.884 188.012 135.884 185.344C135.884 183.861 136.27 182.721 137.167 182.186L137.354 182.086C137.709 181.919 138.082 181.905 138.44 181.997L138.513 182.017L138.564 181.959L138.631 181.884C138.652 181.86 138.684 181.846 138.733 181.851C138.783 181.855 138.848 181.881 138.913 181.936L138.999 182.008L139.08 181.932C139.318 181.708 139.552 181.517 139.765 181.381ZM145.122 183.037C144.298 183.402 143.489 184.13 142.768 184.781C142.421 185.095 141.967 185.553 141.604 185.964C141.239 186.377 140.834 186.89 140.558 187.282C139.983 188.098 139.341 189.013 139.021 189.94L138.998 190.005L139.042 190.059C139.123 190.158 139.205 190.256 139.287 190.354L139.537 190.642C141.199 192.523 142.849 193.731 144.33 194.198C145.82 194.668 147.145 194.387 148.116 193.287C149.084 192.192 149.327 190.709 148.916 189.039C148.506 187.371 147.441 185.507 145.779 183.625H145.778C145.627 183.455 145.428 183.236 145.263 183.065L145.202 183.002L145.122 183.037ZM137.606 184.32C137.111 185.535 137.017 187.346 138.705 189.626L138.839 189.807L138.921 189.598C139.251 188.768 139.779 188.005 140.309 187.252L140.365 187.171L140.3 187.097L137.815 184.284L137.682 184.134L137.606 184.32ZM139.728 181.7C139.076 182.171 138.252 183.105 137.837 183.839L137.793 183.917L137.853 183.984L140.398 186.864L140.499 186.98L140.592 186.856C140.871 186.481 141.164 186.12 141.469 185.774L141.468 185.773C141.777 185.424 142.1 185.091 142.433 184.773L142.52 184.69L142.44 184.6L139.895 181.719L139.82 181.634L139.728 181.7ZM142.169 181.129C141.37 180.985 140.693 181.156 140.156 181.437L140.014 181.51L140.12 181.63L142.605 184.443L142.689 184.537L142.782 184.452C143.449 183.851 144.121 183.256 144.851 182.886L145.009 182.806L144.88 182.684C143.875 181.73 142.967 181.273 142.169 181.129Z" stroke="#D0D5DD" stroke-opacity="0.94" stroke-width="0.25"/>
</svg>
