<svg width="285" height="232" viewBox="0 0 285 232" fill="none" xmlns="http://www.w3.org/2000/svg">
<path d="M197.773 207.783C199.847 209.8 199.617 211.993 199.787 213.144C199.957 214.298 200.178 214.283 201.185 214.983C201.311 215.068 201.418 215.178 201.5 215.306C201.583 215.434 201.638 215.577 201.662 215.727C201.687 215.877 201.68 216.03 201.643 216.177C201.606 216.325 201.54 216.463 201.447 216.584L199.488 219.15C199.396 219.27 199.28 219.371 199.147 219.445C199.015 219.519 198.869 219.566 198.718 219.581C198.567 219.597 198.414 219.582 198.269 219.537C198.124 219.492 197.99 219.418 197.875 219.319C196.919 218.59 196.765 218.331 195.732 218.454C194.439 218.628 192.085 219.563 189.236 217.388C188.525 216.852 187.932 216.174 187.496 215.398C187.06 214.622 186.789 213.764 186.701 212.878C186.613 211.992 186.709 211.097 186.984 210.25C187.259 209.403 187.706 208.623 188.298 207.957C188.889 207.292 189.612 206.756 190.421 206.384C191.23 206.012 192.107 205.811 192.997 205.795C193.887 205.778 194.771 205.946 195.593 206.289C196.415 206.631 197.157 207.14 197.773 207.783Z" stroke="#D0D5DD" stroke-opacity="0.36" stroke-width="1.5" stroke-linecap="round" stroke-linejoin="round"/>
<path d="M199.279 219.313L200.739 220.427C201.138 220.732 201.635 220.76 201.843 220.486L203.357 218.504C203.567 218.229 203.407 217.758 203.009 217.454L201.55 216.339M189.664 210.81C189.229 211.38 189.038 212.1 189.134 212.811C189.229 213.522 189.603 214.165 190.173 214.601M198.74 205.343L200.092 203.572M191.576 202.694L191.279 200.479M203.037 209.916L205.251 209.618M184.138 205.399L185.57 206.492M181.292 213.557L183.501 213.269M193.791 224.628L193.488 222.422M187.931 219.5L186.58 221.27" stroke="#D0D5DD" stroke-opacity="0.36" stroke-width="1.5" stroke-linecap="round" stroke-linejoin="round"/>
<path fill-rule="evenodd" clip-rule="evenodd" d="M48.0529 200.01C47.5098 199.987 46.9984 199.748 46.6311 199.347C46.2638 198.947 46.0708 198.416 46.0946 197.873L46.5516 187.407C46.5753 186.864 46.8138 186.352 47.2147 185.985C47.6155 185.618 48.1457 185.425 48.6889 185.448L56.425 185.786C56.9681 185.81 57.4795 186.048 57.8468 186.449C58.2141 186.85 58.4071 187.38 58.3833 187.923L58.2599 190.749C58.8632 190.598 59.409 190.273 59.8299 189.815C59.9249 189.712 60.0493 189.641 60.1862 189.611C60.323 189.581 60.4658 189.594 60.5951 189.647C60.7245 189.701 60.8341 189.794 60.9092 189.912C60.9842 190.03 61.0211 190.169 61.0148 190.309L60.7556 196.243C60.7495 196.383 60.7006 196.518 60.6154 196.629C60.5303 196.74 60.413 196.822 60.2795 196.865C60.1461 196.907 60.0028 196.907 59.8691 196.865C59.7355 196.824 59.6179 196.742 59.5323 196.631C59.1527 196.138 58.6373 195.767 58.0497 195.564L57.9263 198.39C57.9025 198.933 57.6641 199.444 57.2632 199.812C56.8624 200.179 56.3322 200.372 55.789 200.348L48.0529 200.01ZM48.1125 198.645C47.9315 198.637 47.761 198.558 47.6386 198.424C47.5162 198.291 47.4518 198.114 47.4598 197.933L47.9168 187.466C47.9247 187.285 48.0042 187.115 48.1378 186.992C48.2714 186.87 48.4482 186.806 48.6292 186.814L55.4552 187.112C55.6363 187.12 55.8067 187.199 55.9292 187.333C56.0516 187.466 56.1159 187.643 56.108 187.824L55.6509 198.291C55.643 198.472 55.5635 198.642 55.4299 198.765C55.2963 198.887 55.1196 198.951 54.9385 198.943L48.1125 198.645Z" fill="white" fill-opacity="0.24"/>
<path d="M273.887 29.5555C273.694 29.7336 273.518 29.8953 273.35 30.0717C270.883 32.5967 271.291 34.7732 271.799 35.7761C271.913 36.0024 272.074 36.2504 272.262 36.5C272.136 36.6555 272.109 36.8469 272.207 36.9552L272.271 37.025C272.168 37.4028 272.163 37.8051 272.304 38.1973C272.708 39.3157 273.791 39.8053 275.187 39.8663C277.557 39.9698 279.355 38.6643 280.613 37.9535C281.439 37.4862 282.588 36.8865 283.294 36.9173L283.318 36.3733C282.459 36.3357 281.247 36.9706 280.349 37.4783C279.088 38.1908 277.427 39.419 275.21 39.322C274.04 39.2709 273.137 38.9157 272.811 38.0108C272.757 37.8588 272.731 37.6981 272.736 37.5368L272.767 37.5717C272.866 37.6797 273.057 37.6691 273.222 37.5562C273.452 37.7668 273.682 37.9506 273.896 38.0853C274.842 38.6824 276.956 39.2831 279.664 37.0232C279.856 36.8679 280.03 36.7059 280.221 36.5291C284.554 32.5242 284.461 29.2958 282.93 27.6102C281.399 25.9245 278.22 25.5504 273.887 29.5555ZM273.332 30.7414C273.631 31.5019 274.133 32.2091 274.628 32.8955L272.058 35.2708C271.631 34.2161 271.597 32.6535 273.332 30.7414ZM272.263 35.6924L274.895 33.2598C275.161 33.6078 275.441 33.9445 275.736 34.269C276.028 34.5898 276.333 34.8981 276.651 35.1933L274.019 37.6261C273.408 37.1929 272.638 36.3455 272.263 35.6924ZM279.002 36.9836C276.962 38.5605 275.422 38.3897 274.418 37.8685L276.987 35.4931C277.622 36.0504 278.277 36.6159 279.002 36.9836ZM282.601 27.9145C284.368 29.8605 283.341 33.0341 279.919 36.1973C279.746 36.3573 279.57 36.5138 279.391 36.6666C278.612 36.3187 277.852 35.6547 277.16 35.047C276.832 34.7587 276.404 34.3379 276.061 33.9602C275.72 33.5844 275.341 33.1174 275.085 32.7625C274.543 32.0125 273.955 31.193 273.679 30.3774C273.834 30.2203 274.034 30.0304 274.188 29.8876C277.61 26.7247 280.833 25.9686 282.601 27.9145Z" fill="white" fill-opacity="0.32"/>
<path d="M271.582 33.5125C271.721 32.5575 272.221 31.4052 273.439 30.1587L273.44 30.1587L273.441 30.1578C273.606 29.985 273.778 29.8259 273.972 29.6473C276.127 27.655 277.982 26.7649 279.475 26.5729C280.964 26.3817 282.101 26.8827 282.838 27.6943C283.575 28.5061 283.972 29.6931 283.653 31.1736C283.333 32.6582 282.292 34.4453 280.137 36.4373C279.945 36.6148 279.773 36.7741 279.585 36.9265L279.584 36.9274L279.335 37.1286C278.1 38.092 277.007 38.4486 276.112 38.501C275.157 38.557 274.417 38.2667 273.963 37.98C273.757 37.8505 273.533 37.6711 273.306 37.4635L273.233 37.3968L273.151 37.4529C273.085 37.4982 273.018 37.5198 272.964 37.5219C272.912 37.5239 272.879 37.5083 272.86 37.4881L272.828 37.4525L272.62 37.2224L272.611 37.5329C272.606 37.7096 272.633 37.8861 272.693 38.0526L272.693 38.0536C273.046 39.0334 274.022 39.395 275.205 39.4467C276.901 39.521 278.282 38.8328 279.391 38.1877L280.411 37.5871C280.859 37.3338 281.381 37.0512 281.896 36.8368C282.362 36.6429 282.81 36.5105 283.188 36.4982L283.175 36.7939C282.814 36.8097 282.379 36.9498 281.95 37.1333C281.464 37.3406 280.965 37.6103 280.551 37.8445C279.277 38.5643 277.518 39.8428 275.193 39.7414C273.818 39.6813 272.799 39.2029 272.421 38.1551C272.29 37.7908 272.294 37.4149 272.391 37.058L272.41 36.9914L272.363 36.9414L272.3 36.8712C272.281 36.8505 272.268 36.8147 272.275 36.7607C272.282 36.7063 272.309 36.641 272.359 36.5786L272.42 36.5031L272.362 36.4253C272.177 36.1794 272.02 35.9371 271.91 35.7193C271.666 35.2375 271.444 34.4685 271.582 33.5125ZM273.561 30.4172C273.844 31.2541 274.444 32.09 274.983 32.836C275.242 33.195 275.624 33.6653 275.968 34.0442C276.314 34.425 276.745 34.8489 277.077 35.1405C277.765 35.7449 278.54 36.4237 279.341 36.7809L279.412 36.8133L279.472 36.7622L280.004 36.2888C281.724 34.6992 282.852 33.0979 283.325 31.6383C283.798 30.1741 283.614 28.8443 282.693 27.8307C281.772 26.817 280.474 26.5143 278.986 26.8634C277.595 27.1896 276.032 28.0847 274.426 29.5048L274.103 29.7957C273.947 29.9394 273.747 30.1307 273.59 30.2894L273.536 30.3447L273.561 30.4172ZM274.361 37.9798C274.882 38.2501 275.543 38.4293 276.336 38.3368C277.129 38.2444 278.045 37.8813 279.078 37.0822L279.235 36.962L279.058 36.8721C278.349 36.5127 277.706 35.958 277.07 35.3992L276.985 35.3251L276.902 35.4017L274.333 37.7772L274.202 37.8976L274.361 37.9798ZM272.155 35.7545C272.538 36.4233 273.321 37.2844 273.947 37.7281L274.03 37.7865L274.104 37.7183L276.735 35.2849L276.835 35.1935L276.736 35.1012C276.42 34.8086 276.118 34.5027 275.828 34.1847C275.537 33.8628 275.258 33.5287 274.994 33.1835L274.911 33.0753L274.81 33.1677L272.178 35.601L272.106 35.6683L272.155 35.7545ZM271.762 33.3024C271.602 34.0911 271.721 34.771 271.942 35.318L272.01 35.4852L272.144 35.363L274.714 32.9875L274.794 32.9118L274.73 32.822C274.233 32.134 273.742 31.4392 273.449 30.6958L273.375 30.5088L273.24 30.6573C272.36 31.6261 271.923 32.5145 271.762 33.3024Z" stroke="#D0D5DD" stroke-opacity="0.36" stroke-width="0.25"/>
<mask id="path-6-inside-1_21_382" fill="white">
<path d="M16.3963 0.937942L16.1361 6.89635C12.6052 6.74215 12.5396 8.24637 12.476 9.70076C12.415 11.0994 12.3572 12.4216 9.06209 12.2777L9.05176 12.5143C12.5826 12.6685 12.6483 11.1643 12.7118 9.71106C12.7729 8.31127 12.8306 6.98908 16.1258 7.13298L15.856 13.31C15.8406 13.6634 16.1348 13.9635 16.5102 13.9799L21.9719 14.2184C22.3496 14.2349 22.6666 13.9615 22.682 13.6081L23.2223 1.23603C23.2377 0.882903 22.9458 0.582917 22.5681 0.566423L17.1064 0.327909C16.731 0.311513 16.4117 0.58481 16.3963 0.937942ZM16.811 1.89345L16.8293 1.47342C16.8436 1.14669 17.2991 1.16658 17.2848 1.49332L17.2665 1.91334C17.2522 2.23985 16.7967 2.21996 16.811 1.89345ZM16.7514 3.25774L16.7697 2.83771C16.784 2.51097 17.2395 2.53087 17.2253 2.8576L17.2069 3.27763C17.1927 3.60414 16.7371 3.58425 16.7514 3.25774ZM19.2824 2.7026L19.7379 2.72249C19.8646 2.72803 19.9623 2.83465 19.9569 2.95911L19.937 3.41463C19.9357 3.44471 19.9286 3.47425 19.9159 3.50154C19.9032 3.52884 19.8852 3.55336 19.863 3.5737C19.8408 3.59404 19.8148 3.60979 19.7865 3.62006C19.7582 3.63033 19.7282 3.63491 19.6981 3.63354L19.2426 3.61364C19.1181 3.60821 19.0204 3.50158 19.0259 3.37485L19.0458 2.91933C19.0487 2.85931 19.0752 2.80285 19.1195 2.76226C19.1638 2.72166 19.2223 2.70022 19.2824 2.7026ZM17.8585 4.00731C17.7318 4.00178 17.6363 3.89525 17.6418 3.77079L17.6617 3.31527C17.6671 3.19081 17.7714 3.09301 17.8982 3.09854L18.3537 3.11844C18.4137 3.1213 18.4702 3.14776 18.5108 3.19206C18.5514 3.23637 18.5728 3.29492 18.5704 3.35496L18.5505 3.81048C18.5477 3.8705 18.5212 3.92695 18.4769 3.96755C18.4326 4.00814 18.3741 4.02958 18.314 4.0272L17.8585 4.00731ZM16.6917 4.6243L16.7101 4.20427C16.7243 3.87754 17.1798 3.89743 17.1656 4.22417L17.1472 4.64419C17.133 4.9707 16.6775 4.95081 16.6917 4.6243ZM19.2228 4.06689L19.6783 4.08678C19.805 4.09232 19.9027 4.19894 19.8972 4.32568L19.8773 4.7812C19.8719 4.90566 19.7652 5.00336 19.6385 4.99782L19.183 4.97793C19.123 4.97507 19.0665 4.9486 19.0259 4.9043C18.9853 4.86 18.9639 4.80145 18.9663 4.74141L18.9862 4.28589C18.9917 4.15915 19.0983 4.06145 19.2228 4.06689ZM17.5821 5.13622L17.602 4.68183C17.603 4.65187 17.6099 4.6224 17.6224 4.59513C17.6349 4.56787 17.6526 4.54334 17.6746 4.52298C17.6966 4.50261 17.7224 4.48681 17.7506 4.47649C17.7787 4.46616 17.8086 4.46152 17.8386 4.46283L18.2941 4.48272C18.4186 4.48816 18.5163 4.59478 18.5107 4.72152L18.4909 5.1759C18.4883 5.23613 18.462 5.29289 18.4176 5.33372C18.3733 5.37456 18.3146 5.39615 18.2543 5.39377L17.7988 5.37387C17.7689 5.3726 17.7396 5.36543 17.7125 5.35277C17.6855 5.34012 17.6611 5.32223 17.641 5.30014C17.6209 5.27805 17.6053 5.2522 17.5952 5.22406C17.5851 5.19593 17.5807 5.16607 17.5821 5.13622ZM20.5098 5.94751C20.3831 5.94198 20.2854 5.83536 20.2909 5.70976L20.3107 5.25537C20.3162 5.12977 20.4228 5.03207 20.5496 5.03761L21.0051 5.0575C21.1295 5.06294 21.2272 5.16956 21.2218 5.29516L21.2019 5.74954C21.1993 5.80977 21.173 5.86653 21.1287 5.90737C21.0843 5.9482 21.0256 5.9698 20.9653 5.96741L20.5098 5.94751ZM19.8177 6.14548C19.8164 6.17547 19.8091 6.20489 19.7963 6.23207C19.7836 6.25925 19.7656 6.28364 19.7434 6.30387C19.7213 6.32409 19.6953 6.33975 19.6671 6.34993C19.6388 6.36012 19.6089 6.36465 19.5789 6.36325L19.1234 6.34336C18.9989 6.33792 18.9012 6.2313 18.9067 6.1057L18.9266 5.65018C18.9294 5.59016 18.9559 5.5337 19.0002 5.49311C19.0445 5.45251 19.1031 5.43107 19.1631 5.43345L19.6186 5.45334C19.7454 5.45888 19.8431 5.5655 19.8376 5.68996L19.8177 6.14548ZM16.6321 5.98859L16.6505 5.56856C16.6647 5.24182 17.1203 5.26172 17.106 5.58845L17.0877 6.00848C17.0734 6.33499 16.6179 6.3151 16.6321 5.98859ZM17.7392 6.73816C17.6125 6.73263 17.5171 6.6261 17.5225 6.50164L17.5424 6.04612C17.5435 6.01625 17.5505 5.98689 17.5631 5.95975C17.5756 5.9326 17.5933 5.9082 17.6153 5.88795C17.6373 5.8677 17.6631 5.852 17.6912 5.84175C17.7193 5.83151 17.7491 5.82692 17.779 5.82826L18.2345 5.84815C18.359 5.85358 18.4567 5.96021 18.4512 6.08581L18.4313 6.54133C18.4284 6.60135 18.4019 6.6578 18.3576 6.6984C18.3133 6.73899 18.2548 6.76043 18.1948 6.75805L17.7392 6.73816ZM20.4899 6.40303L20.9454 6.42293C21.0699 6.42836 21.1676 6.53499 21.1621 6.66058L21.1423 7.11497C21.1397 7.1752 21.1134 7.23195 21.069 7.27279C21.0247 7.31363 20.9659 7.33522 20.9057 7.33283L20.4502 7.31294C20.3235 7.3074 20.2258 7.20078 20.2312 7.07518L20.2511 6.6208C20.2566 6.4952 20.3632 6.3975 20.4899 6.40303ZM19.559 6.81763C19.6858 6.82317 19.7835 6.92979 19.778 7.05539L19.7581 7.51091C19.7567 7.5409 19.7495 7.57032 19.7367 7.59749C19.724 7.62467 19.706 7.64907 19.6838 7.66929C19.6616 7.68952 19.6357 7.70517 19.6074 7.71536C19.5792 7.72555 19.5492 7.73007 19.5193 7.72867L19.0637 7.70878C18.9393 7.70335 18.8416 7.59672 18.8471 7.47112L18.867 7.0156C18.8724 6.89 18.9791 6.7923 19.1035 6.79774L19.559 6.81763ZM16.5725 7.35401L16.5908 6.93399C16.6051 6.60725 17.0606 6.62714 17.0464 6.95388L17.028 7.3739C17.0138 7.70041 16.5582 7.68052 16.5725 7.35401ZM17.6796 8.10359C17.6497 8.10231 17.6204 8.09514 17.5933 8.08249C17.5663 8.06983 17.5419 8.05195 17.5218 8.02986C17.5017 8.00777 17.4861 7.98191 17.476 7.95377C17.4659 7.92564 17.4614 7.89578 17.4629 7.86593L17.4828 7.41154C17.4839 7.38167 17.4909 7.35232 17.5034 7.32517C17.516 7.29803 17.5337 7.27362 17.5557 7.25337C17.5777 7.23312 17.6035 7.21742 17.6316 7.20718C17.6596 7.19693 17.6895 7.19235 17.7193 7.19368L18.1749 7.21357C18.2993 7.21901 18.397 7.32563 18.3915 7.45123L18.3717 7.90561C18.3691 7.96584 18.3428 8.0226 18.2984 8.06344C18.2541 8.10428 18.1954 8.12587 18.1351 8.12348L17.6796 8.10359ZM20.4303 7.76846L20.8858 7.78835C20.9458 7.79121 21.0023 7.81768 21.0429 7.86198C21.0835 7.90628 21.1049 7.96483 21.1025 8.02487L21.0827 8.48039C21.0801 8.54062 21.0537 8.59738 21.0094 8.63822C20.965 8.67905 20.9063 8.70065 20.8461 8.69826L20.3906 8.67836C20.2638 8.67283 20.1661 8.5662 20.1716 8.44061L20.1915 7.98509C20.1969 7.86062 20.3036 7.76292 20.4303 7.76846ZM19.4994 8.18306C19.6261 8.18859 19.7238 8.29522 19.7184 8.42081L19.6985 8.87633C19.693 9.00079 19.5864 9.0985 19.4597 9.09296L19.0042 9.07307C18.9441 9.07021 18.8877 9.04374 18.8471 8.99944C18.8065 8.95514 18.785 8.89659 18.7874 8.83655L18.8073 8.38103C18.8128 8.25543 18.9194 8.15773 19.0439 8.16316L19.4994 8.18306ZM16.5129 8.71944L16.5312 8.29941C16.5455 7.97267 17.001 7.99257 16.9867 8.3193L16.9684 8.73933C16.9541 9.06584 16.4986 9.04595 16.5129 8.71944ZM17.62 9.46901C17.5901 9.46774 17.5608 9.46057 17.5337 9.44791C17.5066 9.43526 17.4823 9.41737 17.4622 9.39528C17.442 9.37319 17.4265 9.34733 17.4164 9.3192C17.4063 9.29106 17.4018 9.26121 17.4033 9.23135L17.4231 8.77697C17.4243 8.7471 17.4313 8.71774 17.4438 8.6906C17.4563 8.66345 17.4741 8.63905 17.4961 8.6188C17.5181 8.59855 17.5438 8.58285 17.5719 8.5726C17.6 8.56236 17.6298 8.55777 17.6597 8.55911L18.1152 8.579C18.2397 8.58443 18.3374 8.69106 18.3319 8.81666L18.3121 9.27104C18.3095 9.33127 18.2832 9.38802 18.2388 9.42886C18.1945 9.4697 18.1357 9.49129 18.0755 9.4889L17.62 9.46901ZM16.4532 10.0849L16.4716 9.6637C16.4859 9.3381 16.9414 9.35799 16.9272 9.68359L16.9088 10.1048C16.8945 10.4313 16.439 10.4114 16.4532 10.0849ZM18.9843 9.52859L19.4398 9.54848C19.5665 9.55402 19.6642 9.66064 19.6587 9.78624L19.6389 10.2406C19.6375 10.2706 19.6303 10.3 19.6175 10.3272C19.6048 10.3544 19.5868 10.3788 19.5646 10.399C19.5424 10.4192 19.5165 10.4349 19.4882 10.4451C19.46 10.4553 19.43 10.4598 19.4 10.4584L18.9445 10.4385C18.8201 10.4331 18.7224 10.3264 18.7279 10.2008L18.7477 9.74645C18.7532 9.62085 18.8598 9.52315 18.9843 9.52859ZM17.3437 10.5968L17.3636 10.1413C17.3647 10.1114 17.3717 10.0821 17.3842 10.0551C17.3968 10.028 17.4146 10.0036 17.4366 9.98349C17.4586 9.96333 17.4843 9.94774 17.5124 9.93762C17.5405 9.9275 17.5703 9.92305 17.6001 9.92453L18.0556 9.94442C18.1157 9.94711 18.1723 9.97352 18.2129 10.0179C18.2535 10.0622 18.2749 10.1209 18.2723 10.1809L18.2524 10.6365C18.2499 10.6967 18.2235 10.7534 18.1792 10.7943C18.1348 10.8351 18.0761 10.8567 18.0159 10.8543L17.5603 10.8344C17.5305 10.8332 17.5012 10.826 17.4741 10.8133C17.447 10.8007 17.4227 10.7828 17.4025 10.7607C17.3824 10.7386 17.3668 10.7128 17.3567 10.6846C17.3466 10.6565 17.3422 10.6266 17.3437 10.5968ZM16.3936 11.4503L16.412 11.0291C16.4263 10.7024 16.8818 10.7223 16.8675 11.049L16.8491 11.4702C16.8349 11.7956 16.3794 11.7757 16.3936 11.4503ZM18.9246 10.894L19.3802 10.9139C19.5069 10.9194 19.6046 11.0261 19.5991 11.1517L19.5793 11.606C19.5779 11.636 19.5706 11.6655 19.5579 11.6926C19.5451 11.7198 19.5272 11.7442 19.505 11.7644C19.4828 11.7847 19.4568 11.8003 19.4286 11.8105C19.4004 11.8207 19.3704 11.8252 19.3404 11.8238L18.8849 11.8039C18.7604 11.7985 18.6627 11.6919 18.6682 11.5663L18.6881 11.1119C18.6936 10.9863 18.8002 10.8886 18.9246 10.894ZM17.284 11.9622L17.3039 11.5067C17.3051 11.4768 17.3121 11.4475 17.3246 11.4203C17.3371 11.3932 17.3549 11.3688 17.3769 11.3485C17.3989 11.3283 17.4246 11.3126 17.4527 11.3023C17.4808 11.2921 17.5106 11.2875 17.5405 11.2888L17.996 11.3087C18.1205 11.3141 18.2182 11.4208 18.2127 11.5464L18.1928 12.0019C18.1902 12.0621 18.1639 12.1189 18.1196 12.1597C18.0752 12.2006 18.0165 12.2221 17.9562 12.2198L17.5007 12.1999C17.4709 12.1986 17.4415 12.1914 17.4144 12.1788C17.3874 12.1661 17.3631 12.1482 17.3429 12.1261C17.3228 12.104 17.3072 12.0782 17.2971 12.05C17.287 12.0219 17.2826 11.9921 17.284 11.9622ZM16.334 12.8146L16.3524 12.3945C16.3667 12.0678 16.8222 12.0877 16.8079 12.4144L16.7896 12.8345C16.7753 13.161 16.3198 13.1411 16.334 12.8146ZM17.4411 13.5641C17.4113 13.563 17.382 13.556 17.3549 13.5435C17.3279 13.5309 17.3035 13.5132 17.2834 13.4912C17.2632 13.4692 17.2476 13.4434 17.2375 13.4153C17.2274 13.3872 17.2229 13.3574 17.2244 13.3276L17.2443 12.8721C17.2454 12.8422 17.2525 12.8129 17.265 12.7857C17.2775 12.7586 17.2953 12.7342 17.3172 12.7139C17.3392 12.6937 17.365 12.678 17.3931 12.6677C17.4212 12.6575 17.451 12.6529 17.4809 12.6542L17.9364 12.6741C18.0609 12.6796 18.1586 12.7862 18.1531 12.9118L18.1332 13.3673C18.1305 13.4274 18.1041 13.484 18.0597 13.5246C18.0154 13.5652 17.9568 13.5866 17.8967 13.584L17.4411 13.5641ZM18.8054 13.6237C18.681 13.6183 18.5829 13.5205 18.588 13.4038L18.6292 12.4596C18.6343 12.3428 18.7405 12.254 18.865 12.2594L19.3205 12.2793C19.4473 12.2849 19.5454 12.3826 19.5403 12.4993L19.499 13.4436C19.4939 13.5603 19.3877 13.6492 19.2609 13.6436L18.8054 13.6237ZM22.0514 12.3986C22.1758 12.404 22.2739 12.5018 22.2688 12.6185L22.2276 13.5628C22.2225 13.6795 22.1163 13.7683 21.9918 13.7629L21.5363 13.743C21.4118 13.7375 21.3137 13.6398 21.3188 13.5231L21.3601 12.5788C21.3652 12.4621 21.4714 12.3733 21.5959 12.3787L22.0514 12.3986ZM20.9248 12.0957L20.863 13.5109C20.8581 13.6231 20.752 13.7087 20.6275 13.7033L20.172 13.6834C20.0453 13.6779 19.947 13.5833 19.9519 13.4711L20.0137 12.0556C20.0186 11.9446 20.1247 11.8578 20.2515 11.8634L20.707 11.8833C20.8314 11.8889 20.9296 11.9844 20.9248 12.0957ZM22.111 11.0332C22.2355 11.0386 22.3332 11.1452 22.3277 11.2708L22.3078 11.7252C22.3053 11.7854 22.2789 11.8422 22.2346 11.883C22.1902 11.9239 22.1315 11.9455 22.0713 11.9431L21.6157 11.9232C21.5859 11.9219 21.5566 11.9147 21.5295 11.9021C21.5024 11.8894 21.4781 11.8715 21.4579 11.8494C21.4378 11.8274 21.4222 11.8015 21.4121 11.7734C21.402 11.7452 21.3976 11.7154 21.3991 11.6855L21.4189 11.2311C21.42 11.2013 21.4271 11.1719 21.4396 11.1448C21.4521 11.1176 21.4699 11.0932 21.4919 11.073C21.5138 11.0527 21.5396 11.037 21.5677 11.0268C21.5958 11.0165 21.6256 11.0119 21.6555 11.0133L22.111 11.0332ZM20.9833 10.7557L20.9634 11.2112C20.9605 11.2713 20.9341 11.3277 20.8898 11.3683C20.8455 11.4089 20.7869 11.4304 20.7269 11.428L20.2714 11.4081C20.1446 11.4025 20.0469 11.2959 20.0524 11.1715L20.0722 10.7159C20.0777 10.5903 20.1844 10.4926 20.3111 10.4982L20.7666 10.5181C20.8911 10.5235 20.9888 10.6301 20.9833 10.7557ZM22.1706 9.66774C22.2951 9.67317 22.3928 9.7798 22.3873 9.9054L22.3675 10.3598C22.3649 10.42 22.3386 10.4768 22.2942 10.5176C22.2499 10.5584 22.1911 10.58 22.1309 10.5776L21.6754 10.5578C21.6455 10.5565 21.6162 10.5493 21.5891 10.5367C21.562 10.524 21.5377 10.5061 21.5176 10.484C21.4974 10.4619 21.4819 10.4361 21.4718 10.4079C21.4617 10.3798 21.4572 10.3499 21.4587 10.3201L21.4785 9.86571C21.4797 9.83584 21.4867 9.80648 21.4992 9.77934C21.5117 9.75219 21.5295 9.72779 21.5515 9.70754C21.5735 9.68729 21.5993 9.67159 21.6273 9.66134C21.6554 9.6511 21.6853 9.64651 21.7151 9.64785L22.1706 9.66774ZM21.0429 9.3903L21.023 9.84582C21.0205 9.90605 20.9941 9.9628 20.9498 10.0036C20.9054 10.0445 20.8467 10.0661 20.7865 10.0637L20.3309 10.0438C20.2042 10.0383 20.1065 9.93163 20.112 9.80603L20.1319 9.35051C20.1374 9.22491 20.244 9.12721 20.3707 9.13275L20.8262 9.15264C20.9507 9.15807 21.0484 9.2647 21.0429 9.3903ZM22.3893 4.66156C22.5137 4.66699 22.6122 4.75587 22.6075 4.86258L22.4254 9.03326C22.4208 9.1377 22.315 9.21765 22.1905 9.21222L21.735 9.19232C21.6105 9.18689 21.5121 9.09801 21.5166 8.99358L21.6988 4.8229C21.7034 4.71619 21.8093 4.63623 21.9337 4.64167L22.3893 4.66156ZM21.025 4.60198L20.5694 4.58209C20.4427 4.57655 20.345 4.46993 20.3504 4.34547L20.3703 3.88995C20.3758 3.76549 20.4824 3.66779 20.6091 3.67332L21.0647 3.69322C21.1247 3.69608 21.1811 3.72254 21.2217 3.76684C21.2623 3.81114 21.2838 3.86969 21.2814 3.92973L21.2615 4.38525C21.2586 4.44527 21.2322 4.50173 21.1879 4.54233C21.1436 4.58292 21.085 4.60436 21.025 4.60198ZM22.4488 3.29727C22.5089 3.30013 22.5653 3.3266 22.6059 3.3709C22.6465 3.4152 22.6679 3.47375 22.6656 3.53379L22.6457 3.98931C22.6428 4.04933 22.6163 4.10579 22.572 4.14638C22.5277 4.18698 22.4692 4.20842 22.4091 4.20604L21.9536 4.18615C21.8269 4.18061 21.7315 4.07409 21.7369 3.94963L21.7568 3.49411C21.7622 3.36965 21.8666 3.27184 21.9933 3.27738L22.4488 3.29727ZM22.5482 1.02194C22.6727 1.02738 22.7708 1.12285 22.766 1.23412L22.7042 2.6496C22.6993 2.76064 22.5932 2.84719 22.4687 2.84175L22.0132 2.82186C21.8865 2.81632 21.7906 2.72095 21.7954 2.60968L21.8572 1.1942C21.8621 1.08317 21.966 0.996288 22.0927 1.00182L22.5482 1.02194ZM21.1839 0.962364C21.3084 0.967799 21.4069 1.0544 21.4024 1.15884L21.3193 3.06079C21.3149 3.16295 21.209 3.2429 21.0846 3.23747L20.629 3.21757C20.5023 3.21204 20.4038 3.12316 20.4083 3.021L20.4913 1.11905C20.4959 1.01461 20.6017 0.936937 20.7284 0.942472L21.1839 0.962364ZM19.8173 0.902686C19.9441 0.908221 20.0422 1.00597 20.0371 1.12156L19.9958 2.0681C19.9907 2.18368 19.8845 2.27251 19.7578 2.26697L19.3022 2.24708C19.1778 2.24165 19.0797 2.1439 19.0847 2.02831L19.1261 1.08177C19.1311 0.966185 19.2374 0.877358 19.3618 0.882793L19.8173 0.902686ZM18.4531 0.843107C18.5775 0.848542 18.6757 0.944017 18.6709 1.05528L18.609 2.47076C18.6042 2.5818 18.4981 2.66835 18.3736 2.66292L17.9181 2.64302C17.7913 2.63749 17.6954 2.54211 17.7003 2.43085L17.7621 1.01537C17.7669 0.904331 17.8708 0.817452 17.9976 0.822987L18.4531 0.843107Z"/>
</mask>
<path d="M16.3963 0.937942L16.1361 6.89635C12.6052 6.74215 12.5396 8.24637 12.476 9.70076C12.415 11.0994 12.3572 12.4216 9.06209 12.2777L9.05176 12.5143C12.5826 12.6685 12.6483 11.1643 12.7118 9.71106C12.7729 8.31127 12.8306 6.98908 16.1258 7.13298L15.856 13.31C15.8406 13.6634 16.1348 13.9635 16.5102 13.9799L21.9719 14.2184C22.3496 14.2349 22.6666 13.9615 22.682 13.6081L23.2223 1.23603C23.2377 0.882903 22.9458 0.582917 22.5681 0.566423L17.1064 0.327909C16.731 0.311513 16.4117 0.58481 16.3963 0.937942ZM16.811 1.89345L16.8293 1.47342C16.8436 1.14669 17.2991 1.16658 17.2848 1.49332L17.2665 1.91334C17.2522 2.23985 16.7967 2.21996 16.811 1.89345ZM16.7514 3.25774L16.7697 2.83771C16.784 2.51097 17.2395 2.53087 17.2253 2.8576L17.2069 3.27763C17.1927 3.60414 16.7371 3.58425 16.7514 3.25774ZM19.2824 2.7026L19.7379 2.72249C19.8646 2.72803 19.9623 2.83465 19.9569 2.95911L19.937 3.41463C19.9357 3.44471 19.9286 3.47425 19.9159 3.50154C19.9032 3.52884 19.8852 3.55336 19.863 3.5737C19.8408 3.59404 19.8148 3.60979 19.7865 3.62006C19.7582 3.63033 19.7282 3.63491 19.6981 3.63354L19.2426 3.61364C19.1181 3.60821 19.0204 3.50158 19.0259 3.37485L19.0458 2.91933C19.0487 2.85931 19.0752 2.80285 19.1195 2.76226C19.1638 2.72166 19.2223 2.70022 19.2824 2.7026ZM17.8585 4.00731C17.7318 4.00178 17.6363 3.89525 17.6418 3.77079L17.6617 3.31527C17.6671 3.19081 17.7714 3.09301 17.8982 3.09854L18.3537 3.11844C18.4137 3.1213 18.4702 3.14776 18.5108 3.19206C18.5514 3.23637 18.5728 3.29492 18.5704 3.35496L18.5505 3.81048C18.5477 3.8705 18.5212 3.92695 18.4769 3.96755C18.4326 4.00814 18.3741 4.02958 18.314 4.0272L17.8585 4.00731ZM16.6917 4.6243L16.7101 4.20427C16.7243 3.87754 17.1798 3.89743 17.1656 4.22417L17.1472 4.64419C17.133 4.9707 16.6775 4.95081 16.6917 4.6243ZM19.2228 4.06689L19.6783 4.08678C19.805 4.09232 19.9027 4.19894 19.8972 4.32568L19.8773 4.7812C19.8719 4.90566 19.7652 5.00336 19.6385 4.99782L19.183 4.97793C19.123 4.97507 19.0665 4.9486 19.0259 4.9043C18.9853 4.86 18.9639 4.80145 18.9663 4.74141L18.9862 4.28589C18.9917 4.15915 19.0983 4.06145 19.2228 4.06689ZM17.5821 5.13622L17.602 4.68183C17.603 4.65187 17.6099 4.6224 17.6224 4.59513C17.6349 4.56787 17.6526 4.54334 17.6746 4.52298C17.6966 4.50261 17.7224 4.48681 17.7506 4.47649C17.7787 4.46616 17.8086 4.46152 17.8386 4.46283L18.2941 4.48272C18.4186 4.48816 18.5163 4.59478 18.5107 4.72152L18.4909 5.1759C18.4883 5.23613 18.462 5.29289 18.4176 5.33372C18.3733 5.37456 18.3146 5.39615 18.2543 5.39377L17.7988 5.37387C17.7689 5.3726 17.7396 5.36543 17.7125 5.35277C17.6855 5.34012 17.6611 5.32223 17.641 5.30014C17.6209 5.27805 17.6053 5.2522 17.5952 5.22406C17.5851 5.19593 17.5807 5.16607 17.5821 5.13622ZM20.5098 5.94751C20.3831 5.94198 20.2854 5.83536 20.2909 5.70976L20.3107 5.25537C20.3162 5.12977 20.4228 5.03207 20.5496 5.03761L21.0051 5.0575C21.1295 5.06294 21.2272 5.16956 21.2218 5.29516L21.2019 5.74954C21.1993 5.80977 21.173 5.86653 21.1287 5.90737C21.0843 5.9482 21.0256 5.9698 20.9653 5.96741L20.5098 5.94751ZM19.8177 6.14548C19.8164 6.17547 19.8091 6.20489 19.7963 6.23207C19.7836 6.25925 19.7656 6.28364 19.7434 6.30387C19.7213 6.32409 19.6953 6.33975 19.6671 6.34993C19.6388 6.36012 19.6089 6.36465 19.5789 6.36325L19.1234 6.34336C18.9989 6.33792 18.9012 6.2313 18.9067 6.1057L18.9266 5.65018C18.9294 5.59016 18.9559 5.5337 19.0002 5.49311C19.0445 5.45251 19.1031 5.43107 19.1631 5.43345L19.6186 5.45334C19.7454 5.45888 19.8431 5.5655 19.8376 5.68996L19.8177 6.14548ZM16.6321 5.98859L16.6505 5.56856C16.6647 5.24182 17.1203 5.26172 17.106 5.58845L17.0877 6.00848C17.0734 6.33499 16.6179 6.3151 16.6321 5.98859ZM17.7392 6.73816C17.6125 6.73263 17.5171 6.6261 17.5225 6.50164L17.5424 6.04612C17.5435 6.01625 17.5505 5.98689 17.5631 5.95975C17.5756 5.9326 17.5933 5.9082 17.6153 5.88795C17.6373 5.8677 17.6631 5.852 17.6912 5.84175C17.7193 5.83151 17.7491 5.82692 17.779 5.82826L18.2345 5.84815C18.359 5.85358 18.4567 5.96021 18.4512 6.08581L18.4313 6.54133C18.4284 6.60135 18.4019 6.6578 18.3576 6.6984C18.3133 6.73899 18.2548 6.76043 18.1948 6.75805L17.7392 6.73816ZM20.4899 6.40303L20.9454 6.42293C21.0699 6.42836 21.1676 6.53499 21.1621 6.66058L21.1423 7.11497C21.1397 7.1752 21.1134 7.23195 21.069 7.27279C21.0247 7.31363 20.9659 7.33522 20.9057 7.33283L20.4502 7.31294C20.3235 7.3074 20.2258 7.20078 20.2312 7.07518L20.2511 6.6208C20.2566 6.4952 20.3632 6.3975 20.4899 6.40303ZM19.559 6.81763C19.6858 6.82317 19.7835 6.92979 19.778 7.05539L19.7581 7.51091C19.7567 7.5409 19.7495 7.57032 19.7367 7.59749C19.724 7.62467 19.706 7.64907 19.6838 7.66929C19.6616 7.68952 19.6357 7.70517 19.6074 7.71536C19.5792 7.72555 19.5492 7.73007 19.5193 7.72867L19.0637 7.70878C18.9393 7.70335 18.8416 7.59672 18.8471 7.47112L18.867 7.0156C18.8724 6.89 18.9791 6.7923 19.1035 6.79774L19.559 6.81763ZM16.5725 7.35401L16.5908 6.93399C16.6051 6.60725 17.0606 6.62714 17.0464 6.95388L17.028 7.3739C17.0138 7.70041 16.5582 7.68052 16.5725 7.35401ZM17.6796 8.10359C17.6497 8.10231 17.6204 8.09514 17.5933 8.08249C17.5663 8.06983 17.5419 8.05195 17.5218 8.02986C17.5017 8.00777 17.4861 7.98191 17.476 7.95377C17.4659 7.92564 17.4614 7.89578 17.4629 7.86593L17.4828 7.41154C17.4839 7.38167 17.4909 7.35232 17.5034 7.32517C17.516 7.29803 17.5337 7.27362 17.5557 7.25337C17.5777 7.23312 17.6035 7.21742 17.6316 7.20718C17.6596 7.19693 17.6895 7.19235 17.7193 7.19368L18.1749 7.21357C18.2993 7.21901 18.397 7.32563 18.3915 7.45123L18.3717 7.90561C18.3691 7.96584 18.3428 8.0226 18.2984 8.06344C18.2541 8.10428 18.1954 8.12587 18.1351 8.12348L17.6796 8.10359ZM20.4303 7.76846L20.8858 7.78835C20.9458 7.79121 21.0023 7.81768 21.0429 7.86198C21.0835 7.90628 21.1049 7.96483 21.1025 8.02487L21.0827 8.48039C21.0801 8.54062 21.0537 8.59738 21.0094 8.63822C20.965 8.67905 20.9063 8.70065 20.8461 8.69826L20.3906 8.67836C20.2638 8.67283 20.1661 8.5662 20.1716 8.44061L20.1915 7.98509C20.1969 7.86062 20.3036 7.76292 20.4303 7.76846ZM19.4994 8.18306C19.6261 8.18859 19.7238 8.29522 19.7184 8.42081L19.6985 8.87633C19.693 9.00079 19.5864 9.0985 19.4597 9.09296L19.0042 9.07307C18.9441 9.07021 18.8877 9.04374 18.8471 8.99944C18.8065 8.95514 18.785 8.89659 18.7874 8.83655L18.8073 8.38103C18.8128 8.25543 18.9194 8.15773 19.0439 8.16316L19.4994 8.18306ZM16.5129 8.71944L16.5312 8.29941C16.5455 7.97267 17.001 7.99257 16.9867 8.3193L16.9684 8.73933C16.9541 9.06584 16.4986 9.04595 16.5129 8.71944ZM17.62 9.46901C17.5901 9.46774 17.5608 9.46057 17.5337 9.44791C17.5066 9.43526 17.4823 9.41737 17.4622 9.39528C17.442 9.37319 17.4265 9.34733 17.4164 9.3192C17.4063 9.29106 17.4018 9.26121 17.4033 9.23135L17.4231 8.77697C17.4243 8.7471 17.4313 8.71774 17.4438 8.6906C17.4563 8.66345 17.4741 8.63905 17.4961 8.6188C17.5181 8.59855 17.5438 8.58285 17.5719 8.5726C17.6 8.56236 17.6298 8.55777 17.6597 8.55911L18.1152 8.579C18.2397 8.58443 18.3374 8.69106 18.3319 8.81666L18.3121 9.27104C18.3095 9.33127 18.2832 9.38802 18.2388 9.42886C18.1945 9.4697 18.1357 9.49129 18.0755 9.4889L17.62 9.46901ZM16.4532 10.0849L16.4716 9.6637C16.4859 9.3381 16.9414 9.35799 16.9272 9.68359L16.9088 10.1048C16.8945 10.4313 16.439 10.4114 16.4532 10.0849ZM18.9843 9.52859L19.4398 9.54848C19.5665 9.55402 19.6642 9.66064 19.6587 9.78624L19.6389 10.2406C19.6375 10.2706 19.6303 10.3 19.6175 10.3272C19.6048 10.3544 19.5868 10.3788 19.5646 10.399C19.5424 10.4192 19.5165 10.4349 19.4882 10.4451C19.46 10.4553 19.43 10.4598 19.4 10.4584L18.9445 10.4385C18.8201 10.4331 18.7224 10.3264 18.7279 10.2008L18.7477 9.74645C18.7532 9.62085 18.8598 9.52315 18.9843 9.52859ZM17.3437 10.5968L17.3636 10.1413C17.3647 10.1114 17.3717 10.0821 17.3842 10.0551C17.3968 10.028 17.4146 10.0036 17.4366 9.98349C17.4586 9.96333 17.4843 9.94774 17.5124 9.93762C17.5405 9.9275 17.5703 9.92305 17.6001 9.92453L18.0556 9.94442C18.1157 9.94711 18.1723 9.97352 18.2129 10.0179C18.2535 10.0622 18.2749 10.1209 18.2723 10.1809L18.2524 10.6365C18.2499 10.6967 18.2235 10.7534 18.1792 10.7943C18.1348 10.8351 18.0761 10.8567 18.0159 10.8543L17.5603 10.8344C17.5305 10.8332 17.5012 10.826 17.4741 10.8133C17.447 10.8007 17.4227 10.7828 17.4025 10.7607C17.3824 10.7386 17.3668 10.7128 17.3567 10.6846C17.3466 10.6565 17.3422 10.6266 17.3437 10.5968ZM16.3936 11.4503L16.412 11.0291C16.4263 10.7024 16.8818 10.7223 16.8675 11.049L16.8491 11.4702C16.8349 11.7956 16.3794 11.7757 16.3936 11.4503ZM18.9246 10.894L19.3802 10.9139C19.5069 10.9194 19.6046 11.0261 19.5991 11.1517L19.5793 11.606C19.5779 11.636 19.5706 11.6655 19.5579 11.6926C19.5451 11.7198 19.5272 11.7442 19.505 11.7644C19.4828 11.7847 19.4568 11.8003 19.4286 11.8105C19.4004 11.8207 19.3704 11.8252 19.3404 11.8238L18.8849 11.8039C18.7604 11.7985 18.6627 11.6919 18.6682 11.5663L18.6881 11.1119C18.6936 10.9863 18.8002 10.8886 18.9246 10.894ZM17.284 11.9622L17.3039 11.5067C17.3051 11.4768 17.3121 11.4475 17.3246 11.4203C17.3371 11.3932 17.3549 11.3688 17.3769 11.3485C17.3989 11.3283 17.4246 11.3126 17.4527 11.3023C17.4808 11.2921 17.5106 11.2875 17.5405 11.2888L17.996 11.3087C18.1205 11.3141 18.2182 11.4208 18.2127 11.5464L18.1928 12.0019C18.1902 12.0621 18.1639 12.1189 18.1196 12.1597C18.0752 12.2006 18.0165 12.2221 17.9562 12.2198L17.5007 12.1999C17.4709 12.1986 17.4415 12.1914 17.4144 12.1788C17.3874 12.1661 17.3631 12.1482 17.3429 12.1261C17.3228 12.104 17.3072 12.0782 17.2971 12.05C17.287 12.0219 17.2826 11.9921 17.284 11.9622ZM16.334 12.8146L16.3524 12.3945C16.3667 12.0678 16.8222 12.0877 16.8079 12.4144L16.7896 12.8345C16.7753 13.161 16.3198 13.1411 16.334 12.8146ZM17.4411 13.5641C17.4113 13.563 17.382 13.556 17.3549 13.5435C17.3279 13.5309 17.3035 13.5132 17.2834 13.4912C17.2632 13.4692 17.2476 13.4434 17.2375 13.4153C17.2274 13.3872 17.2229 13.3574 17.2244 13.3276L17.2443 12.8721C17.2454 12.8422 17.2525 12.8129 17.265 12.7857C17.2775 12.7586 17.2953 12.7342 17.3172 12.7139C17.3392 12.6937 17.365 12.678 17.3931 12.6677C17.4212 12.6575 17.451 12.6529 17.4809 12.6542L17.9364 12.6741C18.0609 12.6796 18.1586 12.7862 18.1531 12.9118L18.1332 13.3673C18.1305 13.4274 18.1041 13.484 18.0597 13.5246C18.0154 13.5652 17.9568 13.5866 17.8967 13.584L17.4411 13.5641ZM18.8054 13.6237C18.681 13.6183 18.5829 13.5205 18.588 13.4038L18.6292 12.4596C18.6343 12.3428 18.7405 12.254 18.865 12.2594L19.3205 12.2793C19.4473 12.2849 19.5454 12.3826 19.5403 12.4993L19.499 13.4436C19.4939 13.5603 19.3877 13.6492 19.2609 13.6436L18.8054 13.6237ZM22.0514 12.3986C22.1758 12.404 22.2739 12.5018 22.2688 12.6185L22.2276 13.5628C22.2225 13.6795 22.1163 13.7683 21.9918 13.7629L21.5363 13.743C21.4118 13.7375 21.3137 13.6398 21.3188 13.5231L21.3601 12.5788C21.3652 12.4621 21.4714 12.3733 21.5959 12.3787L22.0514 12.3986ZM20.9248 12.0957L20.863 13.5109C20.8581 13.6231 20.752 13.7087 20.6275 13.7033L20.172 13.6834C20.0453 13.6779 19.947 13.5833 19.9519 13.4711L20.0137 12.0556C20.0186 11.9446 20.1247 11.8578 20.2515 11.8634L20.707 11.8833C20.8314 11.8889 20.9296 11.9844 20.9248 12.0957ZM22.111 11.0332C22.2355 11.0386 22.3332 11.1452 22.3277 11.2708L22.3078 11.7252C22.3053 11.7854 22.2789 11.8422 22.2346 11.883C22.1902 11.9239 22.1315 11.9455 22.0713 11.9431L21.6157 11.9232C21.5859 11.9219 21.5566 11.9147 21.5295 11.9021C21.5024 11.8894 21.4781 11.8715 21.4579 11.8494C21.4378 11.8274 21.4222 11.8015 21.4121 11.7734C21.402 11.7452 21.3976 11.7154 21.3991 11.6855L21.4189 11.2311C21.42 11.2013 21.4271 11.1719 21.4396 11.1448C21.4521 11.1176 21.4699 11.0932 21.4919 11.073C21.5138 11.0527 21.5396 11.037 21.5677 11.0268C21.5958 11.0165 21.6256 11.0119 21.6555 11.0133L22.111 11.0332ZM20.9833 10.7557L20.9634 11.2112C20.9605 11.2713 20.9341 11.3277 20.8898 11.3683C20.8455 11.4089 20.7869 11.4304 20.7269 11.428L20.2714 11.4081C20.1446 11.4025 20.0469 11.2959 20.0524 11.1715L20.0722 10.7159C20.0777 10.5903 20.1844 10.4926 20.3111 10.4982L20.7666 10.5181C20.8911 10.5235 20.9888 10.6301 20.9833 10.7557ZM22.1706 9.66774C22.2951 9.67317 22.3928 9.7798 22.3873 9.9054L22.3675 10.3598C22.3649 10.42 22.3386 10.4768 22.2942 10.5176C22.2499 10.5584 22.1911 10.58 22.1309 10.5776L21.6754 10.5578C21.6455 10.5565 21.6162 10.5493 21.5891 10.5367C21.562 10.524 21.5377 10.5061 21.5176 10.484C21.4974 10.4619 21.4819 10.4361 21.4718 10.4079C21.4617 10.3798 21.4572 10.3499 21.4587 10.3201L21.4785 9.86571C21.4797 9.83584 21.4867 9.80648 21.4992 9.77934C21.5117 9.75219 21.5295 9.72779 21.5515 9.70754C21.5735 9.68729 21.5993 9.67159 21.6273 9.66134C21.6554 9.6511 21.6853 9.64651 21.7151 9.64785L22.1706 9.66774ZM21.0429 9.3903L21.023 9.84582C21.0205 9.90605 20.9941 9.9628 20.9498 10.0036C20.9054 10.0445 20.8467 10.0661 20.7865 10.0637L20.3309 10.0438C20.2042 10.0383 20.1065 9.93163 20.112 9.80603L20.1319 9.35051C20.1374 9.22491 20.244 9.12721 20.3707 9.13275L20.8262 9.15264C20.9507 9.15807 21.0484 9.2647 21.0429 9.3903ZM22.3893 4.66156C22.5137 4.66699 22.6122 4.75587 22.6075 4.86258L22.4254 9.03326C22.4208 9.1377 22.315 9.21765 22.1905 9.21222L21.735 9.19232C21.6105 9.18689 21.5121 9.09801 21.5166 8.99358L21.6988 4.8229C21.7034 4.71619 21.8093 4.63623 21.9337 4.64167L22.3893 4.66156ZM21.025 4.60198L20.5694 4.58209C20.4427 4.57655 20.345 4.46993 20.3504 4.34547L20.3703 3.88995C20.3758 3.76549 20.4824 3.66779 20.6091 3.67332L21.0647 3.69322C21.1247 3.69608 21.1811 3.72254 21.2217 3.76684C21.2623 3.81114 21.2838 3.86969 21.2814 3.92973L21.2615 4.38525C21.2586 4.44527 21.2322 4.50173 21.1879 4.54233C21.1436 4.58292 21.085 4.60436 21.025 4.60198ZM22.4488 3.29727C22.5089 3.30013 22.5653 3.3266 22.6059 3.3709C22.6465 3.4152 22.6679 3.47375 22.6656 3.53379L22.6457 3.98931C22.6428 4.04933 22.6163 4.10579 22.572 4.14638C22.5277 4.18698 22.4692 4.20842 22.4091 4.20604L21.9536 4.18615C21.8269 4.18061 21.7315 4.07409 21.7369 3.94963L21.7568 3.49411C21.7622 3.36965 21.8666 3.27184 21.9933 3.27738L22.4488 3.29727ZM22.5482 1.02194C22.6727 1.02738 22.7708 1.12285 22.766 1.23412L22.7042 2.6496C22.6993 2.76064 22.5932 2.84719 22.4687 2.84175L22.0132 2.82186C21.8865 2.81632 21.7906 2.72095 21.7954 2.60968L21.8572 1.1942C21.8621 1.08317 21.966 0.996288 22.0927 1.00182L22.5482 1.02194ZM21.1839 0.962364C21.3084 0.967799 21.4069 1.0544 21.4024 1.15884L21.3193 3.06079C21.3149 3.16295 21.209 3.2429 21.0846 3.23747L20.629 3.21757C20.5023 3.21204 20.4038 3.12316 20.4083 3.021L20.4913 1.11905C20.4959 1.01461 20.6017 0.936937 20.7284 0.942472L21.1839 0.962364ZM19.8173 0.902686C19.9441 0.908221 20.0422 1.00597 20.0371 1.12156L19.9958 2.0681C19.9907 2.18368 19.8845 2.27251 19.7578 2.26697L19.3022 2.24708C19.1778 2.24165 19.0797 2.1439 19.0847 2.02831L19.1261 1.08177C19.1311 0.966185 19.2374 0.877358 19.3618 0.882793L19.8173 0.902686ZM18.4531 0.843107C18.5775 0.848542 18.6757 0.944017 18.6709 1.05528L18.609 2.47076C18.6042 2.5818 18.4981 2.66835 18.3736 2.66292L17.9181 2.64302C17.7913 2.63749 17.6954 2.54211 17.7003 2.43085L17.7621 1.01537C17.7669 0.904331 17.8708 0.817452 17.9976 0.822987L18.4531 0.843107Z" fill="white" fill-opacity="0.57" stroke="#D0D5DD" stroke-opacity="0.36" stroke-width="0.5" mask="url(#path-6-inside-1_21_382)"/>
</svg>
