<svg width="185" height="346" viewBox="0 0 185 346" fill="none" xmlns="http://www.w3.org/2000/svg">
<path d="M54.575 184.159C51.8679 185.18 49.9806 184.042 48.8662 183.706C47.7491 183.37 47.6688 183.576 46.6071 184.191C46.4768 184.269 46.3319 184.32 46.1814 184.34C46.0308 184.36 45.8777 184.349 45.7315 184.307C45.5854 184.266 45.4492 184.195 45.3315 184.099C45.2138 184.003 45.117 183.884 45.0471 183.749L43.5556 180.886C43.4857 180.751 43.444 180.603 43.433 180.452C43.4221 180.3 43.442 180.148 43.4918 180.005C43.5415 179.861 43.62 179.73 43.7223 179.618C43.8247 179.505 43.9488 179.415 44.0871 179.353C45.1536 178.797 45.453 178.767 45.78 177.781C46.1723 176.536 46.325 174.007 49.5041 172.351C50.2912 171.935 51.1559 171.687 52.0439 171.621C52.9319 171.556 53.8237 171.675 54.6633 171.971C55.5029 172.268 56.272 172.735 56.9221 173.343C57.5722 173.952 58.0892 174.688 58.4406 175.506C58.7919 176.324 58.97 177.206 58.9635 178.097C58.9571 178.987 58.7663 179.866 58.4031 180.679C58.0399 181.492 57.5123 182.221 56.8534 182.82C56.1946 183.419 55.4188 183.875 54.575 184.159Z" stroke="#D0D5DD" stroke-opacity="0.47" stroke-width="1.5" stroke-linecap="round" stroke-linejoin="round"/>
<path d="M43.4964 180.627L41.8675 181.476C41.4226 181.708 41.1864 182.146 41.3452 182.45L42.4972 184.662C42.6571 184.969 43.1519 185.025 43.5958 184.794L45.2246 183.945M55.2775 175.532C54.9458 174.896 54.3753 174.418 53.6911 174.202C53.007 173.987 52.2654 174.052 51.6293 174.384M56.3733 186.071L57.4024 188.047M61.8142 180.709L63.9457 181.38M50.4088 188.019L49.7383 190.15M62.5225 172.826L60.9249 173.659M56.3453 166.786L55.6676 168.908M41.0145 173.401L43.14 174.064M48.145 170.274L47.1165 168.299" stroke="#D0D5DD" stroke-opacity="0.47" stroke-width="1.5" stroke-linecap="round" stroke-linejoin="round"/>
<path fill-rule="evenodd" clip-rule="evenodd" d="M125.182 51.9048C125.434 51.4232 125.867 51.0614 126.386 50.899C126.905 50.7367 127.467 50.7871 127.948 51.0392L137.231 55.897C137.712 56.1491 138.074 56.5822 138.236 57.101C138.399 57.6198 138.348 58.1819 138.096 58.6635L134.506 65.5242C134.253 66.0059 133.82 66.3677 133.302 66.53C132.783 66.6924 132.221 66.642 131.739 66.3899L129.233 65.0783C129.114 65.6889 129.176 66.3209 129.412 66.8965C129.465 67.0262 129.477 67.1691 129.446 67.3058C129.415 67.4424 129.343 67.5662 129.239 67.6604C129.135 67.7546 129.005 67.8146 128.866 67.8324C128.727 67.8501 128.586 67.8246 128.462 67.7595L123.199 65.0053C123.075 64.9404 122.974 64.8389 122.91 64.7146C122.845 64.5903 122.82 64.4492 122.839 64.3104C122.857 64.1715 122.918 64.0417 123.012 63.9384C123.107 63.8352 123.231 63.7635 123.368 63.733C123.975 63.5985 124.529 63.2894 124.963 62.8437L122.457 61.5321C121.975 61.28 121.613 60.8469 121.451 60.3281C121.289 59.8093 121.339 59.2472 121.591 58.7655L125.182 51.9048ZM126.393 52.5384C126.477 52.3779 126.621 52.2573 126.794 52.2032C126.967 52.1491 127.154 52.1659 127.315 52.2499L136.597 57.1077C136.757 57.1917 136.878 57.3361 136.932 57.5091C136.986 57.682 136.969 57.8693 136.885 58.0299L133.717 64.0835C133.633 64.244 133.489 64.3646 133.316 64.4187C133.143 64.4728 132.956 64.456 132.795 64.372L123.513 59.5142C123.352 59.4302 123.232 59.2858 123.178 59.1129C123.124 58.9399 123.14 58.7526 123.224 58.592L126.393 52.5384Z" fill="white" fill-opacity="0.89"/>
<path d="M127.717 51.4822L136.999 56.3401C137.363 56.5307 137.636 56.8582 137.759 57.2505C137.882 57.6427 137.844 58.0677 137.653 58.4318L134.063 65.2923C133.872 65.6563 133.545 65.9297 133.152 66.0525C132.76 66.1752 132.335 66.1373 131.971 65.9468L128.87 64.3238L128.742 64.9832C128.605 65.689 128.677 66.4193 128.95 67.0846L128.949 67.0855C128.963 67.1202 128.966 67.1583 128.958 67.1949C128.95 67.2315 128.93 67.2651 128.903 67.2904C128.875 67.3155 128.84 67.3314 128.803 67.3361C128.765 67.3408 128.728 67.3344 128.695 67.3171L123.431 64.5626C123.398 64.5452 123.371 64.5176 123.353 64.4843C123.336 64.451 123.329 64.4131 123.334 64.376C123.339 64.3388 123.355 64.3037 123.381 64.276C123.406 64.2483 123.44 64.2282 123.476 64.2201C124.178 64.0644 124.82 63.7074 125.321 63.1919L125.789 62.7114L122.689 61.0889C122.325 60.8983 122.051 60.5708 121.929 60.1785C121.806 59.7863 121.844 59.3613 122.034 58.9971L125.625 52.1367C125.815 51.7726 126.143 51.4992 126.535 51.3765C126.927 51.2537 127.352 51.2916 127.717 51.4822ZM127.547 51.8067C127.269 51.6612 126.944 51.6321 126.644 51.7258C126.345 51.8195 126.095 52.0285 125.949 52.3065L122.781 58.3597C122.636 58.6377 122.607 58.9625 122.7 59.2619C122.794 59.5614 123.003 59.8117 123.281 59.9572L132.563 64.815C132.841 64.9605 133.166 64.9896 133.466 64.8959C133.765 64.8022 134.015 64.5931 134.161 64.3152L137.329 58.262C137.474 57.984 137.503 57.6592 137.41 57.3598C137.316 57.0603 137.107 56.8101 136.829 56.6645L127.547 51.8067Z" stroke="#D0D5DD" stroke-opacity="0.68"/>
<path d="M183.622 328.745C183.543 328.495 183.471 328.267 183.383 328.04C182.144 324.734 180 324.18 178.877 324.213C178.623 324.221 178.33 324.262 178.025 324.326C177.937 324.146 177.776 324.04 177.636 324.083L177.546 324.11C177.247 323.857 176.885 323.681 176.47 323.643C175.286 323.533 174.383 324.307 173.735 325.544C172.635 327.647 173.054 329.828 173.163 331.269C173.235 332.216 173.291 333.511 172.963 334.136L173.445 334.389C173.844 333.627 173.784 332.261 173.705 331.232C173.596 329.788 173.189 327.763 174.218 325.797C174.761 324.759 175.466 324.092 176.424 324.181C176.585 324.196 176.741 324.241 176.885 324.314L176.84 324.328C176.7 324.372 176.629 324.549 176.661 324.746C176.373 324.865 176.108 324.996 175.896 325.132C174.953 325.735 173.512 327.393 174.408 330.805C174.468 331.044 174.54 331.271 174.619 331.519C176.406 337.142 179.368 338.429 181.544 337.759C183.72 337.089 185.409 334.368 183.622 328.745ZM182.784 327.74C181.969 327.687 181.115 327.841 180.284 327.998L179.224 324.663C180.36 324.724 181.79 325.357 182.784 327.74ZM178.755 324.67L179.841 328.085C179.413 328.178 178.989 328.289 178.57 328.418C178.155 328.546 177.747 328.691 177.344 328.854L176.259 325.438C176.911 325.068 178.005 324.731 178.755 324.67ZM174.725 330.222C174.163 327.706 174.972 326.385 175.87 325.696L176.93 329.031C176.156 329.369 175.366 329.722 174.725 330.222ZM181.408 337.331C178.896 338.105 176.459 335.828 175.048 331.387C174.976 331.162 174.909 330.937 174.847 330.709C175.493 330.151 176.417 329.745 177.261 329.377C177.661 329.202 178.224 328.994 178.711 328.844C179.196 328.694 179.78 328.549 180.21 328.468C181.119 328.296 182.111 328.111 182.966 328.208C183.043 328.415 183.13 328.676 183.194 328.877C184.605 333.318 183.921 336.557 181.408 337.331Z" fill="white" fill-opacity="0.32"/>
<path d="M181.018 324.978C181.824 325.509 182.655 326.452 183.266 328.084L183.266 328.085L183.266 328.086C183.353 328.308 183.424 328.532 183.503 328.783C184.392 331.58 184.41 333.638 183.95 335.071C183.491 336.5 182.555 337.317 181.507 337.64C180.459 337.962 179.216 337.817 178.011 336.9C176.802 335.98 175.627 334.279 174.738 331.482C174.659 331.232 174.588 331.009 174.529 330.775L174.529 330.774L174.452 330.462C174.105 328.935 174.246 327.794 174.578 326.962C174.933 326.073 175.51 325.526 175.963 325.237C176.167 325.106 176.425 324.979 176.709 324.862L176.801 324.824L176.785 324.726C176.772 324.647 176.781 324.577 176.801 324.527C176.822 324.479 176.85 324.456 176.876 324.448L176.922 324.434L177.219 324.342L176.941 324.203C176.784 324.123 176.612 324.073 176.436 324.056L176.435 324.056C175.398 323.959 174.657 324.689 174.107 325.739C173.32 327.243 173.357 328.785 173.47 330.063L173.581 331.242C173.62 331.755 173.654 332.348 173.629 332.905C173.607 333.409 173.537 333.871 173.387 334.218L173.125 334.081C173.264 333.747 173.322 333.295 173.338 332.828C173.356 332.3 173.324 331.734 173.288 331.26C173.177 329.8 172.767 327.665 173.846 325.603C174.484 324.383 175.35 323.664 176.459 323.767C176.844 323.803 177.183 323.966 177.465 324.206L177.517 324.251L177.582 324.23L177.673 324.202C177.699 324.194 177.737 324.198 177.783 324.227C177.829 324.256 177.877 324.308 177.912 324.38L177.955 324.467L178.05 324.448C178.351 324.385 178.637 324.345 178.881 324.338C179.421 324.322 180.212 324.447 181.018 324.978ZM182.981 328.084C182.103 327.985 181.091 328.174 180.187 328.345C179.752 328.427 179.164 328.573 178.674 328.724C178.183 328.875 177.616 329.086 177.211 329.262C176.372 329.628 175.428 330.042 174.765 330.615L174.705 330.666L174.726 330.742L174.929 331.425C175.638 333.657 176.609 335.358 177.729 336.406C178.854 337.456 180.136 337.854 181.445 337.451C182.754 337.047 183.579 336 183.895 334.505C184.19 333.107 184.043 331.312 183.439 329.255L183.313 328.839C183.249 328.637 183.161 328.374 183.084 328.165L183.057 328.092L182.981 328.084ZM175.794 325.597C175.328 325.954 174.885 326.477 174.632 327.234C174.379 327.991 174.319 328.975 174.604 330.25L174.646 330.442L174.802 330.32C175.429 329.831 176.204 329.484 176.98 329.146L177.083 329.1L177.049 328.993L175.989 325.659L175.936 325.489L175.794 325.597ZM178.745 324.545C177.977 324.608 176.865 324.951 176.197 325.33L176.109 325.38L176.14 325.476L177.226 328.892L177.266 329.021L177.392 328.97C177.791 328.809 178.196 328.665 178.607 328.537C179.022 328.41 179.443 328.3 179.867 328.207L180.001 328.178L179.96 328.048L178.874 324.631L178.844 324.537L178.745 324.545ZM181.132 325.231C180.486 324.751 179.82 324.57 179.231 324.538L179.05 324.528L179.105 324.701L180.164 328.036L180.198 328.142L180.307 328.121C181.141 327.964 181.979 327.814 182.776 327.865L182.977 327.877L182.9 327.691C182.396 326.484 181.777 325.711 181.132 325.231Z" stroke="#D0D5DD" stroke-opacity="0.47" stroke-width="0.25"/>
</svg>
